<mxfile host="app.diagrams.net" modified="2023-04-23T13:50:29.967Z" agent="Mozilla/5.0 (Macintosh; Intel Mac OS X 10.15; rv:108.0) Gecko/20100101 Firefox/108.0" etag="FkH9CnV4UEN9-8X7rLi6" version="21.1.9" type="device">
  <diagram name="Страница 1" id="BQOhezLHXCFIkOmWmTN_">
    <mxGraphModel dx="2196" dy="1978" grid="1" gridSize="10" guides="1" tooltips="1" connect="1" arrows="1" fold="1" page="1" pageScale="1" pageWidth="827" pageHeight="1169" math="0" shadow="0">
      <root>
        <mxCell id="0" />
        <mxCell id="1" parent="0" />
        <mxCell id="12ma-O_swXaxsjLXraEL-41" style="edgeStyle=orthogonalEdgeStyle;rounded=0;orthogonalLoop=1;jettySize=auto;html=1;entryX=0;entryY=0.5;entryDx=0;entryDy=0;" edge="1" parent="1" source="12ma-O_swXaxsjLXraEL-1" target="12ma-O_swXaxsjLXraEL-12">
          <mxGeometry relative="1" as="geometry" />
        </mxCell>
        <mxCell id="12ma-O_swXaxsjLXraEL-1" value="Отдел разработки" style="strokeWidth=2;html=1;shape=mxgraph.lean_mapping.outside_sources;whiteSpace=wrap;align=center;" vertex="1" parent="1">
          <mxGeometry x="-20" y="200" width="100" height="70" as="geometry" />
        </mxCell>
        <mxCell id="12ma-O_swXaxsjLXraEL-2" value="&lt;path cell-id=&quot;BbV96YWCY8mSKkvavRHH-1&quot; d=&quot;M 1597.39 917.84 L 1597.39 871.58 L 1631.28 853.04 L 1631.28 871.58 L 1662.19 853.04 L 1662.19 871.58 L 1693.09 853.04 L 1693.09 917.84 L 1597.39 917.84 Z&quot; fill=&quot;#ffffff&quot; stroke=&quot;#000000&quot; stroke-width=&quot;1.45&quot; stroke-miterlimit=&quot;10&quot; pointer-events=&quot;all&quot;&gt;&lt;/path&gt;" style="text;whiteSpace=wrap;html=1;" vertex="1" parent="1">
          <mxGeometry x="510" y="150" width="60" height="50" as="geometry" />
        </mxCell>
        <mxCell id="12ma-O_swXaxsjLXraEL-37" style="edgeStyle=orthogonalEdgeStyle;rounded=0;orthogonalLoop=1;jettySize=auto;html=1;entryX=1;entryY=0.25;entryDx=0;entryDy=0;" edge="1" parent="1" source="12ma-O_swXaxsjLXraEL-3" target="12ma-O_swXaxsjLXraEL-33">
          <mxGeometry relative="1" as="geometry" />
        </mxCell>
        <mxCell id="12ma-O_swXaxsjLXraEL-38" value="Все запросы" style="edgeLabel;html=1;align=center;verticalAlign=middle;resizable=0;points=[];fontSize=20;" vertex="1" connectable="0" parent="12ma-O_swXaxsjLXraEL-37">
          <mxGeometry x="-0.0084" y="1" relative="1" as="geometry">
            <mxPoint as="offset" />
          </mxGeometry>
        </mxCell>
        <mxCell id="12ma-O_swXaxsjLXraEL-3" value="Заказчик (отдел продаж)" style="strokeWidth=2;html=1;shape=mxgraph.lean_mapping.outside_sources;whiteSpace=wrap;align=center;" vertex="1" parent="1">
          <mxGeometry x="940" y="220" width="100" height="70" as="geometry" />
        </mxCell>
        <mxCell id="12ma-O_swXaxsjLXraEL-6" value="Проанализируйте свою повседневную работу или работу отдела в вашей компании на наличие потерь.&lt;br&gt;&lt;br&gt;&amp;nbsp;&amp;nbsp;&amp;nbsp; Нарисуйте VSM-карту.&lt;br&gt;&amp;nbsp;&amp;nbsp;&amp;nbsp; Найдите потери и классифицируйте их в соответствии с материалом лекции.&lt;br&gt;&amp;nbsp;&amp;nbsp;&amp;nbsp; Подумайте, как исключить эти потери.&lt;br&gt;&amp;nbsp;&amp;nbsp;&amp;nbsp; Нарисуйте новую VSM-карту в соответствии с вашими предложениями.&lt;br&gt;&lt;br&gt;Вы можете использовать все рекомендованные на семинаре программы для рисования VSM-карты. &lt;br&gt;В качестве выполненного задания приложите скрин или PDF-файл с VSM-картой и ответом на вопросы." style="text;html=1;strokeColor=none;fillColor=none;align=center;verticalAlign=middle;whiteSpace=wrap;rounded=0;" vertex="1" parent="1">
          <mxGeometry x="150" y="-140" width="800" height="180" as="geometry" />
        </mxCell>
        <mxCell id="12ma-O_swXaxsjLXraEL-9" value="" style="shape=image;verticalLabelPosition=bottom;labelBackgroundColor=default;verticalAlign=top;aspect=fixed;imageAspect=0;image=data:image/png,iVBORw0KGgoAAAANSUhEUgAABz8AAAOjCAYAAAAlKMn5AAAAAXNSR0IArs4c6QAAAARnQU1BAACxjwv8YQUAAAAJcEhZcwAAEnQAABJ0Ad5mH3gAAP+lSURBVHhe7J0HnBzlffed2HHiuDv4feM4NnbamzixjZM4LrEB94ohuNtgcC8Q02RAgGyMZAtbFNFBEkIIJAQIRBMggSRAIKGOhHrv7U660/Wq/7u/Z+fZm52bvdu527st9/1+Pj/pdvrMs7Ozz3z3eeYVBgAAAAAAAAAAAAAAAABQASA/AQAAAAAAAAAAAAAAAKAiQH4CAAAAAAAAAAAAAAAAQEXwiqXLlhkhhBBCCCGEEEIIIYQQQgghhJR7aPkJAAAAAAAAAAAAAAAAABUB8hMAAAAAAAAAAAAAAAAAKgLkJwAAAAAAAAAAAAAAAABUBMhPAAAAAAAAAAAAAAAAAKgIkJ8AAAAAAAAAAAAAAAAAUBEgPwEAAAAAAAAAAAAAAACgIiiq/Gxta7fqI/W2q+qwbdl70Nbv2peVTXsO2M6Dh+xgbZ01t7UFcwEAAAAAAAAAAAAAAAAAdGfQ5Wdza5vtOVRjq7fvtlnLVttNj86139z9kP3ylqn2/Wsm2k+un5zKne7vX9x0l11654N23cNP2WOLXrKVW3c5GVrf3GKdR48GSwQAAAAAAAAAAAAAAAAAGET52djSapv3HrCZi1fZlffNtB9cO9G+OfpW++HYO5z4/NXt99nwO6bb76Y95qK/L5p4v5172z324+sm2beuvNW+d9UE+83dD9v985fay9t2W21DExIUAAAAAAAAAAAAAAAAABwDLj9b2tpt6/4qm7FguQ2bcJ+TmD+7YbKNvOdRm/bsYlu2ebvtPVRrja1tFtWY7R2drstbtfh8bNFKu/qBWXb2zVOcNFWr0MlzFtiaHXucWAUAAAAAAAAAAAAAAACAoc2Ays+a+kZ7ZtV6u2TSA/aN0be6Vpx3zH7e1u7ca4ebWu1Ac6dtq++wTXUdVtXSae2dZg3tR62p46g1p9IS/L8/Nd3+pk470tJhm/cetHufXWzD73jAiVQt85EXX7J9h4/QChQAAAAAAAAAAAAAAABgCDMg8lMScnf1YbtrzgL7wbV3uOd3jn/iWduwe7/VtLQ74Tlvf6tN3txs169rtLu2NNkWCdDmTlt+qM12NXbYpiMdtr42LUVfONhm929vtqf2ttqG1PC6Ni2/xu55ZpFrCfrdP463sQ895Zbf2t4RbAUAAAAAAAAAAAAAAAAADCUKLj/VVe2WfQft2hmz7dt/uM2GT3rAnlu90WqaWp3gfGJ3i123ttEuXFpv5y2ps2vWNNrKw+1W03rUjZu2rcnJz/n7W23KlmbbXt9he5s6nSC9aFm9jVndaDNT060/0mE1LR2uS9w/Tn/CvjH6Frts8gz3GgEKAAAAAAAAAAAAAAAAMPQoqPzs7Dxqm/cecDLyzKtvT7fG3LPfqoPWmzesa7QLltTZuYvT+e1LDfbM/lYnPhemxo9e1WDjN3bJz8tfqrfp25vd+DW17Xbt2kYnTLUMSVC1BFV3uLuqa23i7Ofte1dNsBGTZ9hLW3Zaa3t7sFXdaWtrsyNHjtihQ4estrbWvY7S2tqamaa+vt46OgKhqq51S6h7XW2X9kHb2dDQkCqDzmCMWXvqGPhxccnsU4lSV1dnhw8fdtt6NHTMO5oag78AAAAAAAAAAAAAAAAAuiio/NxxoNqufnCWnXnN7Tbhyeds76Fa293YadN3NNtvVtRnpKfyq6V1Nm1bsx1s7rT1R9rt+rWNbnhYfl62vN6uWNlgz6X+rm3ttGdT/0uY+mUMX1bvWoTqmaEHjjTYAy8sc13s6hmjq7btsvYcck9C7fHHH7dbb73VpkyZYtu2bQvGdLF27VqbOnWqm2bhwoXW2Nhozanpahe8YK3795eMAK2qqrL77rvPbeczzzzjBKjn4MGDNm3aNDcuLo8++qitXr3aid5S5LHHHrPbbrvNbasXtZ1NTVb10AxrSG03AAAAAAAAAAAAAAAAQJiCyc/qI/U2/sln7Tt/uM1uenSu7T18xPY0ddjUrc2ui1svLH2uWtNoq2va7VBLp927rdmGBS1Co/JTw8aubbS1te12oLnTCdPw8tQK9NYNTbautsMONzbblHkv2reuvNVG3vOobd1XFWxdNmpROGbMGPvMZz5jX/nKV+yJJ55wrSTDTJ482U455RT73Oc+ZzNmzLCGAwds9w032NrvfMuqHnzAOurrgymLy8aNG+373/++feITn3D7JOHp2bBhg33ve99z4+KifTvvvPPsxRdfLEkBeuGFF9qnPvUpt61+++qWLrVVX/6ibbnwV9ZeU+OGlSJ79uwJ/gJIBu8dAAAAAAAAAAAAAIC+UxD52dTaZjMXr3StLn875RHbtPeA7W7scKLy4mXdxadabM7c1eK6w33+QJuNfrnBtQRVJm5Ky091h3vZino3TNPfvz09/ea69HLDLUAlQMdtaLINRzpcF7g3PjrHSdg7Zj9vh+u7WkKGuf/+++1rX/uaE2tqXajWoB51c/u73/3OibczzjjDlixZYm1VVbZ3wnjb+Muznfxsry0N8Zav/NQ0f/jDH2zs2LF25ZVX2vnnn29f+MIX3LiLLrooa75SIU5+Hlm8yNb/6Ae248rR1nrggBtWiiCwoK/w3gEAAAAAAAAAAAAA6DsFkZ8vb99twybcZ2fddLe9uH6LdR4121rfYY/vbrEHd3TP7D2ttrOhwxraj9qKQ+02MzWdz+LqNqtp7XQiMzz8uQPp53uqs9nDqfF6hmh4mQ/vbLE1Ne3W0nHUtuw9aCPummE/vm6SPfvyhtjub1etWmXnnHOOE2uXXXaZbdq0KRiTHve///u/bpyE4a5du9zzP5fOmWOzJkywl55/3glSz759+1zXuI888og98MADriXpypUrs6Y5cOCAk6jPPvus7dy5M+s5oy+//LIbvnTpUtcq1VNdXe3m8ct98skn3TQa7p/tma/8vPrqq92zM4W6xlW3vj/96U/t05/+tH35y1+2HTt2uHFC8mXBggX20EMPufXOnj3bli9f7p4f6p+9qeOhfdZ2a53aJ3W7q33xrWh13J5PHasHH3zQLeepp56yFStWuH0MP8NTrF+/3mbNmpU5fpr3V7/6VTf5qeU/fu01Nje1zPrQsdLx1D5pXi1jTqqstF0vvfSSPffcc65MhdYbHqZjon3VMdb6tR2aRmWq/fHbrddJQGBBX+G9AwAAAAAAAAAAAADQd/otP480NrsWlqeNGW/3PbfE6lra7EjbUatpjU99alx7p7nUt8eMTw3TuMbU/2rpqUh2NncctaMdHda4Zo3VLVnsujxNDXICNboMCdC5K9fZj667w/54/xO2q6qrVadHYvKqq65yXd+edtppToB5JP2+9a1vuW5h9XdLS4t7Lqhag0omXn/99U7Oic2bN9stt9xiP/jBD+zzn/+8E3Unn3yynXvuufbwww9nWpRq+cOGDXPr0vCwGP3jH/9o3/3ud2348OG2ZcsWN2z79u12++23O0Hpl6tueH/+85/bzTff7GSlnoPZF/npufzyy90+arx/7qkksFqHan90bDTu1FNPtbPOOsvGjx/v9kdyUNNpmPZHx0iS+Dvf+Y57Pqeej6p1a7/UctYLzK9+9atOKt9xxx1ZzyZdtmyZXXrppW7/PvnJT7quiEePHu22Qa81r5efaqWrZWq/JFw9c+fOdS1FNa+m/8Y3vmE33XSTO6ann366W56QmB05cqQb9tvf/tYmTpzojp+O8f/8z/+47ZDU1XtD+6P1a7uvu+66RAIUgQV9hfcOAAAAAAAAAAAAAEDf6bf8XLZpu5198xQbMXmGbdlXZRuPdNiMHS123/bm2Dy3v9U951Pd4s7a09pt/Lx9rXawudPW17bb9NTrB1JZcajN6lvarf6ll2zLxRfa+h9+33U923z4cGo5nTZnb/ZyVh5utwN1jXbDI0/bGVdNsCeXvmxtMa0/p0+fbl//+ted5FMLPwk2iU6JLskwSTG1vBSSgxdccIETa+o2VvJTAk8iUsJNokzDNe/ZZ59tX/ziF53Q1PM0JSnVEtGLyClTpriWkx51O6vhP/zhD13LQyHxKRmormklUiXqfvnLX7rlfvazn3XbLoHaV/m5f/9+tzy1/NT+S7aKa6+91q1DAlcy8YorrrCf/OQnbp0SpWrJqVaWa9ascVJQy/7Zz37mxmueO++805qamuz3v/+9G6Z9kIDUcn70ox+59Wk5ixYtcsdF26sWuBKkml5CVV3ynnTSSRnpq4Tlp5epXn6qVa0/BlqGBKvKQMtQ2UhgSjwLyU/tt4ap7CVS9dzTM888082vZWt/1SWyWp6qXDVc5aByyxcEFvQV3jsAAAAAAAAAAAAAAH2nX/KztqHJJs6ab6ePGW8PvrDMDja12/3bm90zOMPP+PQ5PzX83m3NrjWne6bn8u7PA71xXaN7ruf81PiRK+vtjk1NtqW21Y6sWGFbLvqVLT/+Y7b0g/9ha779TTv4wHSrOnDIntqrabueAXrbhibb0dBhC9dttp9ef6f94f7HbXd199af6kJVYlFy65prrrG9e/c6oXbxxRe7YWq5uHv3bjdtnPzUOEk1DZMoUzeqEpIvvPCCa10oyaZuYZubmxPLT0k+bZvWpa5utS51yyqhqmm1vRKH+cpPCUW10FQXrhK9atkoOahxamGpfZfUVAtOyUhJXAlOiRh1WyuxqWnVUlLSNyw/JRy1v/fdd58bLvkpWavl3HDDDW47tByN988ZVetPCU11N+slp+ZZvHixKxftv0Sphis9yc9p06ZlptMxUEtSRS0/NSxOfmq4pK+2SetT175f+tKX3HDJWT0Tdt26da6Vrp9W3SPnCwIL+grvHQAAAAAAAAAAAACAvtMv+alnfZ4/7l67+I7ptmnvQff8zt+v6pKQ0Uh2quWn5OeUrc2x03j5+WJVm2vFuaW2xY4sX25bLuwSnz5rvvUNOzj9fquOCNBLgvVU1TfZ1Q/Osh+OvcMWrN0cbHUXkni+61t1J6vnUUpWSkJKyPkub0Wc/FQ3qGodqWHf/va3XWvHqVOn2syZM+2xxx5zElTTSLgllZ/qVlZd5UpW6vmUml9CUl2zalpJSrV4zFd+Sux985vfdC0Z9bfvTlYtHCX6dCx8i04961Kidf78+W79Wq5ag2p6yUwJ3rD8lOTU8fHPIZWolFCcN2+ee06pWotqOTpuEqWaRxJT040aNcodfw3TvvtlqJWqtt1vZ0/y0x8/LTvcNa2eUaoue3PJT4lYv1wJaklgDdczUP1wlZOGIT9hsOC9AwAAAAAAAAAAAADQd/olP2ctW+2e9alnfh5sbLOHdra41p1Roekzdm2jrattt7WpXLOmMXYaLz/3NHbarrpWO7JsmW3+1QXdxGdGgH7z61Y140E7VFXjur8dFQjQSZubbW9Tpz20cLlrmTp13ovW2JIWWmHUClLPh5TwkvBTd7PqKlUiTC0uPXHyU8Ls3nvvda0xvZCTUNPzJNXVq0SoupcVSeWnWh2qC1ktR93K6tmaEpVeFCaVn5pXXcGqi1flkksucdP755LqOZ5CLSbVla9asqr7V+2bxK5vhRknP9XCMvwMT6FubTWtjpmWI+mq6b3M9PJT47VsHX89KzSMnr/pj2tP8tPvo/4PI5Eqqd2T/PSoLNVdroarRawH+VmZ6L2j1r56j0rOJyH6Pis0vHcAAAAAAAAAAAAAoBRQ47d3vetd9opXvKLf0XLU42lNTU2w9IGjz/KzobnFJs6ebz8aO8nmr95oW+o6nLiMysxw7tzc7J7n+dyBVhu+rHuXt8ot6xttW32HdbR32JGlS23zsPNzik+ftaefZoefmm2HjzTanH1pAfrblxpcS1S1Tj33tnts1D2P2o4D1cHWdyGJ57u+VStQyTjJNYnBsISIk5+iurrann76aSflRowY4cSnuk3VdGqlKblaV1eXU35Kxkk0ariXnxqnbVELzW9961uudaS6iVWXs2q9qWmTyk+JRLXkXLlypYvmq6qqcs/d9Gh/JWLVglLSU+uQgJ08eXKm29t85KeOjU4ISU0dDz1vVMuYMGFCpotbLz8lJfsrP/XcTr3WsQoj+aljivwEj1o36z1+zDHHuBx//PH293//9/bP//zP7scBOjd6QueQPqT1GTBQ8N4BAAAAAAAAAAAAgGLzm9/8xo499libMWOG6+mzv5Hn0vL0/0DTZ/m5/UC1jZz6iA2/4wHbuq/KllS32a9XxAtNnwd3tFhd21F7dFdL7PiLltW71qO1TW1Wt3SJbb7gvG7ic9mH/8slOmz9T35sNamDV3Ok0ebua7XRqxpcV7jVDU02+t6Z9rMbJtvSTduDre9Cwk1yTsLv61//umv1KSmmFpFeuIk4+Sn5NnfuXNfF7dq1a51QVJexkpT+2ZzqClfThuWnJKC6dRWbN292rRM13MvP5cuXZ7pg1bM9NY2kndbhhyeVn9pHv85caBu90Lz11lvddkuOLlmyJDM8H/mprm4lMzVOx0KtX9WydOHChZnnanr5+bvf/S7TmlX757u91TokTvPp9lbSWa8VdbcrtD6JLG1H+cvPlTbx3HPt3Em5xdzKSanx505MTZmQuo02+5aHbG3wMm5d7VXLbNqkeZZuw5xi1cTUukbb7APB636yf9bovm17QtSSW8JT7x9JfT3n1uOfp/u+973PnQdRLr/8cnvPe95jr3nNazK/UnnnO99p//3f/x1MUTiKLj8PzLbReg/0kNGz9G7Yb7N/n3r9+9nBeyP93kmPG4IEx60w+9/7OV8u6Lqja1Ff0ts1CwAAAAAAACqX9P2i7PsR2fH3pqL3I/pWp06vr3D3u/LC3WM71yauCl5XPE22e8F0G/v74TbMl+NFI2zMpHm2sS6YxBG95wSFoPdzKpUSvBfV7d50haB70H/84x+dG1KDNzXsOuuss5x/2b17dzBV8TnhhBOcAC0kajin5Q40fZafyzfvsF/cdLeNmf6k1TS12qw9rT12eSuxKRl5qOWo3RPzvE+Nn7ylyXbUttqRJYtt8/nn2vKP/3eW5Fxx4vG25eKLbOuvL7OVn/9s1jgnQH/0Qzs8d64ToPP2tbocaum0O5563r531QSbu3JdsPXZPPjgg5kWlYokZLjLWxEnP9W1q6Sa5r322mtt1apVTlyoG0119appvfxcvXq1675Ww/Qm1vNEJUq1LN+q0svPF198MdOaUfJTUlDPAJWQ7OszP/ORn3pWqV/+XXfdZVu3bnXL10koUajh+chPLcfLz7vvvtu2b9/utkWiM/rMTx0Dv2ydRHrmqmSrlum72lV6kp9qeeunO//8890zTCWv1b2vhiE/c9NdPHZfl1t2+MtGmcpPtfDUjwd6QufV2972Nvfh+//+3/9zclNiVEiAevGp6McSA0GpyM/hY8bZ5Lsnx2bman0jRX5mgfyMRV22+5bWSaN5AQAAAAAAYGiSvl803MaMj783MfnumbbWCbPo/Yi+1amRnwNNk62cNNzt77BLx9i4oBzHXR2I0GFjbHamnQLycyDo/ZxK5fnSkW6ebvemyxzfAE3dv1544YXOn+j+sxqUqcGO3JHuT+txiHJKxSZf+amWnLp/rqxYsSIYGo+WV9Lyc/6aTfaDa++wcU88a0fajrpWnVGhGc5vVtTb8wdabWdDh43f2JQ1TuLzri1Ntr22xWoXLbJN550TKz63pQ5K47p11rxtq+269hpb+fnPZU3jBOgPf2CHU2+gmiMNrvvcw61HbcaC5XbaH8fbY4viL3qSi16UKRKF4VZhIk5+7tu3z0aPHm1f/OIXncCUeFPhSq5JoKkVqSSnxKCi+STcJNJ0U1ciRtH8Wq6Xn1qu7w5Wxl/ddF588cXu4uClorrC1XSFlJ8SrJpesvBHP/qRk31at0y878pXMlbd+PYkP7ds2eLEkJaj/VPLTJ3IWo5v5SmJ2tLS4lreat+0rxKjWu8vfvELd+y0X/m0/NQyRo4c6YYpErh6jqu2Qc86RX7mJh/xWAnyU11Lf/zjHw9e9Yye+6sLjZ4JKhkqCTN+/Hj3Y4Ow/HzkkUeCOQpLqcjP5BIP+Yn87I6upfphUF8SvQ4DAAAAAADA0CF/GVmY+xH5r6+ADCX5ufshG5na1+GTVlpTMMjTvnumu6dy7vhl1u6GID8HgqK8xwtAJclPORJ5i3y6fJXP+fCHP+x8SDHJR37Kjb3xjW900yq6d65ucnNR8vLz6RVrnfy859lFtr+50+7a0r01ZziXv1RvCw62uWeD3rS+69mgFwfic8eRQHye+8t48Xl5WnweDZ5R2bJzp+0ae62t/EJ3AbruB9+3w08/bU31jdbWaa7F5/evmegkaBxNTU02depUJ+GU5557LiPbPJKfN998sxuvbmslP8W61DaNGzfOCTsJTR+JUll7dfnqeemll+y6665zrUI1jey9usyVUNRyx44d65YrQaf+j/XMyzPPPNNNe8kllzgZc/3117v59L+WLVHi558+fbrV1tYGa0tdU3bvds8O1Ti1bpW07Amt99FHH3XbLgkqcSmZq+Mhuajl6BhoOTt27HACVsM0j+ShR89V1LNOdfFW17Xa/t/+9re2YMEC+/Wvf+3mUStWyU+hXzBo33/84x+7adXUW8dYLTi1r5pe2ybUja5eK74MhFqXTpo0KbN8tTJVi1CVS1h+qhtfrVvTSMp6VN633HKLG6599ng5q+Ov55bmS7HlpxeKyw4ts2n+F1TnD7ORt822bcE3jPQ8objlh9cVfNEITeO+SMbJz8462zhrnI28KJj2opE29v5lVp3uxbiL8PYMG2Hjnts/4PJTZahneuo91hf0jF4JUEnzU0891Z2b+l8togeC8pGf+bX8rNs028ZdMSz9vtB78PrpqfdlMLKSyPu4Ndm2ZybamBHBMUll2KWjbdysbaEv//48XGjbUufViGGabpgNv3qaLatKfxYCAAAAAAAAVDL5i5ro/YjIfTR/H2vLNpt924jgntRwGzN1mVWHqth+fTNXL7Npfwjq7BeNTNXXN1pd5P5W3aZ5NtHf33L19Yk2b0s3pWfVS6bb2J7uicTIz/1PjXHLHTMjfJ8gN2pgot4Jc6Fxuu9ddHoUve228DYd72m20b3295xm2sbVD9nYy8PlETkuh5bZ9OtH23B37yR9nEfo/knoOPt7jwtXTUvfY0mV/8RFwVLaq23Z1DGZ+dUqdeIz+R37ciP/c6rO5l+v4xGZtma+jT0/NXxM+l6gP67u/nO/z5ngPH58mc2+Nr2sYb+/z+6NuzddhshjnHLKKa6xVxj1oKlGYB/4wAecDJRL8Y/1E2oo99GPftQ5kmLRm/zUvXLJTv3vef/739+j3Cx5+fnwiyvs23+4zR54YZk1tB+1dbXt9vyBtpzRM0H3N3W6VqIv13RNu7iqzXbXtVrtiy/apnP+N0Z8nmDbrvitNaYK2otPT8uunbbrurE5BOiZdvjpp6yjsdE27z1oF95+v901Z6E1tbYFc2ejVpR6MylhgeiR8JMA1Xg9g1Ndv3qqqqrcczrV3a2PWkaq1aB/hqWQeFNLFnWpq2nUMlPiVW9+LVfL9xJRYlDD9JxMTasWnhomMaL5NE7zanq/XdoHLwmFxqnrWo2TKA2Py4XmkYyUqNTFUfNrPr8cRXJT69Zx0Gu1iAvvp9B4tdx54YUX3PZrGzWNWpf65eh4eLR96u5W0+tY1tTUuOPq91XP8BT+teJbm2o7dJzUZFxNqjVOrUIlvaItP7UciVtNo2Pq0bbFDdc2apjWm6Sv7dKQn8Nt+KXDbPSk2bZw2UKbPWl0+gIT/Iqqbvsym3f7iNR0Y236smW2bLvkeHhd7bZ/beoLxLWp15enLkipadbuTc3ZTX7ut3lXpy5K54+wsffPs2Wp6ebdP9ZG+Iuhf2v4C+Sw0TbtmdT6nkl9ARwxwsaM0TYMnPx84oknnLxUi+S+olbOagU6GFSS/Nw/J/2FfcS10937J13mqXnOD3dl0jNl8yU+z+O2bcbI1Pvdn5c6Jg/ZTaNSxyQ179jn/A9UgvMwcr6MuTQ4dr1+SU2jz+Ebb7zR/R9Hb+MBAAAAAAAAikX+oiZ6PyJyH83dx9I9MsmUae7+xLz7x9hwTRNIHJFeX7ouPuKWh9L30m5XHf5cG3732qBFYqounVqem3fURJu9IHSvI7WOiau66tf7Z41Jz3t1+p7IwlkTbbQEW/ieSEQI+mWPuLt768g49IN9t82pxN070TA/vuj3Tmrm2ZjUdgwfvzBLOscT3HMK7otMnLXQli2bZ9N+n5Zi45YEC2haaOM0zYixNl33TlRmdwdle+k02xjck8yU7bCRNjk13cJZs21lTWpEy1qbprLLrKPr/mlcC9U4yuneS/7nVIoDs22Mju318y19tyoQouePtfk6dim67j8X4pzpuhc2/EYta5499Nzm+HvTvVCKZaLWnmpoFkYNsY477jgnQOUlJD017N3vfrfzKR65CQlQNfYqBr3Jzzg0T1nLT0nPr/7uJvd/W+dRq209agebO3OmuqXTmjqOWksqtW1HnQTV353t7XbkxYW26Zdn2/KPfTRLYq74xAm2feQV1rRxgx2NyDVPy+5dtvv66+IF6PfPsENPzbaGmlrX5e2TS1dbbUPxP2igsOgDQq1pFbXqlHyTYFbrUXVZq25y1WJ0MCkN+Zn64vd4tojJ1UK0a8nd1+Xm6aHb2/Yl41KvR9r0LZGLz/Z0dxb+C8naqcOzv+CJpmU2cXj2NhUSXSjU7P7EE08MhvQNtcJWN8pxP4woNBUjP1uWuS+gIx/Ylvmy4+jcZg9dkZov05VJbsrqS3xex22jTb98mPsCnbXvwbHqOu/8F75xtjB8yfJf6nv4LPDoC5y6Qtex0f/RL3S9jQcAAAAAAAAoJvmLmsj9iOi9rUAwZv1AP0XTIt3P6rpv5e+ljZyxzb32pH/EHGxH51qbpvtYv5+ZtSxr32bTda/jiofMNZ3wou/2ZdkCrS6o1/t7IiH52bRqsmtIkK90E+H7Ikr43klP44rF/uduSksw1/JvnE2ftdDWbq+29m63/YN7TueOtIe2B4OEv3+SOq6i+vlxNnxY9/fI7kdCZZbCl+1NC7KPrJtO914inSWm3xupdffSDqbc7r3449BToq2QNWzcoiare25s5m+PX170PZs+Z4Ljl+8548/by6fbtsj7odu96R4oxTJR75b/+q//mvW4QiHJGW7l6dE9TvWOGUatKvWMUDXQGmySyk81TlNL0J7mKXn5+eiil+y7Y8Y5+VnV0mmz9rTYbRuacmbK1mZbW9tu+5o6be6+VltxqM2aW9rsyMIFtvF/z+omPpXVX/uqHZr1ZE7x6albvNjW/+iH3eZ3AvTM79mh2bOt+mCVVR+pt9b27NajUP6oVal/XqdEl7q6VfS3Wn3qwyxJq81CUBryc6TNjLSuSw+PXvz7Jz+X3Z4af9FNNlOt2LIy3cZmlrXNHro89fdtC7sJr20zBqblp7q5VYvPb37zm65r6v4giapnwf7bv/2bPf7448HQgaFU5KfOm7h0VSZ6kZ/L9D4ZZjc9Fn1fBL/YyqPMy+pLfN7SOI7gWGbOj/SxHD51rXsVxp1v50+27mO6E5bH4S904S96iqYbKLQedd/el2heAAAAAAAAGJr0LGrCwityPyJ4HZWf3bpb7UxNJ5F2d7qGnV7fGJsXtGrLsHem+3H/mKeqzdZPc/Ju3KLo3S2zumdUzx7hZF1aFKX/juIaB5w7zhbqaWB+2x5Pt7IbNj4iS/MgfH9EXWPqHqh63vPDlKLfMwnRXrPNFj4yLutxQOqqdnRWN8TBfZJRM7vuRzqi96Jy4I5r1/GP3g9Ns99mqieu30+2+ZH7VsvmTLQRqe3K5x5PKdx7yZf0cRhuY8ZPtsl3x2f+zmBiR+p4j0lt/6Uj0mI+IvPjj2uK4B5ZknOm23kbIon8FKVWJp/97GftySefDF6lUQMbyc84co3TI/x875aDSRL5qd48JWnlZXqi5OXn3JfW2RnX3G6Tnn7Byc+pW/N75ueB5k576VCb7T7SYjUvvGAbz/5FrPhUXvrUJ9Nd3vZgtFv27LbdN15vK7/4+dhlSICuPeN0OzRrlusCtyd0AqjrWFn46DM/obTRryTGjx/vPgTUAvSnP/2pe/7nXXfd5brxHWxKQ352v/hEh6df90d+Bl86gotGbMbMtupguSMiv54T6S+EhZWf+kWNxOfDDz8cDCkMevatlnv77bcHQwpPqcjP4WPGxX4Jmrna/xwu+oUzXcb+i2H6vRV5L2RljM2ucpP2SNl8iU8iPzvbralqm61VdyD3T+x6/kcukRwifVzH2vzIrxJzEf3Cd+jQoUH9oqd1xYnNfKJ5AQAAAAAAYGiSrv/mEjUzbW2mXhytQ0fubUV+xN9F9n2N7vfIPOnlDb93YzeploUXmav8sgLBGSE9LtieYJ5MLp1sa2Pm6Y3ovRPFvy4l8dmN9iar3r6s61Fdmda5uSRn/PD2pjrbvX6Ze7TQ5Nu6nt/phXfWMc8QvE96SiDGe6PY917yJf449IJvJDFsnC2LmPnezhl3DuZ5znQ7b0MklZ+ilMpE8jP8PEwhl9GT/Purv/qr4K8uRo0aVfLy89hjj3XP+5QE7YmSl58vrNlkZ14z0W56dK7VtR21GTtaYqWnz4VL62z2nlZr6Tzqur9tqz1ie269xVaceHystPRZ8alP2LbfXu6e+RmlZffu2C5vo5EA3XHlaGvJIRX0zE3JEvWbfOGFF9rFF1/s/n7ggQfcuPCzKfNF3a7edNNNrk9mPWfyvvvus9tuu80tDwaGw4cPu2eTrly50kV/h5/NOpgMtvx0rcGKKT97vQCllxsnP9tdVxKFlZ9f+tKXBuwZnZdffrl98IMfdM+kHQhKRX72LvHykZ8Jv1DloCy+xOd53NTFi3serrZ/2HAbcfkYG3f/NBunltE5jmWY9HGNr0DlIvyFL3zsSuXLNwAAAAAAAECU/O8rROvQkXtbWfexwgT3NdyP9v36coscd08rT5HTU909a7+CeYZdPdt2b0k/PspJ1j4QvnfiU9LiM0J10MXqZNeGJU/52bTWpgfPAVWGjRhho6+faA9NSnfRmpf87OF+axLK4d5L/udUF757aCXc5a3o7Zxx8jjPc6an8uiL/BSlUibyTscff3zwqgsJzrhHrOkRf+qBMIxkaal3eyvhqe5uZ8yYEQzJTcnLz5Vbd9k5t061UdMeswNH6m3Ovla7YEm8+PS5f3uLNban5WdDY4vVLVtmmy44z5Z95EOx0tJnxSc/Ydt+82trXLcuWLvE5y7bdd1YW/n5z8bOE876H//IaubNtY6GhmDuLpYsWWJXXHGFnXHGGXbeeefZNddc43L++ee7h9D+9re/teXLlyduCfrQQw/Zd77zHXv22Wed/Lzsssvc8orRChEGn8IKrKDL2G5dPXi6j891MYsO736R6n6h6Vl+ttvC23Th6E3GDF63tzrn3v72t7tW3APBzp07XevPBx98MBhSWCpFfqaldny3Fn2h5L/E53Pc/DM/bptv+7POl+D8iBzLuAqP+6HD8GmWpCqkXg3++Mc/Zh07vQYAAAAAAAAoVfIXNdn3I7rd23L3sYbbtGi7mqDbW1/3Tq8vpqeloNvbsc+lRvTahWf6EVS9d3s70ZaphWOW/Gm3tXdrXOQ5lwkI3zspLfFZbfOuTm3X5Q9Z92YRAWunudaf6WORn/xMH8vRNn19Xdb9Rn9Pqmf5GdyL6WmbElAO917yP6cCmoJn1N42z+bp/q+ejxrynznPmeAeWZJzptt5G6Kv8rOUyuQb3/hGt4Y6Z511lp199tlZAnTHjh1OCt5yyy3BELOWlhY7/fTTXWO9YpCk5We+lLz83F192K6873E759Z7bNW2Xbb8ULtdsbIhVnr6TNzU5J75ua2+w9bVtltLc4vVLV9umy84Pw8BeqJt/fWIjACtnT/f1p1xeuy04az/icTnvNgubyUiL730UtdN6uTJk91rCRNFLTbvvfdeN07iMqlVl/z89re/nZGfWrZagx45ciSYAiqZQgus9MV8uI1boN+iZVO9YJy7iAy/v+tSnetiFh2eft0f+Zn6QrEk/YVi9OORS1Dqy+Hoc4fZyMfS27Xt/vQXkqznkDal1nepLj6Fk5/Tpk2zj3zkI8GrgUHPkr3uuuuCV4WlUuRn5iH00Qead+63man5hl0xM/GXy9L9Ep8in+PmKzXp5/JnaN8y3VWkosfy3OGpylD4R3V7088AiXsWaG+Ev/Dpf70GAAAAAAAAKFVy3dvqTuR+RPTeVlAXjz6vsPoZCcrhNi2oYqfXF72/1WQrJ+l+VvAs0M61Nm14zL2O9m02/YrU8Eunp+91+B8/R9ZpdYFMunG+OV+UJT9TNC2ziXHLT4Dul5TcPZMUux8Z6fZ1zIyNVhfdt85qW3hb6Dh3u+fkCQ8P/o42FumsCxpq9CY//TYNt4mR/lyblk204ecP69bSsTdK/d5L/ueUaEofx/PH2nyVSc18G+tE6MLMezr+nGkP7mMnPGei522IvspPUSplot5A9RxMPebJI+l52mmn2d/93d/ZV77yFRe1Bg1L0o0bN9rHPvYx+9WvfhUMGXzylZ/btm1zPSZGu/iNo+TlZ2t7u93z7CL77h/H2SMvrrDdjZ12+6amWOnpc82aRltb227bGzps5q4WW3m4zdpbWq1+xQrbPOyC3gXoJ060rSMus8Z1a63t4EHbO2G8rfryl2KnVTb89MdW8+wz1tnYaC1t7dbW3tV9bVtbm+uGVq0z77nnHlOXqZKUYSQq9cxItQqdNGmS6xu6oaHBPXNO/6spr1qOzpkzxzU91jBPVH7u37/fzSdTr1ake/fudW9wrUNdtD7zzDO2InUcwsvwqOvWl156yb1x9L/W29nZxysgDAoFF1gZSShpNNYmuucbjLMxlwZdO4yYbCtDn925LmbR4elfog23sTMW2rLt+trV/UKz8V5dsEbaxGeW2dq97d3kp2SWe/h1ar4RtzxkC5cts3mPjLPR6l//0old2+X3Ydhomzgrtb4FD9lNI9LzFVJ+6gIR15VAodA5/La3vc11iz0QVIz8TLF/VtCX/oib7KEF6WcvjHPdkaS+WK7q25eNUv0S749brmelTn5srdX5L4qpc2Ba6nxapmd+6rkWqS/Uw3S+RI7l8EuH27ARY216atqFsyZ2P6cSoi946tpjML/o6Rnaq1at6lM0LwAAAAAAAAxNct3b6k70fkTk3lYgGN19q2un2zzdt5qafsbk8NQ0voacXt/wVF18mI2eNNsWLptn069Vb2Xn2pjQvY6m1PLUCOHcURNttrvXMd3Guvtb2fc6/D2R4Ven15mp158/xmb7hgFR+Zkifa8utc6nutZZEYTuH+oxQGNuC+6XhJ7R2XWco/ecPNnD0/csu+5HurK4fFhq+en7pb3Jz677rakynzovfZ/m7rHpxxVlnj+ajGLce8kX/x6Pf46uz3zbnZrWd3cbfh+m5+/q/ta/dsfPnTML7aFb+nrORM7bEN3uTSeklMrkxz/+sXsm5oQJE4IhaQn6/PPPu4RRj6SSoQPVACdf8pWfclfq9jafaUteforn12yyH1x7h13/8NNW29RqT+3tuevbS5bX2zP7Wq2+/ag9vLPFrlvbaKtr2u1oW5vVv/SSbf7VsDwE6Am29bJLrXHtWmurqrK9t0+wVSd1F6AbfvoTq33uWetsarQ9h2rsQG2ddXZ2yU2ZaD3bU9Z8bWpZudi0aZPrAlfRdBKUamKsZ3hee+219sMf/tA1O1YL0ZtvvtkJThGVn7feeqt7KO2WLVuc3NADdjX96NGj7Wc/+5l973vfsx/96Ef2+9//3nWr6VGLU63npz/9qf3iF7+wn//85267JUsbY1qzQmkwIAKrabctvH+sjfbCM5Vhl462sfcvs+rI536ui3q34eob/w/B8twzDmIuNHvn2zh9cdDwTF/tkWV3Vtuy1LaNvCi9XfoSM/q22bYx2u1B3UabfdtIG6YvEecPs5GpaRY+oG0qnPzUOaZuadVd9UAg8ablb968ORhSWCpJforqZakvNFf49+wwG/77cTZ7U/SNUQEExy29nzEJjlPTltk2zh+P1Dkw4upptnBnna3VF7nzx9ky1x2uP5bbbO39vhKQmvb6h2xtmR06/YJN50tfonkBAAAAAABgaJLr3lZ3ovcjIve2vGBcsNamXz3cSc9zLxpp42Zlt0BMr2+iLdN9MF9vv2i0TXx+d7dHONVtmmcT/bJ0r0N1+91RsdJu1UtC90TcfbBUvf5QMFrEyE93v0WS0Le4qyQ662zjM5Nt7O9HpO8NBsdlxNUTbV7WvaL85Ke7Hzm1S57qPum4R1ZaddV8G5t6PfKR9H36Ht9LTdts3qSuZZx70QgbM7X7vdZKIH0cgv3MGf3oPkcL5M5t9pBaawY9lfnjOnNZ1zkz7NIxNm1JdR/OmZh70p7ovekyRw1qPvjBD9pf//Vf24UXXmh33323zZo1y5588km78847XXe4kp7qKnfx4sXBXMVDDQOVQqLlqSXsQNMv+bl1X5VdfvfDdv64abZmxx7Xle3VaxpjxadyXipTtzbboZZOe+Fgm03a3Gwbj3RYZ1OTtR+ptfqVK/MToCeeYFsvvcQa1q4JBOjtWQJ0w89+YrXzn7P22lrrSC23qqra6pqag61OozeOZKLMuVpl5kKtNEeOHOluwmqe5557zj27U6+vv/56mzt3rrPyI0aMsG9+85v2+OOPW3Nzczf5GX7mp+SM3sQq4KuuusotY/78+a7Fmt7UeiisWoBWV1c7YapfBEi2qtvcF154wZ0UEqWSO+3tFfhJXAEUXWANcdSFwJe+9KXgVeFQS+0vfOEL9utf/zoYUnh470AloXNGP+LpS+gmHgAAAAAAAPpNrGAEgP6S/w8UII6nn37adcWrxm7ySt/61recM7rhhhucPyoV5KrUovO4446zE088sVv0+RrHOeecEzu9lqPl5dM9bn/pl/xUV7L3zV9i37ryVrtrzgKraW63x3e32EVL62Plp3LV6kZ7uabdDjZ32s6GDqtesdJ2XDnaDky7x9qqq61h1SrbfOGv8hCgx9uWSy62hjVr3Hz7Jk60VV/5sm34+U+t9vn51nHkiFU/9qht/+3ldvi5Z62jrS3Y6jSPPPKIk5NqYhx+qGwcesDsKaec4iSll58qVC8f1QWtpKSEpLrJ1fLykZ9qLSqhqS54tQwtTy1Jr776aidkH374YffGnz59ursJrOVoOnUHKLkjcVtVVRVsJZQSCKzioh8OqOn8F7/4RXviiSeCof1DFyT9KkUt0gYS3jsAAAAAAAAAAAUC+QkwICA/hw7qRVW9k6q72mje+MY3Zj3LVOgeuobHTa9oeYNBv+SnUIvPC2+/38697R5bsWWn1bYeta31HbapLj563mdd21FTD7T1GzbY1t/82onMl0/5iu2fcndagK5+2bZcdGHvAvSEj9uWiy+yhjWrrf3QIat5Zp7VLVuWFp+PPmJrv/ttW378x2z9j39odZEmwjNnzrTvfve7rjtaPcuzJ+Lk50033ZT1PDIJTdlstd5U17f5yE91eeu7yRXqd1rd66rrWz0TVK0+9aDbcePGOYGjps/Ko48+6lqenn322bZ9+/ZgbiglEFjFR2Wg806y8t3vfrdrad3XHHvssW45OocHGt47AAAAAAAAAAAFAvkJMCAgP0HoMZFhAerFp4YXm37Lz5a2Nnt44Qo7bcx4u+GROVbbkP+DY9sPH7Y9t91qKz71SVv6oQ/aqpNPsv13BwJ0zWrbcnHvAnS5E6AXWsPq1dbZ0uKeH3roicdt7Xe+lZl30/nnumeEhlE3s+pOtrdub4WaH0uU6ll/Xn7efvvtdji1/R7Zal1I9SBaCcl85OekSZOspia783Y9g9TLT/396U9/2r761a+6Zs/hfPazn3Xbv3Xr1mBOKCUQWKWDykKtqPXDhL7mscceG7RfpPDeAQAAAAAAAAAoEMhPgAEB+QkeiU51ZatubUtFfIp+y0+xp7rG/nDf4/bdP46zxxattOa2Dlt1uN3Gb2yysWsbYzNvX6u1tHda6759tuv66+wlCdD/+k/Xde3+u+9KC9C1a13Lzt4E6NrvnW5HFi5w23LkxRdtw09/kpln4/+ebXWLFjkxGmbnzp12ySWX2LBhw2zNmjXB0O5s3rzZtcbUMz31dyHl59SpU7s90ywsP4cPH+5Ep54jqm2MRstpiewXlAYILOgrvHcAAAAAAAAAAAAAoFy444477P3vf7/7v1QoiPzs6Oy0F9dtsf+9eYr97y1TbdGGrVbb2ume/3np8vjnf/5xdYMTpK3tnVa/Z5/tvuF6e+nTgQA96Uu2767JToA2rltnW4ZfbMs++uFu0lNZ/Y2vWdVDD1lHfb0deXGhbTzr57b8Yx914zb+8mzX3W1UfAo9q/POO+90gtI/pzNKa2urK6xvfOMbTlTW1dUNqvxUd7tq9blY+5A6xh4Jz3vuucdmzZrltglKDwQW9BXeOwAAAAAAAAAAAAAAfacg8lM0t7bZY4tX2hlX327nj59mizdus9q2o/ZEDgF6wZI6u397s9W0HrUjLR12aPc+233jDV0C9MtftH2T70wL0PXrbcslw7sJUCc+H37YOhoaXMvPDb/oEp+bfvm/VrdkiXW2tgZb2J1du3a5B6yqS9vx48c7gSkpKnbs2GETJ050z9a8/PLLbePGjU5ADqb8fPHFF10fyRdffHFm/ULPK/3e977nti+8DVA6ILCgr/DeAQAAAAAAAAAAAADoOwWTn0LP+7xrzkL7+u9utvPG3eNagDa0H7Wl1W127ZrGbgL0ty812PMH2qy186jtb+ywvTv32+6bbswI0JVf+oLtu3OStR06ZI0bN9iWSy/JCNDV3/i6VT/yiHU0NtqRBQtsw89/asv/+yNp8XnOL61u6VI72oP4FB0dHe6ZmWPHjrXTTz/diU4Jyh/+8Ifub7W61PM+169fb21tbW6ewZSfzc3Ndu+99zo5q3lHjhzplqOucLWutWvXun2A0gOBBX2F9w4AAAAAAAAAAAAAQN8pqPyU5Dtc32iTn15gX/vdzXbWTXfbvJXrraG13XY1dtp921rsomVdrUDPW1Jn169rtPVHOuxwa6etr2mz3bsO2O6bbrKXPv2ptAD94udt36Q7nABt2rTJtl52ia397nes+rFHrbOx0WpfeCH9jE8vPs/9pdUvX2ZHA1nZG2pNWVNT47qWnTRpkhOhyoQJE9wwCU7fGlRsSm3D3XffbQsWLLDG1Po91dXVNn36dNcq81BqWzVe3elKiuq4PProo+61pGZVVZWTmkuWLHGCM8yMGTPsySefzHTDW19f757vqS561Q3uTaljo2m0XC9kofRAYEFf4b0DAAAAAAAAAAAAANB3Cio/xdGjZjX1jfbwwhX2o7GT7Dt/GGd3zH7e9tUcca1AN9d12AM7Wuw3L6Ul6LAldXb3lmbb29Rp2xs6bENtmx3Zf9B23xwSoF/4nO29Y6IToC07d1jzli3W2dTkxOf6n/w40xp007nnWP2K5XmLzzASnBKNaomp6O+w9PRIOGqcnrspqemRRG1oaHBCVH9LaoaXoeF6rZaaiqaNLkNoeFNq33wXt0LTh7ctOh5KDwQW9BXeOwAAAAAAAAAAAAAAfafg8lPI5+kZoIvWb7ULxt9rX/z1WPvlrVNt1rLVVtfUYo3tR53sXFTVZlO3NtuN6xptzr5W9/zPbfUdtruh3doPHbI9t9ycEaAvfe6ztnfi7daurmY7O632+edt/Y9/1CU+zzvX6l9a0SfxCVBoEFjQV3jvAAAAAAAAAAAAAAD0nQGRn562jg7bc6jG7nz6BfvWlbfZly+/zsnQGQuW267qw9bWaU6E1rUdtaaOo9Z51Cz10kUGVaJzz623dAnQz37a9t4+waofe8zW/+iHtuwjH0qLz/PPtYaVK+1oTEtNgGKAwIK+wnsHAAAAAAAAAAAAAKDvDKj8FOrWtam1zTbs3mc3z5xn3/7Dba4l6DdG32LDJtxrE2c/b8+v2WTb9ldZQ3NLMJdZW3uH1TU2W8PBKttz66320mfSAnTFCR+3FZ88MSM+N59/njWsWoX4hJICgQV9hfcOAAAAAAAAAAAAAEDfGXD56ensTEvQPdU19uiil+zC2++3r466yT532TX2pV+Pta9cfr2dcsUN9j8jb3Q55QrlBvvDfY/b5o1bbM+429IC9IP/kcnmC86zhpdftqMdHcFaAEoDBBb0Fd47AAAAAAAAAAAAAAB9Z9Dkp0ctQdWqs7Gl1aqPNNiaHXvswReW2S0z59nv751p5952j/3iprvtt1MeccM0bsu+g9ZSU2N7x4/LCNDNw863hjWrEZ9QkiCwoK/w3gEAAAAAAAAAAAAA6DuDLj+jdEqGdnRYa1u7Nbe1WVNLqxOjza1tbphEqVqN6hmgHXV1tnf8eNs+aqQ1rlljRzs7g6UAAAAAAAAAAAAAAAAAwFCn6PIzKUfb2qyztVX96AZDAAAAAAAAAAAAAAAAAADKUH4CAAAAAAAAAAAAAAAAAMSB/AQAAAAAAAAAAAAAAACAigD5CQAAAAAAAAAAAAAAAAAVAfITAAAAAAAAAAAAAAAAACoC5CcAAAAAAAAAAAAAAAAAVATITwAAAAAAAAAAAAAAAACoCJCfAAAAAAAAAAAAAAAAAFARID8BAAAAAAAAAAAAAAAAoCJ4xcbN240QQgghhBBCCCGEEEIIIYQQQso9tPwEAAAAAAAAAAAAAAAAgIoA+QkAAAAAAAAAAAAAAAAAZYVv6RnlFc3NzUYIIYSQdHSxbG9v73cO1xyxXXsO2P4DhzKpq2u0jo7O4BIMAAAAAAAAAAAAAH0F+UkIIYTkkULJz6rqGtu+Yw/yEwAAAAAAAAAAAGAAQH4SQggheaRQ8vNg1SHbun038hMAAAAAAAAAAABgAEB+EkIIIXkE+QkAAAAAAAAAAABQ+iA/CSGEkDwyEPJz3/5q27uvympq6qy1tc2OHj0aXIaHDpW8z9q3zs7OrH3U646Ojkz8OP0fHq7pKpVKLHNf1uHy8/tJmVPmlHnlobKjzLOpxDLXPkXL1pchZT40ylx/+/2kzCuzzKPl6ssw+l5QKPPKIFq2vrwFZU6ZU+bljy/v8H7lKuehWv7hY1PpID8JIYSQPFJo+SnpuX79JnvxxUX2/PPP2/LlK2zfvn3ui9VQQV+4GhubK3Kf0/vWaJs3b7a9e/e6std+6u/ly5fbggULbMWKdJnri3RVVZWtXr3aDV+0aJHt3LnTWlpagqVVDunj0lRxZV5fX586n9fbwoULXRmuXbvWDh065Mo9XOYvvfSS7d+/v1uZL168uGLLvLPTl3llVRh1fm/bts2VubJp0yarq6tzZb5nzx5btmxZVpnrva8yf/nllzNlvmvXrgot805raKi8Mg+jz3bl8OHD1tbWllXmK1eutAMHDrgyP3jwYKbMlyxZ4sq8tbU1WErl4Mu80m4MNTQ02NatW135KSrj3bt3uzLX/0uXLnXDV61a5cpcqMz1WsM1XtNR5uVDtMx1ba+pqXFlqLLUeezLXGUtVPY678NlrvdIpVGJZa5rsL5/6bu3L/MXX3zRfb7X1ta6z2xf5vosV5nrsz1c5vpc0DWgEstc1/FKPM/1vX3Lli2ZMt+wYYMrb70fVOb6jubLXN/dVOb6LqfvdOEy13e+SkNlru/t+v5eSeg7us5rlZ++t+s7vD7v/WeAL3PVzVTmes+Hy1x1OV+nrzRUL1eZ631eKaisVMbV1dXutT6fVf4qZ33G6xqu8vfXdv99Tue2yl/DVZfXa71f/Hf4Sin/dJk3V1SZ9wTykxBCCMkjhZSfW7btsp279qa+ZC1LZXmq8rwqVbla7b5sNzVV1hfPnlClorpaN5Qq62aBvlzri7YqzPqCvX37dvcFWrJEw9asWWPr1q1z/yv64i1xonEaLnGmipZutlXazQZVqKuqD1dUmeu81k0wlZnKWhUtlaNunh45csRVrnyZ6xz3Zb5x40b3OlzmuvFSeWXekapEShBVzs2C9GdXtSs/3TzTTTOVoyrFKttomat8df5rOsq8vEnvW5X7bFc569zXTVTdBA+Xuf7X9TyuzPW5UGll3t7e4b7ftKU+DysJlVX4/FZ5a5huoqos48pcssy/1nhNp+krr8xT32kPpn/kUyno+5tudqvcdDNc13Odtzt27HDfyVSWeu3LXGWtMg+/B3yZ63Oh0spcn+k6z3W+Vwr6TNf5qR8j6ma5znd9tqvsdeM7WuYaH1fmugZUapnreq7jVCloX3Seq5xVfor+1nmeq8z1HU7DwmWuefSdr/LKvM3V1SqpzLVPElyqa6t+pujzWwJb3+ejZa46mspW5Rwuc82v90Kl3atRvTxd5uX/Xtb7VtdvyUx9Lutc1zmq7+7+nFf5S2bqPaHxOsc1rZegGq/hug546al5/Y+hKgGVue7DVdrnVy6Qn4QQQkgeKaT83Lx1p23dttMWLnzR1qxdn/qitddVuPTLMt1Uq6TKRk/oC/a+/VXW3FJZLSL0ftGXZC8/VbYaJsnhWwSotZC+mPtfF2pa34pIvyrXF23dZFVlrZLQe1tl3lJBZa7zWmWrcpXkVmVZZanKlS9LX+Z6L+iXw74CJnGm4SprvVc0vZZXSegm6d59B60ldWwqBVUU9VmtctVNUF9x9uWpstQNlXCZ6+aKKtZ+Gs2j6fReqLwyb3dlXmk/bFG56+a2boDpV+D63NYNc1/munGuv/UjCLXs101UlbluovgyV+uiSixz3SDfs/eAtVbYNUtlqM9q3fzUTTCVnd4DGq6y9GWucb7MdRNVrzVc7w9Np/O/Usu8kn7koOu3yk6f2fpf13LdENc5reu0ytKf8xqvslaZq+w1jYbrPaHpNLzSylzn916VeYXtl5DMUHmpHBWd64rKUp/dKlt9luszPVrmut7rGqC/K67MU9dxXc8rab9UF1GZqSx1Piv6jNf57r+b+TLXdzZNp89wfS7oO124zCVCKq3eru/r6TKvnP3Sd3Wdv15eKhJZ+vGxvsv7ercvc133df6rnu7L3E9XkWWeqperfl7u+6Xv6brnonJVWakcdS5rv3TN1vd3vdb3OL0XVHeT6FadXeP1Oaf3haLh+l/fAXQ/Ru8D/a1zvxLQ/bd0mSM/Mzd8CSGEkKGeQsrPTVt22OYt212Xtxs3bbHqQzWpL2IHXKWqEivOuahU+anucySxVJaqTEtyqtKlmyVedmoaVbJU5rpRpi/nmk7D9Qt0DVdlXDKtklDlo9LkZxRVilXpUoVKFSwJb900UdnqdbjMJcl9meu9ofGVVuaVKD89ulmqc1sVZlWQVTFWWavMdb77MvddXOsGmm6eaLjkqaarzDKvTPmp7wL+5pfOY5W5zmV9pmuYPvNVtirruDLXjyT8DbZKK/NKlJ86v1VW6h5NjydQd2j+Wq3hXnaobPU+kAjT+az/dXNMw3U90HT6TlBpP2aqRPmpc1TXbwkvRT9y8Ndqla2/8a2yVRmHy1zvAQ3Xe0Jlrs+FSivzSpaf/sct+t6uspQI13muMtf7QmWrz3IvzPxnvIbreq/pKrLMK1B+Cn1X88LDf4fTZ7vOZ30303e0uDLXeF/m/vt9pZV5pcpPL7/8vR2Vud4D+hGD6mCqi6lsfSs/fQ7ou54+BzRcZa3pVPaVdj5UivzU9uuzW9dh/ZjB18VVXvpb13eN0/tBMty37PXTaX6Vv94XGq7/9bmg+fU+kBDV+6USQH6mQX4SQgghoSA/C0+lyk8RbiGE/OxiKMhPVaZV7rox6ssc+VmZ8lNlp18Bz58/31WSdW4jPytXfqp8df7qhonKXTdBdC5rOPKz8uSn3sf6HNdns8pS5acbYWotoOs18rMy5afOa523Kj99jwuXOfKzcuWnykrnucpf7wN9RiM/K1d+qnx1zj7zzDMuEhr6Lq7zGflZmfLTt+JVOSv63q76GvKzcuRnGF2zkZ+5QX6mQX4SQgghoSA/Cw/yE/lZKai89UtTVZQkP1XG4TJHflZ2y099bvtfGOuGuG6Cqux9mSM/yx+VkT6jn3vuOSe7n332WdcaUOe8ylRl7kVY+MZ4uMyRn+WFzm+Vkz7bdXNb3wV1nvvrOvKzMuWnWgepnHVdVxnqZql+7KAy1/mL/KxM+aluMCW51YOD/ta5j/ysTPnpy1Kf5SpDRZJD57rOc+Rn5clPfZ6rrFTmatGvz2i17le5Iz+Rn8jPygf5SQghZEhm1KhRWYmbJpxCys/+PvNTN+T0JVVf5PNFFZgkN6gGYx19kZ+luB9x69DfYfmp95BunqiirIq0vnhruMpcN0t0w0U32zRcN0n9DXJfoa6cMk8uP8uhzHVzXJUoVZ5Unrpppn3VTVKVpS9zneeqSGsaVaz98x9V1v4GuT4nRKWUuaZPKj91DAZ+P/q+Ds3rz2FVoHWjVBVqVZR1Q1xlqf/DZa6bJrqB1tMzPwd7P/Il6To0fVL52ff9OBoM6Z3+rEPns26M6VxWuesmqMpV573OW91E040yla1ujGi8bpCpzDWNL3NNF1/mg7Mf+ZJ0HZo2qfws9TLXvCpDfw3357l+4KIb4eEylzDzZS4Rptca7qfT+a/lRdeRL0n3Q8tubk62Di0/yTo0bVL5qWn9ccgHbb+OlY5ZvvRnHbqW6/yV7AyXua7tKmuVpcrUl7nKWmWustd8Gu6nC98gH+z9yJek6+iL/Cz1Mk+/7sx8R1f5SnRoefqsVlnqs1tlq89yfaZHy9xf9/W3346KKfM+yM/k+6EfGgz0sepah85tnb+qe+kcV3wXqPq8V1n6Mk/yzM/B3o98Sa8jf6nVF/mZdB2DsR/hdaiMVKaql+szXeWqz2/9re91vt7ty1x1NJ3/qqf7MvfTFabMS+tYaflJ5Wepl7nO5bDU1Dmv8tdr3aPR+a/xEpo69zVe56I+CxQN1//6PqD7MXof6O/0D5fLv8z7Ij9Lvcx7AvlJCCFkSKaY8nPLtl22c9feVCV7WSrLU1+wX3ZfxvTFS+vq7eKti3xNzRH35SBfmpqaU1/0GoNXvTMY6+iL/CzF/Yhbh4aF5adkmCrX+qLty1pfoPW/brap8qVxeq3ob92I0XL88iqjzJPLz77sx+GE+9HYj3WoQuRvdvrWIbp5pptj+jGDKtDhMldFSu8FVar8r0pzlblbR+pzI1/cfjQkKY8+rKMx2TpUgUkqP5Ouw+3H4SPuMzZf+rMOlbkqz15m+l8P6zxWuWt4XJmrkh0tc71HfJn3dT8aBuFYJVmHlp1UfjY2NiXcj47UftSm1pV/BTm9jqbgVe/0tA6Vuc5h3SzTZ320zFXWEuNxZS6J2lXmxd2PXCRdhz4Lk8rPvuzHoUE4Vn4dOs/1Wa6yVXkrKk99xuvmp26chstc7weVuc733so86X40JNyP9r6uI5V88WWe5FqbdB3afu2Hjlm+6Dj1dR3+eq7rti9zla1uevoy1+tomet1tMz1ueDLvK/7ofdvvmgdOs8Hch19kZ+luB/RdeiaJbklseGltcpO1+domes6Hy1zDdff+j4fLvPk+yERl2Q/9EMsrSO9znxIr6M5eNU7fZGfSdeR3g/9+Hfg9iO8Dp3nElk6T/V5ruizXOe7fswULnMN149T9R3Ol7Mvc43LLvPk+6HvoQN9rJKuoy/y060jVQfJF32GqP7hj10+JF5H6trk16Hz0MtP/9mua7Ukts79uDJX2ervaJnrveDv1YTXkS+qb6pumy+DsQ7Vy5PKz77sh+4zDPSx8uvQea3vbCp3vfY/PFZZqvwltvUdT9/jNZ2+6+lzQcP1wxZ9FkiI6rog4anPC13zq1Lvl8Hcj3xJuo6+yM9SL/OeGBD5qTeV/6KoDwdCCCEkaXQN0bVE15S4a01/U0z5uXX77lSloir1pXuT6/p2/vPPp750p39JnM+XA31JSUvDlmBI79TVNbgbL/nStY78hUVpriO5bCvEOlQpUuVIlSfdSFPZazr9rV8Ov/DCAvcl25e53ueqXC1YsMD98lxf1MPdIvZlP47U1Q/4sdI6dOMlXwZvHQcHdB26sezXocqxKkfqRknlp7z44ouuUq0b3qpY+zJXpUu/Htb7I1rm4Za+Qjcd9iWUhkeOpPYjVQHIF60jqZgc6uvwQk/nd7jcdc1S2epcV5mr8qwyV2U5XOZ6rek1vnuZJ5eGtYn3o3TXocprvvRtHXUFW4duhPhWPyrD7DJf7YYL3TzxZa7PAb0Ol7luAA70frh1JBSTtbWpddQmWEdbcvmZXkdd8Kp3/DrCx683+rsOfb7ru6jKT+e6rumSWhqvm2T67FaZ67NcckyojPVZHy5zvZc8fdkP7UPf9iN/YVFJ61C554vKIbyOcJkruparbPWdzLf8UZmrruLLXJ/l+k6n6dUiUJ/12WWevY58SLofOveSr+NI4nUklZ/6rNJnVr7os1CfiYOxDl9GKh8JEH1Wh3+ooDLXZ31Xma91Za7reVyZ6/unJ7qOfEjvR33wqnf6sg5dy4f2OtJlpHLU9zZ/nqvsVYa+21O16lSZaxr9MFFlrrqZJJmm1/96z4TLvC/SUPuh76P5UknrUB0n0TpS9TTV1/JFdTTV1VRnEzq3dQ1X+el6ru/w+rxXmUuU+TKXHPM/Rg2Xuc73bmUerCM8rDf6th/JxORgrEP3GAZnHQ3Bq94Jr0P3XFTGKjOhz3mVv8rZ/2BZw5Rdu9Lf5/S+UDn7nth0n0bf7TVc3+f0fujrfuj+Ur70RUwO3XXoETO9r6Pg8lNfCPULaH2w6AIBAADQF3QN0bVE1xRdW+KuOf3J9OnTsxI3TTiFlp/7DxxKfRmoTlUuquzAwUPuIp/vdbNLGiI/e0NfTLUOfVHNl0KtQ+WpilO4XPVa0+uX3frVsh+n/zXcJ/peyLWOnlCFZKCPldaRXEwOxjrSYjJfkq4jLD99OWu94fiy72uZ64YA8jM/BnMduoEmouXuy1tkl3lTgjLvmzRMth+lu45CiclcFFJ+qoxzlbmSb5kjP5NIquTSsL/rUHn5slXiyjzdAilBmfdhP7QPfduPBOKlgtaRROipHMLrGJgyR37miz4L9Zk4mPJT+DKMll24zNUaJd8yj1tHb6T3I3+Z0Jd16Fo+tNeRFhYqr/B5Hi7Dvpa5voOG15EP2o+k0rBS1jHY8jNa5vo7Wua+1VneZR6sQ+PyZTDE5GCsQ/cYBmcdfZOfvrzDZRYtf9HU1GLNzS2Z4X5eEVf+fd0P3V/KF+RnictP/VJGN6nDby4AAID+oGuKri26xsRdewYrAyE/fSRBVWnIly5piPzsDX0x1Tr0RTVfBmMd6ronyQ2nvqxDFZKB3g+tI7mYrCz5mS+qUCe5OacbAsjP/BjMdegGWr7U1Tckujmna0TSdWj5yfajdNdRKDGZi0LKz1zo+pHkBiDyM//PRL+OwZSf+eDKPMENwL6sQ/vQt/1IIF4qaB1Jvl/1RUyqvFXu+YL8TLCO1GehPhMHW372hj7XdU3Pl76sI70f+X+W9GUdupYP7XXkLyy0/CRlru+gSdeh/UjynaGS1jHY8jMf9Hmo+lq++HWo7pkvgyEmB2MduscwOOtIcA72YR2uzBuSlnny/UjynQH5mWQdRZCf6h5ErXQAAAAKia4tusbEXXsGKwMpP1XBqD6U7jorH7qkIfKzN/TFVOvQF9V8GYx16Iv8wK8D+ZkvSdfRF/mZeB3tqXWkPhsGQ+ixjt7x69ANtHzRjbNk6+ibNKyUdQy0mBwM+dknMTkY69iL/MyHUl2Hlt+3dSQQLxW0DpVJvgyGmER+JlhH6rNQn4mlJj8Hbx35y4S+rEPX8qG9jgQCKbWOpEKPdeSH1lGK8rOv61DdM1/6to5ksm0w1qF7DIOzjoGVn4O1jmRCz68D+dkbRZGf6jOZVp8AAFBodG3RNSbu2tPX3H777VmJmyYcXSz1Jae/UeVANydqauszkfhMcjNI3XRUVR92Fbl8UdeLSW5wlO46EraY7Os6Etzg0JetgV5HS0uHLV22N7Xv+Qtvv47OzqN26JCeadHzdzS3H1XJ9sO1YE1Q2c13Ha2tnbZ6dYPV13d0W8e6dQ22Z0/u49DS0m5LliY7Vkn2Y9++Fps7t8r27qtOfKxy3RhQ2Wzd2mRNTV1f3PV5cTB1rNatO2IHD3aXejt2NNumTdm/VNWvlcPr0HGqqcl9Mym9jkOJhIVfR2Njhz31VLV7b8Xht6+1tcPWbziQmj4/Maltnj17rz3zzL5gSO/4/fAyYf/+Vlu4sDY1PPd7PnqsamvbM8df77tHHz2Yeq927Vt0HfkQt47Fi2tt6dJ4qaQbNOl1dJWZ9qG6us1ty5YtTbZmTYM7B3Tsn3xSzxCtzvm+iqOmptXunLw5dYya3Ot9+1pt3rzD9uKLqmy2pz43OlL/d1Xotc0HD9a5dfhtCX+WaJ5HHjnohnt62g/N69cRHuaOVeQmyqpV9bZsWfax0rw6FlVVza7L+FzHavPm9LFau7brWK1enTpWOW7UhOfVOlVOW7c22KRJm+zAgWY3TVVVq9umcHU3OkytRHKt48iRdnv44YNZ54xu/B2M7IfnpZf0zODun2O51tHcrM/X9D4oei30mbhu/f7U+zv+ves+Z1MJs2//kdTn6AGbP7/Gff60tx+13bv1LLT0sYii/YiWh9472t/Dh+PXq/0I3+BYvbo+de5X24oVdW592gf9L7QNK1bUpMoitY729tT7vt4WLart9vmmY7txo7oXT7/W8hW/vHDiPhurD7XYHXdsSo3vvp/avqeeOuSOSfg4aPm7d9e695zS0tL1Oa6/NUzbq8/E9LqD927Mjf4FC2ps587u6166rCr1uVEVvEqja4bi0f74MpdEOHCw2q1Lnzfado+m03Zoe3Ss/LA5c/fZCwsOuNcivLw4qqpa7PaJG1PnTff3qPb3wIHun/k6Vvo80Wf05s2Nbjp/PsSVkT9WXoroHMr1HvSsSn0mPvrYbnv22fRzd3vbD5WDX4fOg/D6/fsvyt59R1Kfnd0/x7dta7Lnnuv+Y8b6+lZ7cdGe1HUwva/aHm2X8NsXHibcezfPVmda75w5B4P9yP+G7N69qc+6JQfduRRF562ugzrm/jNC57c+r/JZh3oUnDv3kL28uqrH/dC5qve8riUivI6VK+uy3ru50Odh3Dp0zdQ26LM9XJa59kPfl3UOPvFEVer6kb1eraM+j/3Yu7fFvXf27m20tev2p74HqZVwu/ss12e61qH3pj5Po6TXkX8LJLcfqWutrrm6bula1Bu6lvt1aFs0j66Veg9ov1eurLcXXqhxn1vaZn0HXbx4T+r60Z7aj67zQ+e3Pq/jPq/C6/DofH/++ZrUdnav+4T3I7yOnjIr9T1x0aLsz8Se0He3fanv7U8/XWXLl+vZj+nPa31PXbCg1r1X9P1C30f0ftF3gvB+6LW+V+qzKxdah/ZD3xf9/mpdHh3rDRuyj8vuPbWp9/ghW7++IXY/de1T+axf3+g++8LvK52T+hwPryOM3vPa5o0bDyV6X6lO4PdDy9Z3zt6IK3Oh79XaD39MhT7nNm2qSx2LA66OoPMjut/h66jHrSNVl8oX1dFUj9J+5IvqgknXoXptErlTOeuoc/ca8mXQ1lE9SOvQRS5PdO+qL+vwXfPmQ3odXd8Je2OoraOg8lMPfQcAABgIdI2Ju/b0NaNGjcpK3DTh+Atmf9LY3GINqWXVNzVZfWOj1SmpL0JHGhq6kqpYE0IIIYQQQgghhBBCyFBNS2tbv+Lvx0ZBfgIAQElRCvIz3FVtX9LQ1OyE55H6eqs5UmeHa4/YoZraVGqsWjlMCCGEEEIIIYQQQgghQztxQjNJkJ8AAFAWFFp+9qXb2zihmSRq5VlTV+dk58Hqatt38KDt3X/A9uzb57KbEEIIIYQQQgghhBBChnjihGaSID8BAKAsKLT8TJpCyE+Jz6rDh23fgQO2a88e27Zjh23Zts02bdliG5XNmwkhhBBCCCGEEEIIIWRIJ05oJgnyEwAAyoJKkJ9q8SnxuX3XLic716xbb6tWr7aXVq2yFStX2vKXXiKEEEIIIYQQQgghhJAhnTihmSTITwAAKDhHjx61qqoqW7RokU2ePNmuvvpqGzt2rN177722dOlSq6mpsc7OzmDq/Ci0/Jw+fXpW4qYJpxDyU13dqsWnxOfLqf1ZunyFLVy82F5YuNDmL1hg8194gRBCCCGEEEIIIYQQQoZ04oRmkiA/AQCgoEh8bt++3R577DG76aabXCZOnOieq3nzzTfbrbfeag8//LDt3bvX2tragrl6p9Dyc9SoUVmJmyacXPJz3/5q27P3gO3e0z179h504zPTHjzourpVi0+JT0nPec8+a0/PnWtPzZljs55+2mY99RQhhBBCCCGEEEIIIYQM2cQJzSRBfgIAQEE5ePCgPfroo056TpgwwebNm2erVq2yl156yZ5KXbjuuOMOu+aaa+zJJ5+0/fv3W0dHRzBnz5SC/Kw+VJuVg1WHbevWHbZo0WJ79tln7ZlnuqLXK1a8ZDt27M5Mv3f/AfeMT3V1qxafEp+6mD+eOhaPPf64PTpzJiGEEEIIIYQQQgghhAzpxAnNJCmO/Hz5TvvVr36VlTtfDsYVkZfvSm3LXSWwIQAAZczChQvtxhtvdC09ly1bZg0NDa41qKLubtXtrVp/qivcJUuWWH19fTBnz5SC/GxNXTh9mppbrPrQYSd1N23aZHv27HHi12f37t22bt261HavtQMHqm3f/irbs2+fbdqyxT3jU60+1eLz17/5jXWmjg0hhBBCCCGEEEIIIYSQo7FCM0kGXX4eeGqM/epXd1qWYjzwtI351a9szFMHggHFAfkJANB/xo8f7+Tn/PnzraWlJRjaRV1dnS1evNiuuOIK96xNdZGbD4WWn0kTvVi2t7fboUOH3L5IdEb3tampyUnRlStXpqarsSN19U5+6nmfK1LD9IxPdXV7yaWXBnMAAAAAAAAAAAAAQJzQTJJBlp8H7Okx8ZLTSdExT6emKB7ITwCA/vO73/3OdW27evVq19ozip7zqVaSN9xwg02aNCnndFFKTX6qu16J3Jdfftm2bNli+/bts+rq6kz0TNMNGzbYxo0b3fzax92Sn5s32/KXXnIP7tYzPodfckmwRAAAAAAAAAAAAACIE5pJUhT5ma9gdDIy0zXuGHs6y4wGy8qMV0ItSl1r0jvtadfSNDUuI1ZftjtzzJOWn09nLxcZCgCQiCuvvDIjP+NQi0k961PPBNV0koflKD9FZ2enVVVV2fLly+25555zz/n00eu1a9dabW1tMLV1l59PPWUXDx8ejAUAAAAAAAAAAACAOKGZJIMsP1NkPe8zKjQ9MZLUzdc1ffdWmoHU9MOCrnR7nCaFW04gRr1s7Xr+aHr6YnfHCwBQTkho3nzzzTZv3jzXMjJKY2OjE6N65uf999/vWk3mQynKTyEB2traGjuPWrlqvAf5CQAAAAAAAAAAANAzcUIzSQZffjrya7UZ1paiu/DMJmt8ID+7RGYKJ1C7L9cTFqGe3tYJAADZvPDCC+6Zn3feead73mV9fb2TgGrxKfG5detWmzFjho0aNcpmz55tBw7k9wOTUpWfSUB+AgAAAAAAAAAAAPRMnNBMkiLJzwi+NagXj1mtQyOJiEj3rNC48U5+Zrcs7e25onGiE/kJAJAMdQN73333uZadagW6YsUK94xPPRNT14mHHnrIic/LL7/cyU91gRtuHZkL5CcAAAAAAAAAAABA5RMnNJOkNOSnCHVrmxaauVtoCiclnfCMPrMT+QkAUEwkMnfu3GmPPvqoXXXVVfa73/3ObrnlFhcJ0d/+9rd22WWX2cUXX2zXXHONzZ071w4dOhTMnRvkZxcSxoQQUqkBAAAAAAAAgKFNnNBMksGVn5HndmYRlpU9TedIP4szq0tb35VuD/Izvdxeur1FfgIA9JuWlhbbvXu3LVy40O69916bNGmSawWqFqGPPfaYPfjgg06K/uY3v7EbbrjBnnrqqV67v0V+diE50NbeQQghFRfkJwAAAAAAAADECc0kGVz56QVlr8/zDKbLaqWZFp5jnnJ2NPR3Gjd/L93exs0XFqLITwCAwqFnfNbW1rpnfK5atcpl8+bNrgvc7du3u+5vx4wZ47q/lQCdNWtWMGc8yM8ukJ+EkEoN8hMAAAAAAAAA4oRmkgyy/EzT7TmdUSHp8KI0xzRObobG3/Vydne5sfJTpAVo13JzdJsbgPwEAOg/6gpXOXr0qHvd0dFhu3btshkzZjgBOnr0aJs4caIblwvkZxfIT0JIpQb5CQAAAAAAAABxQjNJiiI/AQAAxJYtW2z69Ol266232uzZs4Oh8SA/u0B+EkIqNchPAAAAAAAAAIgTmkmC/AQAgLKg3ORnR0entbWlLrYtrZkgPwkhpOcgPwEAAAAAAAAgTmgmCfITAADKgnKTn83NLXbocK3t21+VCfKTEEJ6DvITAAAAAAAAAOKEZpIgPwEAoCwoN/mp55vqOad6vqkP8pMQQnoO8hMAAAAAAAAA4oRmkiA/AQCgLCg3+RkH8pMQQnoO8hMAAAAAAAAA4oRmkiA/AQCgLEB+doH8JIRUapCfAAAAAAAAABAnNJME+QkAAGUB8rML5CchpFKD/AQAAAAAAACAOKGZJMhPAAAoC5CfXSA/CSGVGuQnAAAAAAAAAMQJzSRBfgIAQFmA/OwC+UkIqdQgPwEAAAAAAAAgTmgmCfITAADKAuRnF8hPQkilBvkJAAAAAAAAAHFCM0kKKj/Xrl1rR48eDRYBAABQGHRt0TUm7tozWEF+EkLIwAf5CQAAAAAAAABxQjNJCio/t27danV1dcEiAAAACoOuLbrGxF17BivIT1LqefbZ53pN9aHDsfOWUuK2O5y4eUoxcdseTTmUh89TT8/pNXHzJQ3yEwAAAAAAAADihGaSFFR+VlVV2ZYtW2j9CQAABUPXFF1bdI2Ju/YMVpCfpJTzne98xz7wgQ/YMcccY1/60pft85//vH3mM5+xT37yk3b8CSfYf//3x+yjH/2ofeUrX4mdv1Ry+eW/dfuQ3o8v2ec+9zn71Kc+ZSeccGJmHy659NLYeUsplVIeytJly+3f//3f7RWveEWqHE6w449XjrePKx//uMvHPpbORz7ykdhlJAnyEwAAAAAAAADihGaSFFR+Krt373Y3qdVKBwkKAAB9RdcQXUt0TdG1Je6aM5hBfpJSzUknnWRnn322+1uyLTo+nN7GFzM/+clP7fs/+IH7O9d2qrVkqQvDSikP5YUXFtjf//3f29XXXGPNLa1OfsZN5yNBGjc8SZCfAAAAAAAAABAnNJOk4PJTUescdU+o57OtWbOGEEIISRxdQ3QtKXaLT5+k8rM1dZGtq2uwQ4drM0F+kkJHLQnDLSHLVbZ9+9vfzohPpVzlZ6WUhzJn7jz727/9W7vr7rvd66rqQ8hPAAAAAAAAABgU4oRmkuSUn3v27DFCCCGEpJNUfra1tVtjY5MdqavPpOjyc+Fo++t3/VNsrl4YM30/s3BUatln3Gt7YsaVe0ph30488UT7wx/+mDWsHGXbySefnCU+ld7kp89pp51u69atj512sFMp5aE8/sQTbtumP/BAZtj27TuQnwAAAAAAAAAwKMQJzSTJKT/jWr0QQggh5ZhCkFR+xlEa8vNHdt+uuOGFF6DIz4HLe97zHrv11tu6DS8n2SaR+ZnPftZ++tOfdRuXazu9/HzyyVn2wIMzXCvL0aOvjJ12MFMJ5eEzY8ZDTmLOnPl41vDVa9YgPwEAAAAAAABgUIgTmkmC/CSEEFLxKQQVLT/b99t9Z/yTfX9aYbvTRX4WPocO1zhhNmXqPbHjy0m2/e73v7ffjx5tzzz7nM2b94zrZvXpp+fY7Keezrmd0W5vJT6LKT8rqTyUW269zQnMuamyiI57cdFi5CcAAAAAAAAADApxQjNJkJ+EEEIqPoVgKMpPJ/jC3ePGyb5d99r3c0zTTRD6aeOGBbl6Wvp1phWqtjk1/X1+W6LLD8+b1XJ1qV3dbVh6P/961NKs19+ftjQ93C8rvH1BstbltydmuoGO5N/HP/5x+/3vR9sVV4y0X//6N3bZZSPs0ksvc60gy0m2SVqGu7ANJ5fQLDX5WUnloUy+K/18z7g8PWcu8hMAAAAAAAAABoU4oZkkyE9CCCEVn0JQ0fIzEIxhkde9ZWNaJnaJw1Tc8rIFY3i+rGV4yRmePxiWmT8kQrPkZ3Q+LzHfNdoW+mHdtiV/+Zk1X7ANYRGcFp9d69oz7UfpbSqS/PRyMC533z0ldj6fUpOfSty4XClF+Vkp5aFIXubKW97yFrv99omx8/lourjhSYL8BAAAAAAAAIA4oZkkyE9CCCEVn0JQOfIzLfu6JyQSY8VhdyHqXmdJyex0TR8jTv34yDAvFrPlZ0TYxg1LJXv7EsjPuO2KSNvY5RRRfsaNyyf9mbfQ8YIwblyulKr8jBuXT0qpPJT+ykvkJwAAAAAAAAAUgjihmSTIT0IIIRWfQlA58jOm5Wdcq8xMAnHpE5GLPT0nNC0Rf5RedjdRmGP+qGx02xwWs16QZg/rmtbvX/7yM7a7X7+9MevvNs0gpi+ybUXq/XbzzbfY6CuvtEcffcyqDx2KnW6wM1TlZ6mWh5KvvJw+/QHXBa7PiBG/dsORnwAAAAAAAABQCOKEZpIgPwkhhFR8CkFFy89UokLRyT1Jy5C4zBZ+cXIxO5llBAI0WzL2U37GiccBkJ+5RGvObRjgJJFtkmqnnXa6ffe00+yZ1Hxbtm6zu+6eYscdd5w98uijsfMMZoaa/Cz18lDylZcHq6rtqafnOAn6pje9yY4//ng3HPkJAAAAAAAAAIUgTmgmCfKTEEJIxacQDCn5GdvVa7z87CYvQ+kuEcPr7qf8jBGS2dMWRn7Grb/bNIOYJLJNkk1yTX9LtHlJKAl3/AknuBaI4ekHO0NNfobLI5xSKQ8libyUAH3/+99vE26/HfkJAAAAAAAAAAUlTmgmCfKTEEJIxacQDAn52aPwS8vELuEXFYndEydLw9O78ZH502KzZ/mZaz/i1pctNqPbkIf8jBXBwb5n1jV4yVe2qWXhL37xi6zXJ510Uua1RFv4dTEylORntDyiKYXyUHqSl0uWLsv8HRafeo38BAAAAAAAAIBCEic0kwT5WcT8y7/8i7361a8u+8TtGyGElFIKQUXLz10RwRe8DktBJwQlDsMi0i0vWwyGW2Vmy8iY6XOsN2sb4+Snl489bkt3QZnZhyTy078OrcsL2lKWnxKC4ZaEUfmpqLvV8OvBzlCSn748Vq562bXCjUbTFLs8lJ7kpRecUfGp+L+RnwAAAAAAAABQCOKEZpIgP4sYyU/dJHrta19btvmTP/mT2H0jhJBSSiFIKj87Ozutra3dWlpaMykN+RkIwEjCAjN22lFLA+kXkacZYenTJQm7yc84aZk1f2rZC/W6N/mZTkZm+nmjUte39AwiyenmSSg/M8P8slLj7ouZZjCSr2zzrQz1/pL0VLeqf/d3f+f+VnxLQy/eihEJwUsuvdQeeHBGopSj/PTlccopp9iJJ56YKYcPffjD9rnPfd6enDW76OWh9CY/48RnOMhPAAAAAAAAACgEcUIzSZCfRYyXn42NjcFhLy/e/va3Iz8JIWWRQpBUfjY3t9ihQ7W2b39VJkWXn+WQHmQnyV+23XTzzfbIo49mXse1/JQMDb8e7Kxbt95OO+10tz9J8v3vfz+zjHKRn9HyiEuxy0PpTX72JD4V5CcAAAAAAAAAFII4oZkkyM8iBvlJCCGDk0KQVH4ePXrUOjo7raOjIxPkZzjdu6XNDIs8B5R0JV/ZphaEau1ZfeiQex2Vn5Jxeu/516UQ7Zf2L25crpSL/IyWRzSlUh49ycuTUvup8T7Tpz/QbZqe5s83yE8AAAAAAAAAiBOaSYL8LGKQn4QQMjgpBEnlZxzIz2iyu6V1QXz2ms997nN2zDHH9Bh1J3vX3VOccPNdqfpngEq09STiipVylJ9KX8vDp5TKo7/yEvkJAAAAAAAAAIUgTmgmCfKziCmE/Nw6+0a79LwLbNTU5abb+81VNe7/nNQssAWbgr/7CfKTEFIuKQTIT1KO8S0+zzrrLBt95ZV2wgknuvdcqYlPRYLwox/9qH3kIx+xD3/4w/ahD33I/uu/PmQf/OB/2X9+8IP2n//5n/Yf//Ef9u///u/2gQ98wI477gP2//7f/0ssTIuZUi8PHfuPfezjfY7mj1tukiA/AQAAAAAAACBOaCYJ8rOI6b/8XGA33rw2/ee6OTZnX409MOJSm7mr2Wo2LbA5c5fbvvb06JqXU+MXbrXmXVNsykKz5m3LbWtNelxfQX4SQsolhQD5Sco90RaHpRiJzCRZvXpN7HLKIaVaHk89PafPiVte0iA/AQAAAAAAACBOaCYJ8rOIKUzLz6vsgp9fYFc9uNbkMhdMnWL7qh6wqyZvNatfYKOuWWD28gS7an6z2TYJ0Ck2YeIUu+q+1Ph+gvwkhJRLCgHykxBCBj7ITwAAAAAAAACIE5pJgvwsYvotP9WF7brg75dvtBvnBvJzySgbtVAD99mUK1KvF06xKbv0OrXezVNs1BVXIT8JIUMqhQD5SQghAx/kJwAAAAAAAADECc0kQX4WMf1v+bnVHvjVWXbjgw/YjT+/wB7YZbb25gvsxhXP2oQrJtjMB6+yUQ/uM6uaaVf98QGbef1V9sDidLe3W6eOsinbgsX0EeQnIaRcUgiQn4QQMvBBfgIAAAAAAABAnNBMEuRnEVOIbm+LCfKTEFIuKQTIT0IIGfggPwEAAAAAAAAgTmgmCfKziEF+EkLI4KQQID8JIWTgg/wEAAAAAAAAgDihmSTIzyIG+UkIIYOTQoD8JISQgQ/yEwAAAAAAAADihGaSID+LGOQnIYQMTgoB8pMQQgY+yE8AAAAAAAAAiBOaSYL8LGL+5m/+xsnPH/zgB/bDH/6w7PLmN78Z+UkIKYsUgqTyszV1ka2ra7DDh2szQX4SQkjPQX4CAAAAAAAAQJzQTJKSlJ+XXnqpk4KDmY9//OOx2zKQkTyM25ZyS9y+EUJIKaUQJJWfbW3t1tjYZEfq6jNBfhJCSM9BfgIAAAAAAABAnNBMkpKUn+PGjXMycjBz9tlnx27LQOad73ynk4ejR4+2P/zhD2WXY445hpafhJCySCFIKj/jQH4SQkjPQX4CAAAAAAAAQJzQTJKSlJ/RrF+/3mbPnt0tN9xwgz322GMuU6dOjZ1G80aXoZsq0XXEZdWqVbHDCxWe+UkIIYOTQoD8JISQgQ/yEwAAAAAAAADihGaSlIX8zNUN7rHHHhs7PJwLLrjAteqMDh8zZkzsusL52te+ZhdddJHV19fHju9vkJ+EEDI4KQTIT0IIGfggPwEAAAAAAAAgTmgmScXLT3VpGzdcue+++2LX5yP5qene8Y532G233RY7TX+C/CSEkMFJIUB+EkLIwAf5CQAAAAAAAABxQjNJyk5+nn766XbZZZe56G8/3EdC1I9X/PD3ve99ruvbWbNm2Rvf+EY37P3vf3/s+nwkP//sz/7MST5Nf/zxx7tuc+Om7Uv6LD/rl9uUKy6wC0bcaHO2aUCN1VS5MTnZunBBaqpsmtfNtAkTJ9iU+dEx+YH8JISUSwoB8pMQQgY+yE8AAAAAAAAAiBOaSTLo8vPmm2/OK+F5crX8jJOfuSLp6Zd32mmnZYb7YXHb8B//8R/2yle+0q6//nr73Oc+l5nnzDPPtE2bNmXm7Wv6Kj/3Tb3RZtbrrxpbMHut1ay4yi69OfV/+z5bPneOLdiUlpnN2xbYnLmp4am/F0ydYvtSf61dsc+NS421OY8sSP1rtvbmG21BemAikJ+EkHJJIUB+EkLIwAf5CQAAAAAAAABxQjNJBl1+XnnllRmJmCsSjeF5Ci0/TzrppMxwP2z06NFZ08fl3//93+0DH/iA+/sf/uEf7Pbbb8/M35f0p+XnhOFn2VnDJ9gcucxdU2zKQrPl466yBfVmWyePsilrZtqNU7e6aecsabYFk2+0Kdff6MZnUb/Abrw+LUGTgvwkhJRLCkGpyU9CCKnUAAAAAAAAAMDQJk5oJsmgy091G5tPwvOE5Wd4eLhbWx8949OP180T38Wtuqz13d6+6U1vcsPUFa6fNm4bTjjhBHvVq15lN910k33kIx9x8/zFX/yFXXHFFZn5+pO+ys+uLmxrbOY1E2yrk5/77IHfq3VnioWjbNTDaSEqmuvNFlxzgY36Y0R+Vs2xq66YaVuDl0lBfhJCyiWFoJTkJwAAAAAAAAAAAMBgsH33vpw5XFs3IIkTmkky6PKzL+mr/FTGjBnTbRqfcePGZU0bjX/mp5/+Jz/5iW3bti122r6kr/KzeeFVdtYVU+yBqaPsrGuWW3PNTBt13kzb8PhVdtWDM23CFTfa8ublqf8n2MypV9mNavmpbm/rF9hV1/hWnlttwtdPtQv+mJrnj30ToMhPQki5pBAgPwEAAAAAAAAAAGCocd/MOYOaLTv3xArNJCkL+anWmu985zudKAwPD8vPc845x/0flZ9K+BmfPhKq0emikfzUtF/60pfs+eefj52mP+lzt7clAvKTEFIuKQTITwAAAAAAAAAAABhqxAnKcB6a/ZxLb8MeeHJet2FKdNqKlZ+SnRKb4fz4xz92z/gMD/vOd76TieSnxmu68DQ+Z599tnvWp6K/o+PjWoFKfk6bNq3b8EIF+UkIIYOTQpBLfnZ0dFiru6i29hrkJwAAAAAAAAAAAJQTYVEZl3Wbt9us5xZlDZu3cJmtXLcpa5jk5669B7KGKZpO0/vXFSs/w93cDlbiWowOdJCfhBAyOCkEcRfLo0ePWkNDkx2sOmT79h3sNchPAAAAAAAAAAAAKCfCojIuyM88s379etf6czCzaNGi2G0ZyCA/CSFkcFII4i6WorPzqGv92d7ee5CfAAAAAAAAAAAAUE6ERWVcvPyU3Fy9YYsbFpafXm6G5WfceP2tDJlnflZq3vzmNzv5+ad/+qdlGYlPbX/cvhFCSCmlEOSSn0lAfgIAAAAAAAAAAEA54aVkroTlZ09yE/k5ROLl51ve8payzKtf/WrkJyGkLFIIkJ8Ag09NTU3wV2EZqOUCAAAAAAAAlBPlVD+mLl88vJSM5qn5i231xq22ffc+27x9t63dtM32Hqx2w7bt2uuG6+9pG56xZzavdOP9MI3302qYXj829wUnQZGfZR66vSWEkMFJIUB+AsSzbds2O/PMM+03v/lNMKQwTJo0yd70pjcFrwqDtvWUU04p+LYCAAAAAAAAlBtjx44dkHr3iSeeaPPmzQuGFIbLL7/cTj755OAVDDZx4lNZumpdMEXPzNy9xNYf2RW8yo3Ep2SoiBOaSYL8LGKQn4QQMjgpBMhPgGz0i0tVPvRdRimUUFyxYoWrKPnlFgptqyp1hdxWAAAAAAAAgHJDPzZ+17veVdB6d/QeQaHkp5bjt/WEE04IhsJgE5WeLyxd5aLWnvmA/BxiQX4SQsjgpBAgPwG68CLx2GOPtTvuuMNVQPorFFVROvfcczMVGi1Xf/cXX1F64xvfWLBtBQAAAAAAACg3VD/2PzZWvXjGjBkFqXdrOap36x6BX2Z/5afvuUnLOuOMM+ycc85BfhaRqPxcsmqdy/Zde4MpCgPys0LSZ/lZv9ymXHGBXTDiRpuzTQNqrKbKjcnJ1oULUlNl07xupk2YOMVmruubGEB+EkLKJYUA+QnQ9etQicRrr702GGr9Foq+i1tfURKqKPWnEhauKKmS5J8NgvwEAAAAAACAoYTvitaLRL0Whah3h2Wqr3frdX/kp//B9fvf//7McrR85GfxiMpPn3y7vX1iz1JbV7szeJUb5GeFpK/yc9/UG21mvf6qsQWz11rNiqvs0ptT/7fvs+Vz59iCTekPmeZtC2zO3NTw1N8Lpk6xfam/1q7Y58alxtryR9JCdM5EjUsO8pMQUi4pBMhPGMqosnHcccc56Rmu0Hj6KhTDXdxGl9ufSpivKGm7tI4wyE8AAAAAAAAYCkhOnnnmma5uHVc/7mu9W3V338WtlutlqkfD+yI/NU/cD64F8rO4eNm5bvP2rOzYsz+YomeQn0Ms/Wn5OWH4WXbW8Ak2R9Zy1xSbstBs+birbEG92dbJo2zKmpl249TUmyQ17ZwlzbZg8o025fob3fguUsOvOdXOmph+MyUF+UkIKZcUAuQnDEVy/To0SlKhqIpSuIvbuOX2pRIWriipi9s4km4rAAAAAAAAQDnh5WS09WSUvtS7o13cxqFl5lpnHLonEO7iNvqDa4H8LC5efs56blFW1gSisjeQn0MsfZWfXV3Y1tjMaybYVic/99kDvw9acC4cZaMeTgtR0VxvtuCaC2zUH7PlZ2oTHFsnT7EF6T8TgfwkhJRLCgHyE4YSqniEfx2aS3p6kgjFuC5u40hSCQtXlMJd3MaB/AQAAAAAAIBKJVznzvWjYE/SeneunpuiaJp85Wc+klYgP4uLl58+Dzw5z2X56vXBFD3T2tnu0hvIzwpJX+Vn88Kr7KwrptgDU0fZWdcst+aamTbqvJm24fGr7KoHZ9qEK2605c3LU/9PsJlTr7Ib1fJT3d7WL7CrrllgaQ3QbMtvHmUTHp9io371AN3eEkIqOoUA+QlDgfCvQ1WpyLeyko9Q7KmL2zjyrYT11MVtHMhPAAAAAAAAqDR8i0z/uJp8yKfe7e8TaDrVp3v7cbTQtL3dT9D4XF3cxoH8LC5R+bl89QbbufeA7dlfFUzRM4/vWWrrj+wKXuUG+Vkh6XO3tyUC8pMQUi4pBEnlZ2vqIltX32CHa45kgvyEUmbs2LF5/zo0Sk9CURWl3rq4jaO3Sli4opRke5GfAAAAAAAAUCmobpzkh8Zheqt359PFbRxappYdR7jnplxd3MaB/CwuUfnps3TVumCKnkF+DrEgPwkhZHBSCJLKz7a2dmtobLIjR+ozQX5CKaIucZL+OjRKLqGYbxe3ceSqhCXp4jYO5CcAAAAAAACUO1GJmO8PjcP0VO/uq1AVmi9OfubbxW0cyM/i4mWn5GQ4T61b5qSmF5v+7+jrR3YvygzrCeRnhQT5SQghg5NCkFR+xoH8hFJCFY3+VGbCRIWi7+LWC9W+LDuuEpa0i9s4kJ8AAAAAAABQrqh+feaZZ7r6suq3SSVimGi9W8tO2sVtHJo/vF36O0kXt3EgP4uLl58vrd2UlUc3LnKtOhXh/46+fnpffvdwkJ8VEuQnIYQMTgoB8hMqhfAvOPv669AoXiiqouS7uD355JP7texwJSxcUUraJW8U5CcAAAAAAACUG15M+t6VwnKxr4Tr3X3t4jYOLVPL1j2BvnRxGwfys7h4+RlNvt3eeiQ21/SQmXNfsI3bdrpp44RmkiA/ixgvP/UBUI5BfhJCyiWFAPkJ5Y4qHeFfh/a15WQcWp6E6kBUwvSdQ//3pYvbOJCfAAAAAAAAUE6EHynT3x8Eh/H17kL1CuXxdfm+dnEbB/KzuESl5/LVG2zd5u22Z39VMEV+RJcTzeKVa4MpkZ9lHS8/yznIT0JIOaQQID+hnJHoLGSlI4oqIP15ZmgcvhI2EKIW+QkAAAAAAADlgO8FqVBiMky43l2IXqE8WmZ/uriNA/lZXKKSctZzi1zUWjMJ0eWEExafIk5oJgnys4i5/fbbKyJx+0YIIaWUQoD8hHLGV2gGClVoCllREhKehfxFqwf5CQAAAAAAAOWC6vID8SNmoXp3f7u4jaO/XdzGgfwsLnGyUkna7W3cMpSo+BRxQjNJkJ+EEEIqPoUA+QnlzEDLz3IC+QkAAAAAAADlwkDKz3IC+VlcvKTctmuv7dx7IJMde/YHU+RHWHj6+Gd8RokTmkmC/CSEEFLxKQTITyhnkJ9dID8BAAAAAACgXEB+pkF+FhcvKh94cl5Wlq9eH0yRH2HpqUim5iJOaCYJ8pMQQkjFpxAgP6GcQX52gfwEAAAAAACAcgH5mQb5WVyi0nLewmUuG7bsCKbIj/AyehKfIk5oJgnykxBCSMWnECA/oZxBfnaB/AQAAAAAAIByAfmZBvlZXMLSUlm+eoO9tHaT7dp7IJgiP/z8vYlPESc0kwT5SQghpOJTCJCfUM4gP7tAfgIAAAAAAEC5gPxMg/wsLmHxGc6jTz9v815cnnc0Tz7iU8QJzSRBfhJCCKn4FIKk8rOzs9Pa2tpTF9vWTJCfUCyQn10gPwEAAAAAAKBcQH6mQX4Wl6j09Hlq/mJbvXFr3qk5Uh8ssXfihGaSID8JIYRUfApBUvnZ1NRi1YdqbO++g5kgP6FYID+7QH4CAAAAAABAuYD8TIP8LC57DlTlzEARJzSTBPlJCCGk4lMIksrPo0ePWkdHh7W3dwX5CcUC+dkF8hMAAAAAAADKBeRnGuTn0CNOaCYJ8pMQQkjFpxAklZ9xID+hWCA/u0B+AgAAAAAAQLmA/EyD/Bx6xAnNJEF+EkIIqfgUAuQnlDPIzy6QnwAAAAAAAFAuID/TID+HHnFCM0mQn4QQQio+hQD5CeUM8rML5CcAAAAAAACUC8jPNMjPoUec0EwS5CchhJCKTyFAfkI5g/zsAvkJAAAAAAAA5QLyMw3yc+gRJzSTBPlJCCGk4lMIkJ9QziA/u0B+AgAAAAAAQLmA/EyD/Bx6xAnNJEF+EkIIqfgUAuQnlDPIzy6QnwAAAAAAAFAuID/TID+HHnFCM0mQn4QQQio+hQD5CeUM8rML5CcAAAAAAACUC8jPNMjPoUec0EwS5CchhJCKTyFAfkI5g/zsAvkJAAAAAAAA5QLyMw3yc+gRJzSTBPlJCCGk4lMIkJ9QziA/u0B+AgAAAAAAQLmA/EyD/Bx6xAnNJEF+EkIIqfgUAuQnlDPIzy6QnwAAAAAAAFAuID/TID+HHnFCM0lyys89e/YYIYQQUgkpBEnlZ2vqIltf32CHa45kgvyEYoH87AL5CQAAAAAAAOUC8jMN8nPoESc0kySn/Ozs7DRCCCGkElIIksrPtrZ2a2hostoj9ZkgP6FYID+7QH4CAAAAAABAuYD8TIP8HHrECc0kQX4SQgip+BSCpPIzDuQnFAvkZxfITwAAAAAAACgXkJ9pkJ9DjzihmSTIT0IIIRWfQoD8hHIG+dkF8hMAAAAAAADKBeRnGuTn0CNOaCYJ8pMQQkjFpxAgP6GcQX52gfwEAAAAAACAcgH5mQb5OfSIE5pJgvwkhBBS8SkEyE8oZ5CfXSA/AQAAAAAAoFxAfqZBfg494oRmkiA/CSGEVHwKAfITyhnkZxfITwAAAAAAACgXkJ9pkJ9DjzihmSTIT0IIIRWfQoD8hHIG+dkF8hMAAAAAAADKBeRnGuTn0CNOaCYJ8pMQQkjFpxAgP6GcQX52gfwEAAAAAACAcgH5mQb5OfSIE5pJgvwkhBBS8SkEyE8oZ5CfXSA/AQAAAAAAoFxAfqZBfg494oRmkiA/CSGEVHwKAfITyhnkZxfITwAAAAAAACgXkJ9pkJ9DjzihmSTIT0IIIRWfQoD8hHIG+dkF8hMAAAAAAADKBeRnGuTn0CNOaCYJ8pMQQkjFpxAklZ9ab1tbu7WmLrY+yE8oFl5+nnjiiUXLe9/7Xnv9618fO24w86Y3vQn5CQAAAAAAAGWB6vLHHXdcbP12sPLP//zPscMHM+9617uQn0OMOKGZJMhPQgghFZ9CkFR+NjW1WPWhGtu772AmyE8oFtu2bXPCr5g55ZRTMuKx2OFXswAAAAAAAFAOxNVpBzMnn3yy/fmf/7lddNFFseMHM3fccUdwVGAoECc0kwT5WcFZs3ePTVu62K6d+5Rd9fSsioj2RfukfYvbZ0IIiUshSCo/jx49ah0dHdbe3p4J8hOGMnfeeacde+yxwSsAAAAAAAAAKHXe/va3u9anko8Ag0mc0EwS5GeFZt6G9bHysJKifYzbd0IIiaYQJJWfcSA/YSgj+fnOd74zeAUAAAAAAAAApYxaWr761a928vN1r3ud1dTUBGMABp44oZkkJSc/n//tK9zJFM7IF7Kn2TPlf+wVX7vb9oSGdcsLI1PzjrTn48aVanbcbf/z2+fjxyWIWkXGycJKDC1ACSH5pBAgPwH6x+TJk5GfAAAAAAAAAGWCb/Wp/MVf/AWtP2FQiROaSVIw+dnY2GiHDh3qNS0tLbHzd3busbu/ljqRolJTQjB1cv3PlC7JlZf8LLsE+18A+aluYeNEYSVG+xp3DAghJJxCEHexVNe2bW1tVldX5379Fk1DQ4Pr7taD/IShjOTnO97xjuAVAAAAAAAAAJQq4VafPrT+hMEkTmgmScHk5+LFi23ChAm9ZvPmzbHzpyXn/9jdO7qPc7Iz1IoT+dlzKukZn71F+xp3DAghJJxCEHex1DM99+/fb0uWLLG5c+fanDlzMtHrVatWuR/+eJCfMJS56667kJ8AAAAAAAAAZUC41acPrT9hMIkTmklSMPl55MgRW7p0qd12222xGT9+vG3atMm1EI2bP91Nbbz8jMbLz+edFPUnX2TerG5vn7eRqWlGvpD+388Tbk2aa5q0jMweFu2GNzq+m5j12+L+j1tOZP7MdgdCNDSu+7q7J04S+jxzOGiB1H7InokZ35Xd5m7XN+yOGVdaiTsGhBASTiGIXiwlPmtra23FihW2fft2O3z4sGvp6VNdXW0bN260devWuWufWokiP2EoI/n5t3/7t8ErAAAAAAAAAChF4lp9+tD6EwaLOKGZJAWTn4re9Gr9ItEZFp9Tp061tWvXWnNzc+x86XQJwGwp2T3plqCpaTOtJGO6zI2Rn5onIw+7dafrp+mSqJn1dBsWFq3BfKEWm+nnlna1VE1vS2pYaPu6TdOt5WdMS1C3nN4FcZwgTGeD7cj0vthuOzbGTeOD/CSEVE4KQfRiqe5s1apTPR/s3r3bdesepqmpyf3o5+WXX7b6+nrkJwx57r77buQnAAAAAAAAQIkT1+rzVa96VeZ/Wn/CYBAnNJOkoPJTUWuX+fPnu+c6SXzed999rlVM3LTdE20BqYQFYTppARkZHhWDcfIzLBJTyV5OzDQxzxv1w7xEjd2WYFmZ+eKkZWQ53WVnZBkJEicIXTYeMt2ab0mVkfv/8IbY8Y7UNF3yM5CmodaiqxrcSFvlXgei1JMRpl3z7XDTCz9PkL2ZESnCQjYsamO2NZS4Y0AIIeEUgujFUsvVNU8tOzds2GBbt261nTt3ZrJlyxY3btu2bU6MIj9hqCP5qQoUAAAAAAAAAJQmavXp3cyHPvQhu/baa93fEp6vfe1r3d+0/oTBIE5oJknB5afPM888YzNmzEggPiPxrSV9QlLSCcfYrmV7lp/duozNes5onGyMmS9LWsa0zgziWnb64VnbEqRX+elbh6YS3ddeEicIlXSXtxKM3WVml2wM5KSXkoHITM8bkZ3BOIlQLyd9t7qH9oaXGUhNL1+9yAxeZ00bbFOWXA22JT1d98QdA0IICacQxF0stWx1d6veDdTzQTjqCl7Pua6rqwum5pmfMLSZMmUK8hMAAAAAAACghDn22GOd9Jw3b557rf/lKISEpyToG97wBlp/woATJzSTZMDkZyGTloBdYrPk5GfqdWz6KT+VdMvSmGX2kDhBGJWLXSI0GB8Vk9Fub8OiMlZGZrf+zJaf8dI0W6iGE1l38DpX68+4Y0AIIeEUgriLpVCLzrh1KhqneJCfMJSR/Pybv/mb4BUAAAAAAAAAlBJqyOalpycsPz2SoGoRCjCQxAnNJCkL+RkVhQWTn1nz9EN+9iYk+yE/w/EitLeucOMEYa5WlzlfdxOQgchMvc7u8tYLzjgxmi1co8vMXk4owbZ0I7Mt2Yk7BoQQEk4hiLtYatl67qee67lw4UJbsGBBJi+++KJt3LjRjhw5EkyN/ISBZ9/UU+0VX59i+4LXpYSeAV+S8nPhKHvFFQvSf++aYqeW6PEDAAAAAAAAGGzi5CfAYBAnNJOkZOSna92Zq3tXJwr73/IztlVlZjl9kZ+5tjstMjPLKpD8VLK6082ROEGYFo1xBPLRC8dIa8uwcPStRVsCCeqGR6VpAvnZrfVpJt3X3VPijgEhhIRTCKIXSy23vr7e1qxZY5s2bXLP+dy7d28mO3bssPXr17txtbV1VlNzBPkJA06py8+3ve1twavSYsEVqe9X+q6YyqiFwUAAAAAAAACAIQ7yE4pFnNBMkpKRn14Gxom9qPDrs/xMJSMbu8nHvsnPzLKj2xeWnX2SnzHb022e+HQXhIFMzHrGZ67ncwYyNPLMT5dQi8z0PEpYVEZagfYiP6PiNNwSlGd+EkIKmUIQvVi2t7e7Vp+LFy+23bt3W0uL/4RM09TU5MTnypUrU9MddgIU+QkDTSnLz3vuuadk5ScAAAAAAAAAdAf5CcUiTmgmSenIT5dAAEomhhKVfX2Vn/8z5e60qIxdbl/lpxII0EwiojMv+ZmKm07zZ3fF27Xc6PbFp5sgDORhV5e2QXK19hQNDTGtLyOCNIiXqI729pDQ7EV+Kl6yOsKtQLtEqui27aHEHQNCCAmnEEQvlh0dHa5LW8nNrVu3WlVVlXvmgc+BAwdsw4YNLhKhevYn8hMKzwIblfmecKqNuiItP6fkaMnoWjj6Ll4d+2zK10PD1O1rajlTdqVfOqLD3Ouu5buEltl9HcGwr19hf/3Xf50eoK5mc8zviIw/dWqXznWCNzTOJSR8exbA6ePlj0mvxwMAAAAAAACgkMTVqZWsemxQN82MH5WqzYYJ3wvw6aq3+3px+N5At3pyL3X7aL086z5BL+t3RJefVc+Om1/J3s9wL03R5ee890B9vmKIE5pJUmLyc6ASJzYrN9fOfSpWElZitK9xx4AQQsIpBHEXSy374MGDtmTJEps7d67NmTMnE73Ws0AlQj3ITygsUVHXVXnIyEJXWemqIEQrAhmR6IdFRafIGpYtDx1BhSi3UAyGefkZmd4v029zeptC2xBUmLLGx1QKc48Pk739vR4PAAAAAAAAgEISU+/OrscGdftQvdTVXbPEoKYJvY4ss3vdNv7+Qc66fWh5vuVnkvVH70Xkv36/zOj0KSLLzHnvITIMypc4oZkkyM8KzLSli2NFYSVG+xp3DAghJJxCEHexFOr+Vi079fzPcBoaGqy5udm1EPUgP6GgxFSYuleI0sO8GMyuCKQrK6PCw2KWGTssi+xKS84KyDfS8jNufBfZItMTrgh2l5vp9fdffsYcDwAAAAAAAIBCElPHzqrHZklAT3ZdNr2M3PIxLT8jy0hYt/fEys9e1q+6drRenz1NzLrC+x1dfkC4Dh93b6Hn+w1QbsQJzSRBflZg1uzdEysKKzHa17hjQAgh4RSCXPIzCchPKCgxFaI48eeGxVQO9LcqGlmVA1fBSL3ulmgFKfgVZmiaLKEYGp7JN0ba//2/b42Vm13EV7bCFZ90JS6y7NA+9zw+e/m9Hg8AAAAAAACAQhIRhSJcl4+r1wvVVTN1aS0jPE1kmfHLiKtv567bO9x9h/TwrHsCPa6/+zK7kqf8DK23W8L3N3oYD+VPnNBMkiEiP4de5m1YHysLKynax7h9J4SQaApB9GKp5apl5969e23nzp2x2bVrl+sWt62tjWd+QuHpj/zUvMF0WbIvphKWPSxdQcmuUOQWih43zMnPY/omP0P72n0fs7vDiTsGXduUY1tzHQ8AAAAAAACAQhJT7w7XY+PqtL7em6lLqw4brrdGlhm/jHB9uPe6vSe25WeP608vJ3e9X8SsK1rvj9zviJLz3gP1+YohTmgmCfKzgqNWkeoWtpKeAap90T7R4pMQkiSFIHqxVHe2R44csVWrVtn8+fPt2WeftRdeeMEWL16cydKlS23jxo2uW1zkJxScXBWmrApCdgUpXRGYkhrWNV9W5SBmmVnDQpWRDG58jFAM4YZ9Y5T9n//zf3qpjEQqdAG9VQR7G9+13dkVrF6PBwAAAAAAAEAhyVWX9/XYuHp3TF02q94cWaZbXmzdPf+6vcfLz1Gh5fe8/uwfKMfTs/xM/519jKLE1d2pz1cWcUIzSZCfhBBCKj6FIO5i6dm0aZOtXbvWDhw4EAyJB/kJhSVaoUhXHlQpyVRCIhUGVxEIj0+RVTmIqYR1ryCFx3ets1f5+c20/IyrxITnSVfSQuODCpjf5ji52W3+nONj5GdPxwMAAAAAAACgkMTUu7PrsUE9O1QvTdddvazU+Oz5o8tM16vDy4jcP+itbu/Gp9fXveVn7+tPz58tN9Pb1MMyQuvMbG9W3T69jb7+Hld3pz5fWcQJzSRBfhJCCKn4FIKe5Gdra6u1tLRYe3t7MCQe5CcUnqBC4Coip9qoK9IVpimB1ItWNlxFoAdxGFcJy1mJyiw/uxKVswLyzVH21re+NT0gqAhlEq2cRMaH5WR0/en4ClJv49OVpSz52dPxAAAAAAAAACgkvcpPEa7rh+q0bt7w8GjSy/XLC98biNZz86rbZ41PDcxz/Y5ovT/Yh8x6I3XxbPkposeg9x8uU5+vLOKEZpIgPwkhhFR8CkFP8jNfkJ8w0HSvMJUO999/f5f8BAAAAAAAAIBkxP1g2RMaV8h7A77lpyPP9QMUgjihmSTIT0IIIRWfQoD8hHKg1OXnMcccE7wCAAAAAAAAgEQgP2EIESc0kwT5SQghpOJTCJLKT61X3eC2pi62PshPGGhKWX5Onz4d+QkAAAAAAAAwwAyY/AQYROKEZpIgPwkhhFR8CkFS+dnU1GzV1TW2d9/BTJCfMJSR/Pyrv/qr4BUAAAAAAAAAlDrITygWcUIzSZCfhBBCKj6FIKn87Ow8ah0dHdbW3p4J8hOGMg888ADyEwAAAAAAAKCMQH5CsYgTmkmC/CSEEFLxKQRJ5WccyE8Yykh+vuUtbwleAQAAAAAAAECpg/yEYhEnNJME+UkIIaTiUwiQnwD948EHH0R+AgAAAAAAAJQRyE8oFnFCM0mQn4QQQio+hQD5CdA/JD/f/OY3B68AAAAAAAAAoNRBfkKxiBOaSZJTfu7Zs8cIIYSQSkghQH4C9I8ZM2YgPwEAAAAAAADKCOQnFIs4oZkkOeVnc3OzEUIIIZWQQoD8BOgfkp9vetObglcAAAAAAAAAUOogP6FYxAnNJEF+EkIIqfgUAuQnlB77bMrXX+EqIeGMWhiMdkSnGWULgjFiwRXhcV3pWkbcOkLL2DXFTn3FqTZl6qjQ+NTrXRq5wEZlzRfKFVpCPstODfv6lNSUYfx8fj1psvclZpxbZxddw3rbTgAAAAAAAIAC4uvSoXqrLVS9Om5YVx311KnZteMsIstM15FDy/N1bJ9wfbeH+vdlJ6anTy8nV/05fK+h57r+vqmndltP1rA8jk33On6wTurwFUWc0EwS5CchhJCKTyFAfkLpoS/34QpBuhLSJS7Tr8OVI1ehCFU6ulcYspeRa3xmWKbyFKnIZFV8UriKynftdW98YzAg32Wfaqdm7WOKzDr98JhKTq8Vo/hh6fki2w4AAAAAAABQSLoJvqA+HBrWvW7dvY6fRXiZ7u/QvIFEjd4vyKf+/XG3XdnyM+tH15F6dG91/eTys/uxia4jfayi64VyJ05oJgnykxBCSMWnECA/ofRQBaB7hSBTCVEFJOZXmxKFvrKUq1KSVZGJkDWPq5REp89eh8NVhk6z14bkZxzdl53av6mjspalaU69IjXM77ubrruwDC+r+37GD0N+AgAAAAAAwIATEXySd1n13KBe3a1u3lOdNbRMV2+O1KN7rP/2UP/++A9+6MRierti7hnkUY8Orz+p/Ox+bKL7o20aZaPi9hHKmjihmSTIT0IIIRWfQoD8hNIj/QW/66t9diUk88vHmCSVn92W5eeJVEo83Zbr5ecb3hAM6KL3ZYf3M/g7vF637ND84QTLctvTw/gMeVTaAAAAAAAAAPpFuE6rvyX+surX6bp5bD02V53VzZ+eJuvHyHE/UHZoHaFtyFH/vum+y9wyw9uVj/zMVdfPea8iTn7GHpugjh+q72t7ut/fgHInTmgmCfKTEEJIxacQID+h5PCVgOBltBLivvhnje9O98pBzDJcRaSrIpM1T6QC4um23Bj5mWTZGu62ScvR+NC4dMUpR+UvoNv2pIgbhvwEAAAAAACAASdTpw218AzXr93fXXXzvIgss6u+m0N+dltf+u9o/XteQvnp6to91PVdHT5yryJrWGQ/uh2bFJnlad3BfLF1fChr4oRmkiA/CSGEVHwKQVL52Zq6yNbXN1pNzZFMkJ9QSFzlIOuLfXYlpG9SMLyMmEpNUGnKzOMqIPHTZFWsXGXoNPvL178+GJDvsoPKTVDp0va6eaLjQpWgOOIqQbEVo0ilDQAAAAAAAKDg+Drt1HRdN2tYSDJ2b63ZA+H5s5aVR/03WscO1b+Tyc/e6/p5y8+cx8bvz5TUcnvZRyhr4oRmkiA/CSGEVHwKQVL52dbWbg0NjVZbW5cJ8hMKR+gXkBmilYz066wv/67C0DVN98pBeBnpv8OVLTd9eJnB8sLCMFa6usrQ6d3kZ+/L9hWZYF/iKma+IpVVecpeflwlKLZihPwEAAAAAACAgSamLp1dz/V1667XwtVjI+IwQ2T+rDqvq+v2cL+gh/p3X+RnT3X9/ORn1/odcfsWt55oHR/KmjihmSTIT0IIIRWfQpBUfsaB/ITC4CsiudOtQhM7Lq5yEKnIZCodQVLTZslNXwHRLzIz04UqKJ5Afr7mda8LBqTId9lxFbfIuIwADS2vt0pQbMUI+QkAAAAAAAADTVAfzpKI3eq5XoCG6rq5xKeIzh9dR/A6s6xwfTgyb7i+nLTb27j1hOv6WaIzIGtYdLtF3PZFlhFbx4eyJk5oJgnykxBCSMWnECA/oXSIqWxk6GncABCpgPTEY489Zq8Ly08AAAAAAAAAKGnmzZvnJCbAYBMnNJME+UkIIaTiUwiQn1A6lK/8fO1rXxu8AgAAAAAAAIBSB/kJxSJOaCYJ8pMQQkjFpxCUovxsbW21I0eOWFVV1ZCL9lv7D0UmgfycOXMm8hMAAAAAAACgjEB+QrGIE5pJgvwkhBBS8SkEpSY/Gxoa7ODBg9bY2Gjt7e3W0dExZKL91X5r/3UcoDyQ/PzLv/zL4BUAAAAAAAAAlDrITygWcUIzSZCfhBBCKj6FoJTkZ0tLi2v9KBE4lNH+6zjoeEDp8/jjjyM/AQAAAAAAAMoI5CcUizihmSTIT0IIIRWfQlBK8rOmpqZg+1Xu6DjoeEDpI/n5mte8JngFAAAAAAAAAKUO8hOKRZzQTBLkJyGEkIpPISgl+XngwAE7evRo8Gpoo+Og4wGlzxNPPIH8BAAAAAAAACgjkJ9QLOKEZpIgP2Oyfv16mz17tl122WWZ3HfffbZ///7Y6QkhhJR2CkEpyU9dj6ALjkd5IPn5F3/xF8ErAAAAAAAAACh1kJ9QLOKEZpIgP0OR9Dz++OPdyRyXY4891mbNmhU7LyGEkNJNIUB+li4cj/LgySefRH4CAAAAAAAAlBHITygWcUIzSZCfQcaNG2dvetOb3Il8zjnn2IwZM2zFihXuYOh/DXvjG9/ophnoFqDalnCr075ELVXjlt1TFi1aZCeddBKilxBScSkESeVnZ2entbe3W2tbWybIz4GB41EeSH7++Z//efAKAAAAAAAAAEod5CcUizihmSTIz1ROP/30jPDTyZyL3/zmN246ycm45RQil156qVtHIXL22WfHriNX3v/+9zvBe8IJJ7hjoWUM5L4SQshgpRAklZ9NTc1WXV1je/YeyAT5OTBwPMoD/agK+QkAAAAAAABQPiA/oVjECc0kGfLy04tPib+amppg9+PZtm2bm/a0006LXVZ/o253tXzJx962pTdOPvlkt6x8W29qOk1/7bXXuvm1fglQtQSNm54QQsophSCp/OzsPGrt7R3W1taeCfJzYOB4lAf6rvHqV786eAUAAAAAAAAApQ7yE4pFnNBMkiEtP5OIT4+m//jHPx67vP7GC0h1udtfkopav+5wy1dJWA2Lm36g8tBDD9mvf/3rQY3WGbcthJDKSSFIKj/jQH4ODByP8mD27NnITwAAAAAAAIAyAvkJxSJOaCbJkJWffRGfQvMMtPyMdr2rZ44+88wzvSbKGWec4ZanFqVx6wun2PKzoaHB3vve97r1FSNat7YhbtsIIeWfQoD8LF04HuWB5Oef/dmfBa8AAAAAAAAAoNRBfkKxiBOaSTIk5WdfxadvTTlQXcHmkp9eQuaT8Lz+g0nPEY1bXzjFlp833nijW9eIESOcrB3MaJ1at7YhbtsIIeWfQoD8LF04HuXBU6n3O/ITAAAAAAAAoHxAfkKxiBOaSTLk5KcXn315rqa6o9W8+cjEvqQn+annb/7mN7/pMW984xvtxBNPDOZKo/mUuPWFM2bMmG7rHkz5+cUvftFtf0dHR7D2waOzs9Pe9KY32Re+8IXYbSOElH8KAfKzdOF4lAeSn6961auCVwAAAAAAAABQ6iA/oVjECc0kGVLy04tPdQfbF4477jg3v1oLxi2/v+lJfiq9cc4557j51U2u54477nDDxo0bF7tOHwnd6LqLIT+LBfKTkMpOIUB+li4cj/Lg6aefRn4CAAAAAAAAlBHITygWcUIzSYoqPyUR1eJQUlJd0OokGuj0VXyqZaXmP+2002L3pRDpr/z03fKG91GtWyUVjz/++Nh1+iA/kZ+EVHIKAfKzdOF4lAeSn6985SuDVwAAAAAAAABQ6iA/oVjECc0kKZr8VEtECSedOIrkp5d8hY5koOTltddeG+xeMtSSUtv4vve9z91gjdufQqS/8lNoOh3XcJe+2n8tt6cWq0Ndfv7lX/6l/eM//qNddtllsRk/fvyAtfglhAx8CgHys3TheJQHc+bMQX4CAAAAAAAAlBHITygWcUIzSQZdfuoG5UknneROGD2LUs/RLGUkPiUTJeYWLVoUu0+FSiHkp38uaVj0+hahPbVaHeryU93waV97S2/dB5PBy/Tp02OH9yd33nln3ombn5RuCgHys3TheJQHkp9/+qd/GrwCAAAAAAAAgFIH+QnFIk5oJsmgy0/fva2eTxlunViKDKb4VAohP4Wk8rve9a7gVRrNr33RDeK4dSM/X+Xem9r/uEgq+/fuYLwXSHy2b99ul19+uf3DP/yDTZ48OXaa/sQ/I7e3nHLKKbHzk9JNIUB+li4cj/Jg7ty5yE8AAAAAAACAMkL3xnU/FGCwiROaSTKo8lPP99SJ0tfuZweTwRafSqHkp38+aXg5XurkarmI/HxVr8dYLWi1jZKgcftABj56dq3ek8pAys/HHnssZ17zmtcgP8swhQD5WbpwPMoDyc8/+ZM/CV4BAAAAAAAAQKmD/IRiESc0k2RQ5acXbHR1G59CyU+1qNVyTj755GBIGrUIVeLWjfzsXX4KL5Z1vOL2o1C577773HtQ6ypktMywAJcw8C1aC53TTz89a5/6mwULFrjl/vznP3f/D6T8fPzxx4MS7w7yszxTCJLKz9bURba+vtFqausyqTT5+fzzzwd/FRfkZ3mg7xjITwAAAAAAAIDyAfkJxSJOaCbJoMrP9evXO8Glk0USRgJh0qRJrkVdqVAs8akUSn6KM844wy0rfGy9uNN6outGfuYnP8VgdH/rn4vry75Q0TH++Mc/nlmPRKjWo32Km76vkWQv9Hvn3nvvdct873vf6/5HfpIkKQRJ5WdbW5vVNzRabW1dJpUkPz/72c/aV77yFTvuuOPcsxyLCfKzPKDCBAAAkM3hw4dt7dq17ho5bdo0u+6669xjPgghZLBz00032UMPPWQvvvii7dixw1pbW4NPKgAY6lCXh2IRJzSTZFDlp6IblBJtEjA6aXz0jMozzzzTXWiL9SzQYopPpZDy038oSXh6fItQibXoupGf+ctPvU90XAay+1t/fhQa7WNYfsaVeyHwoj28T/2JJO173vMee+1rX5vJv/zLv9hll13W53O1rq6uWyZMmOC2W8+k6ykSPnHzx62HlEYKQVL5GUe5y8977rnHbr/9dvfZcfPNN7th+l+v1WJ96tSpbthgg/wsD5555pkBubYBAACUC3v37nU/uPz2t79tb3nLW9x10eev/uqv3A89TzzxREIIGfT867/+q73hDW/IfCb9zd/8jZOie/bsCT7BAGCogvyEYhEnNJNk0OVnNLpZevbZZ9v73ve+zAVWUUsSXWR1o2wwUAvJYopPpSf5qW0LfymRKJaE6wnJOc0XxrcIVSvc8LqRn/nLT+Hlnp5jG7c//Q3yMzt+O3Ml17Nse8ojjzwSu6xoXv/618cOj+Y73/lO7HpIaaQQDHX5qRtyyjHHHGP//M//nOnyVv/rtR+vDDbIz/LAy8+jR48GQwAAAIYG9fX19rWvfc1e+cpXOrnwuc99zv7whz+4R3voXgQtrACgVFDdavHixTZy5Ej7h3/4h4wEbW9vD6YAgKEG8hOKRZzQTJKiy89wJOQkMU477TQnwrxUkMBTN5Njx44dsC5y/UksGRu3bYORXPLznHPOcdIqHE0nQdwTvgtP/e/x+ymZFF438rNLfup4h0WzovdftEWyl8tRkVyIID+z05P8VIvQvpSDl5/f//73c+ad73yn+7Lf23Qaj/ws7RSCoSw/1eLzF7/4hftbXSBJcIblp7rA9Xz0ox+12267bVCfB4r8LA+effZZ93mJ/AQAgKHErl277JOf/KS94x3vsAcffNCampqCMQAApY1+uHHDDTfYv/3bv9mXvvQlq66uDsYAwFDC+wSAwSZOaCZJScnPaNQCUy3rvAjyGYgucv1JHPc8zMGKuvDUNuQjoiToNG1P6NhIKErehfHSLrxu5GeX/NT/2hb976PjIAEaxnd/e/zxx8fuU3+C/MxOT/Jz+vTp7v+k5eDlp54dmouw/MzVCl038TUe+VnaKQRDWX6qZYLiicpPdQXt0d9f/vKX3TQ6f1avXh2MGTiQn+WBl5+dnZ3BEAAAgMpGj8ZQL1ef+cxnbHPqOyAAQDmyadMm+9jHPmYf+chHbMuWLcFQABgqID+hWMQJzSQpafkZTa4uctWVa38ppvzUPklG+v3prTtb4eVSb3hJGl6mbxEa7ioU+ZktP/3fHt9dcLgVrfDHt9Dd3yI/s+O385/+6Z+6RV++FY1P0nIb+Tm0UgiQn/nLT39d1q+E1dJhoEF+lgfPPfec+7xEfgIAwFBhzpw57toncQAAUM7U1tbaSSedZB/84AeDIQAwVEB+QrGIE5pJUlbyMxxdcHXSqRVjIVp/Fkt+SkBqvZJSEmv5duubr/zU8jRdWBD7FqHhlnLIz57lp46ZbzEbLiMNP/bYYwve/S3yMzt+O3NFXWLr/aOykASJW0Y0Xn5+/etfz5mw/Iwb76PxyM/STiFAfuYvP/20GqdpBxrkZ3ng5WdHR0cwBAAAoLL53e9+5x4JAABQCeiHHPo+P2PGjGAIAAwFkJ9QLOKEZpKUpfw8/fTT3QlXKPEpiiE//TM+tR9JyVd+CgkvybnwsfItFtW1sLYF+ZktP7XfuXLttde66Tz+vSMhH7dvfQnyMzt+O1/96lfHZtiwYXbuuee6aTRtdH6da9/97nezotZor3zlK7Pyp3/6p92Gvf71r+82LG66d7/73d3W8b//+7/dtoUUJ4VgKMtPPcMT+Qn9Zf78+e5zGvkJAABDBT2C5vLLLw9eAQCUP1/4whfsq1/9avAKAIYCyE8oFnFCM0nKTn4OhPgUxZCfXuj0ZT+8XFJlqrfoGamaNtxlq28Retppp2VtC/IzLYb1d1zUgjauvLxMTtLtak9BfmbHb2e+ibbC9T806C1/93d/Fzs8mve85z2xw6NBfpZOCsFQlp96xjbyE/qLl5/t7e3BEAAAgMpG9XHkJwBUErfffrv7Tl/Ie7IAUNogP6FYxAnNJCkZ+akbl7Nnz3aRQLrsssu6pdBd3YYphvz0+9MXJDKjYq63RAWXhqlFqI498rNLfvYFvR+1/eGuhPuTgZKf2sY3vOENrusl5R3veIdbzy233BJMURgKJT/13tQ2a1lJ8trXvjbrmbZefo4fP949ay4u//iP/5iRn48//njsNMprXvOajPxcvXp17DQHDx5045GfpZNCgPxEfkL/0PtBn43ITwAAGCogPwGgEtF3ej1KCACGBshPKBZxQjNJSkJ+SmzqBMonAyE+RTHk50AJrnxRH/1a/9lnn51pUYv87DtqFVqo4zVQ7w11EavlRlOq8lPxYl7lo+Uquomg460Wt/pbw8J/69mfmsefz2H5mYuo/MxFVH7GgfwsvRSCoSY/H330Ufvxj3/sntMYlZ/hv4XGe1588UXX+logPyGMl59tbW3BEAAAgMoG+QkAlcg73/nOgt9HAoDSBfkJxSJOaCZJ0eWnl24SG2rNqJMpmhUrVgSbNXBoPdqOoSQ/hWSytsFHx8GD/ExGIYXfQL031OpTz7D84Ac/6PL2t7/draeU5adv/anum4VuIGjZ2pf3ve997m+Nf+973+v+lvhUt84apr81f1h+Pvnkk7GJys+4aZSw/Iwb76PxyM/SSSHIJT/V2lct2draek+5yM+rr77ateCcOnWqO7ckO6PCMx907v3zP/9z8GrgQH6WBy+k3vP6bER+AgDAUAH5CQCVyMc+9jHXkAUAhgbemwAMNnFCM0mKKj+9kFALroFC4jSflqJDVX5KEmnffcLHCvmZjEIKP98lsirKhYwEot53fj3qGlbrOfPMM2On72u8oAzvU3/iW3/qBxL6XwJX/yt/8Rd/kfn7T/7kT9z/ei/7aXUs/Y8sesub3/zm2OHRvPWtb40dHs2HPvQh15V39BmkZPBTCOIulkePHrX6+kY7cLDa9uw90GvKRX6qtaYkvtiX2mZ1k90X+fnggw+67sAHGuRneeDlZ2trazAEAACgskF+AkAl8p3vfMe+//3vB68AoNLx3gRgsIkTmklSVPk5ZswYd+IMVGVA4lPPtFT3rr3hT+KhJj97AvmZjELKT0lJHQ8tr9DRM3X9eiQM1F1J3HT9zWmnnZa1T/2JtlPHQ/I23FpZrT/9/+G/vcT3XREXO8jP4qcQxF0sRSW2/Bw7dmyfZGeUyZMn21e/+tXg1cCB/CwPFixY4D4TB1t+1tbWuu+DpHzypS99KSi90uK//uu/YreXlF4+97nPBaUG5cKIESNiy7Lco3qmfqwZN67co3soADA0ufjii+2zn/1s8AoAKh3kJxSLOKGZJEWVn7pZ6butlNSQBFVLxELgxaeWnU/LUuRnd0pNfq5bt84mTpxoV1xxhV155ZX2wAMPuBuahSBOftbX1ztxLgGgdU6YMCHnMx5FIeWnzwc+8AE75phj7J/+6Z9cN7Xazj/7sz+zpqam2OkVf3NZ+fSnP+1koFpE/uIXv4idXvnd737nptd0X/jCFzLzq9VW3PQ+7373u9159q//+q9OSr7uda9zrSLjpu1vfOvPa6+91p2vEpyKykifG/rbDw+jzwINH+z4lqeFlMCk7ykEueRnEspFfurzTzeO77333mBI31CX2j//+c+DVwMH8rM88NenlpaWYMjgoO8KWq+uF6T086tf/aqk5ae+F8ZtNymdDE9dV5Gf5Yfk56c+9anYMiWlF11XVecBgKGJ7/ELAIYGuubr2g8w2MQJzSQpqvxUdMNSLUDDrc90AZ00aVI3iZEvXnxKpmm5/lmBPeFPYuRnF6UiPxcuXJgl5KI577zzrKGhIZi6b4Tlp1qk6MabhsWt7zOf+YzNnz/fTRtmIOTnP/zDPzh5qW372te+ltmGw4cPx06vzJkzJzPdueee6wTlq1/9avcjgLjplUsuucRNr25fdcPIz3/33XfHTu+jrjH//M//3N1g+vKXv+zm0eu4afsbfVb41p/lgG91SqvP0kghGEryU6iLUn1+LF68OBiSnKuuusp+/etfB68GDuRneaDruT4XiyU/ly9fHgyBUqYc5CeUNsjP8sTLTygPdF1FfgIMXZCfAEML5CcUizihmSRFl5/hSDyqlZQEh04oCUw9izDJl+qw+Fy0aJGdffbZblm9tShFfnanFOTn7bff7rZB+fGPf2yPPfaYbdy40V5++WXXClQtGzVOLQ/Xrl0bzJUcLz83b97sWltqmfoiN378eFu5cqVt2rTJHn/8cfvZz36W2R61aApTSPl54YUXuuiZkX59io6RWoH68XHRTUM9E9OfR6985Svd/1/5yldip1e+/e1vu2l817Fvf/vb3f9nnXVW7PQ+//Ef/+GmC+e4447LjI/bt/4k/OzPUkafN9pOWn2WTgrBUJOf4uabb7ZPfOITdvDgwWBIMn7yk5/YlClTglcDB/KzPPDys1DnZL4gP8sL5Cf0F+RneYL8LC90XUV+AgxdkJ8AQwvkJxSLOKGZJCUlP310E1PPPPRyUFFrLz2DrKfWoFHxqWXp+YaaX11l9kSpyk9JlGeeeaZg3QHr+Gl5+bSqLbb8fPjhh936JTaXLFnihqkFkoTo1KlTbffu3W6YJKSme8973uO6auwLkp/HH398Rnxed911bvi+ffts2rRpbp26aSskQyX4NJ3eX55Cyk8vdYsVda0bNzwueoZN3N9qFRq3b/2JPhv0PtHxV3S+60u33s86R/RjCa37lFNOyZwzGq/p9BmiFuVC57tea7hax/r5NV94fg2Pm19dPem1pg2v38/vx9Hqs3RSCIai/BT60ccPfvCD4FUy9AOJVatWBa8GDuRneYD8hHxAfkJ/QX6WJ8jP8kLXVeQnwNAF+QkwtEB+QrGIE5pJUpLyMxzJA7Xe9N3innPOOcEmdsfLOi8+fTTs5JNPDqaKp5TkpySulzjRSK4krWT45Xkh4yN51JNQLrb8VJevb3nLW1xrzF27dtnnP//5rO1X9JB1ceutt7rXPb0/ekLy8x3veIdbhhefqoCH16WoQr5lyxa3PW9729vsb//2b62trc1NX2j5KXl44403Dmr0IwHtR9y4njJq1CgbOXJk5vW///u/F1R+XnbZZXbSSSe5c9u3/lRXvmHZ6uNbvIaj6V772tdmDcs1f3Q65S//8i/tNa95TdYwCWItIzxM8ev/xje+4bbdtz5X997R/SKDl0IwVOXn3r177SMf+Yg7x5OgH7B88pOfDF4NLMjP8uDFF190n4d6bvVggvwsL5Cf0F+Qn+UJ8rO80HUV+QkwdEF+AgwtkJ9QLOKEZpKUvPwMp7fnd+aSdZKMarnVE6UiP/UFQsN6i2RmPkhuxs0fjo6NBGmUYsrPO++8063bi0jfvaqe7/n000/b9OnT3U0NDbvooovcNJ/97Gfdaz0PMymSn+oeVq0/hRefqoCrdaeeo6mbcRr2b//2b9bR0WG33Xabey3xKiqp5WchUij5qR9AhJf70Y9+NOu1IjkZHSYxGTc8TnhquqjI1LNL4+Z/3ete121Y3HTqQvjYY4/NvNbnV9z+kcFJIRiq8lM8+eST7py+6667giG9ox+s6LN8MEB+lgfIT8gH5Cf0F+RneTIY8nPf1FMz383jMird0c+A4rbh61NsX/C6OwtslN+mKxbYgivS/4ve5x08tH3IT4ChC/ITYGiB/IRiESc0k6Ss5KdaTulEU5eTceSSdX6+nr6cl4L8VKtFvfbPaPzCF75g119/vWs9o+421e2gH6f0JkCjrUe//vWvO2Gn5alb4W9+85tu+J/8yZ+4/6PPUSym/PzWt77ltquxsdEJUG1HXNfFOkYat2PHDneM9Pf9998fjM0ff1wlMg8cOOD+1nPuouj5dxrnb3ypNaBvVVxI+amufCshcfvWl/iW3+UctViN2zcyOCkEQ1l+Cn3u6dnB+VBVVeVa7w8WyM/yQK339Xmoa/tggvwsL5Cf0F+Qn+XJoMnPIsvD3rahp/HITwAoFZCfAEML5CcUizihmSRlJT91c1MnWq4ubCXrJBSj8/mbbZJTuSi2/PTr/9M//VN785vfbA899JAbrhaZauXoKxbqclWVQk2r5BLBXsQp//Iv/2IvvPCCG67nbWl5Cxakfz2qVhj/9E//5OSf5GO4C9zBlp+SnYcOHXLrft/73mfvfe973d+62S7JGIf2X9uo1khr1651f6sL1iRonf5YLVu2zMlT/a3nisahrnjVylR88IMftH/8x390f7///e93xzBu/0j/otaf/nzx0XvEdynrI0kqyRiVpRoWnV+vc83vu671yTX/aaedljVM8+Vaf9x+kcFLIRjq8nPmzJl5y8/nn38+8zk5GCA/ywPkJ+QD8hP6C/KzPEF+pgm39IyC/ASAUgH5CTC0QH5CsYgTmklSVvJT0XP/dLLFPacyl/xUJCU0PhfFlJ8SnOrOV88Q1OtnnnnGtm7d2u0Zl+pCU7Lv6NGj9oEPfMCJUnVZGz0W27Ztc8MlDN/61rc6YSrJ+Z//+Z9Zy9NzGSVF1WpS3RlqmJ4p6hlM+Xn33Xe7dal1quTs29/+dtfVrVAXsP/3//5f93cUHSvNpxat2u/wMvKNptd8ypo1azJd7j7xxBPBWrJRWf33f/+3+/tjH/uY/Z//83/ccdM8kmlx+0cKEwkOnaOSoeHhGhZ91q9eR89nzZd0fq3TD4ub32+T4ocpflh4flK8FIKhLj+FrhX6AVJv0WekugwfLIp1PCAZixcvdtfKhoaGYMjggPwsL5Cf0F+Qn+VJycjPXVPs1NQ1I0tALhzlriNd3eKGuqZ1GZUaEiKY3ufUqV1rzL0N+2zK18PLPNWm7MqWoXHzuvGReQYDrQ/5CTB0QX4CDC2Qn1As4oRmkpSd/NTNVJ1scV2g9iQ/fQutOGkqiiE/o63OFN3w0fMk1YpQr9UVroSnuu7927/9WzdMwm/27NlZ8+XKTTfdZNu3b3cyVM8wVKVSrUrVMlRy9PWvf72To/75lYokovDyU8/BjEYSevz48bH71decemqqMhdsg6IWluKCCy5wr5999ln3OsyFF17oxkniquzC8yeJjoP+17FR60/9/ctf/jJYSxe+1covfvEL9/pv/uZvMsvQMUF0EVKaKQTIzzRq1dlb9uzZE0w9OCA/ywPkJ+QD8hP6C/KzPCmplp9ZsjMtOrsEZiA+Q3LUCchguW4dWTI0e/7etiHa8jO3/AxkaTdJOzgCVMcH+QkwdEF+AgwtkJ9QLOKEZpKUnfxU1KWkWt9FkeDLJT/1jEudpLm6iS2G/FS0XeoS07doVdetes6n/tbzJcOsW7fOCUs951K85z3vcS0kNX80apGolqTt7e2ZZ4k+9thjbj7Pk08+6YZLwgrJUb32x0jzSYDGxXcLqu2P26++Rvt47733Zp5HqvJQa0z9re5558+f77ZNSOxq+Cc/+Un3WkJSryWKtYx8o3WqBajm1XNVhX+WaFiyq8vgf/u3f3PDJUife+459/e3v/3tbi0JCSGllUKQVH62tbVZfUOj1dTWZVIJ8rMU4XiUB0uWLHHXzfr6+mDI4ID8LC+Qn9BfkJ/lyaDJz9T1IDZxLSq/PspGSTCGxznBGGnpmSEtJLtaiAaE5imY/HQtVLtvR3T+gULHDPkJMHRBfgIMLZCfUCzihGaSlKX89C0m1V1sGA3LJT8lpzReQi+OYslPH3W9KqEo1IVqrm5ev/vd77rtlNSUIJSwjFueusU97rjj3Dx65ueHPvQh93eUj370o5lnVqobXC27p2ejhlHrVAnnuPX3N154erF5xx13uNeKWlu+4Q1vcH/ruaBqubpy5crM9HHLyyd67qiWoZYpu3btct3u6vXrXvc6J5n1t6JWssJPr5upccsjhJROCkFS+dmausjW1yM/BwOOR3mA/IR8QH5Cf0F+liel98xP37VtdkvKnpcR7Q43nALLz0jXullBfgLAAIP8BBhaID+hWMQJzSQpS/npReYZZ5wRbG4aDVMLyrh5lPe9732xLUZFseWnhOcxxxzjtkWV9Vzb+dOf/tRtp7qMO/30091zP+OWpxaKukEjtKxPfOIT7u8on/nMZ5zYE3pGW9xxzYUkqaaPW38hohsXWv5ZZ53l1vfyyy/bueee675gSTxeddVV7vmnO3fudKJX0z799NOxy8onalWqZahF7ebNm9061fJTN+DU2lXd4Hrhft5557lp9X/csgghpZVCkFR+xoH8HBg4HuXB0qVL3bWzrq4uGDI4ID/LC+Qn9BfkZ3lScvLTP/szlXBLzh6XEczTreVniELJT/d3zhaoA4+OC/ITYOiC/AQYWiA/oVjECc0kKUv5qaiFp1od+md4+paB6vI0bnrFtxj1z7QM4+cvlvz021ZVVWWXXHKJ+zvuGZfq+lUSV0hWvvvd745dnuTgW9/6VjfdN77xDXv1q19tu3fvdq89ulmsbnT1rE3x13/91269Z555pnuuaE/RszF1/NUFcdz6CxXf/e2nP/1pe+qpp9x2etT6VV0Dq5WsplF3wXHLSBL/7NO/+qu/cstraWkJ1pZGH/af//zn3TT/8z//E7sMQkjppRAgP0sXjkd5gPyEfEB+Qn9BfpYnpSU/g+dppqZdEJWMPXZ7G30+aHcKJT8H8/mecei6ivwEGLogPwGGFshPKBZxQjNJylZ++md4SlqqNZ5EnLqN1Q3QuOmV++67LzNPFP9czJ7mH8hMmzbNrf/GG2+0jRs3ur///u//3h599FG3feoGVrJNw8ePH++6etXf3//+92OXN3r0aDf+8ccfd60h9fdHPvIRe/75593yFixYkGnpKeE7e/Zs93eS6HgvWrQodv2FzMUXX5xZpwStuvBVt74Suhr2jne8w+65557YefsSPf/z7/7u79yyX/nKV7pWpR/+8IftbW97W2Y7Lrjggth5CSGlmUKA/CxdOB7lgZ6XrWvokSNHgiGDA/KzvEB+Qn9BfpYnpSQ/s1tVBiI0IyRjBGf0mZ4RKekEZrDegslPv11Zy+pdvhYKXVeRnwBDF+QnwNAC+QnFIk5oJknZyk/d6JR8k/T04rM3Ead5dKKefPLJwW52oW5NB7oVY29R97THHnusaxFx//3326te9Sq3vRJw+l+RCBTq8lavc3XzunXrVjf+Yx/7mJv+hhtuyCzDL1cZO3asG68vLXqtVqeXXnppXlH3w3HrHoioy9vLLrvMbaeksJ5j+v/ZexO4SYrCft94cBlR4xGNinhhjAoEYzQYAa9EQ2BhlagRhJjDAwwakp+JIUHX1UTRwF+jCBjxYNF4gQdEiSDIsssl13It97LAhmNZll32YI/6z7e6a6a6p2pm+n27Z7p7nufz+e6+00d1dU91z7z1vNWtWwWfcMIJ5uGHHw6uM9tIsGtUrLYlGbrXXnvZ43PllVcGlyeE1DdlgPysLxyPZoD8hFFAfsJsQX42k7HJz/T34FCsNEyfpZm5dW16O9ueVMw/2zM7ErRvO56gLE9+ilSAetsah/gU2hbyE2B6QX4CTBfIT5gUIaFZJI2Vn4pkp57xqVvgjjoC0d0u18edwIOeFzqOfOMb37D10HM4dTvf5cuXm8985jPmL//yL630dKM23bMw//qv/zpYjssnP/lJu5xEqbjmmmvMxz/+cfOe97zHflG5+uqr7XSNHtVymhcqhxBCmp4yQH7WF45HM5B81PcNychxgvxsFshPmC3Iz2YyDvkJ5aHPVeQnwPSC/ASYLpCfMClCQrNIGi0/ZxKNWNTJqlvlCklGjbjUyNFxjmSMRQJS9XvWs55lPvvZz5qbb77Z1vP++++3t8Z1IzRHFbXvf//77fIve9nL7EhG99zPu+66y94+d7fddrPzh4lUQghpcsoA+VlfOB7NAPkJo4D8hNmC/GwmyM9moc9V5CfA9IL8BJgukJ8wKUJCs0imTn5qhKhO1mOOOcbu6GGHHWZfSwyGlp9ENALUPXMyFN16NbReLMcdd5x58pOfHCxL0leSNbQeIYS0JWWA/KwvHI9moD8803cP/eHZOEF+NgvkJ8wW5GczQX42C32uIj8BphfkJ8B0gfyESRESmkUydfJT0bM9detbPTNSJ+7BBx8cXG7S+d73vmc7gN797nebD3zgA+bLX/6yvRVuaNlh0fO1JFWPPPJIextc/f/1r3/ddkCGlieEkDalDJCf9YXj0QyQnzAKyE+YLcjPZoL8bBbIT4DpBvkJMF0gP2FShIRmkUyl/NToTwlQnbRHHHFEcBlCCCHtSRkgP+sLx6MZXNlp98hPGAbyE2YL8rOZID+bBfITYLpBfgJMF8hPmBQhoVkkUyk/CSGETFfKAPlZXzgezcDJzwceeCCdMh6Qn80C+QmzBfnZTJCfzQL5CTDdID8BpgvkJ0yKkNAsEuQnIYSQ1qcMisrPLVu2mk2bNptHHtnUDfKzGjgezeCqq65CfsJQkJ8wW5CfzQT52SyQnwDTDfITYLpAfsKkCAnNIkF+EkIIaX3KoKj8XLduvbn//lXmrrvv6Qb5WQ0cj2bg5OfKlSvTKeNhRvJz8Xy7TixzT1uRLlghyxeYuY+aaxYsT18HWDTP1Wm++fFpc82jDlpgbM1GWHcwi8x8levK85lB2arnqMesPfJzhVlwUK/N9Gd+5yhXzwq/XQRJ32tl3kn25/mLkznD1x2MXd8rz8e23XnDj4Arw2WUdoT8bCbIz2ah8xH5CTC9ID8BpgvkJ0yKkNAsEuQnIYSQ1qcMisrPLVu2pCM/H+kG+VkNHI9mcPXVV9tfmJojP8cjp6IMk4yD5pclPzvpE1cFy3aCdlrl51hE+QCGCcxB88uSn6EyRpGfyfr+eZi0y2HHFPnZTJCfzULnNvITYHpBfgJMF8hPmBQhoVkkyE9CCCGtTxkUlZ8hkJ/VwPFoBk5+3n///emU8dBa+TmojiXKz75tZMr2l8uLUjdvrplbQAIiP8tlmMAcJCFLk5+d5I+Dv11/ud72wsdvlDohP5sJ8rNZ6HxFfgJML8hPgOkC+QmTIiQ0iwT5SQghpPUpA+RnfeF4NIMlS5bYX5jaIz9TueeLGCsGfWGTv/VpTkimy3fn+xJqgMDMyKJOtL2MFAqtm7uV72Apl+zb/MXpPkbqlRFnuWNm62PnFZOA0yY/3Xvpi+NktKzX/nLvXeb96JAs75J93+OyMNQ23fueLtG3bn6dweeIW3+R3cdsvbptJ9NWhx+z+P70QH42k9HlZ6jtpnNsW/PnJcm0qUHX3e61L31pGXZepO3Zn5bfhhLYTma+jTunQvXwCF3j89OG1iF/HJOMeq3WsshPgOkF+QkwXSA/YVKEhGaRID8JIYS0PmWA/KwvHI9m4OTnfffdl04ZD5WO/Ew7l5PO4rQjudu5nL72OsSTjvm0XLsNv/M6t36oc9snJBvdtnLrZrZrSTrW453cXsd7Kt66nfDdsvOd87HO+mS/Ru1Qn8aRnxnZmW8X+eOfee/yba5Dbv2QqPHpSsjkVeY9zK7rbzehv11l6a3ffy647ebrN7i+gf0NIPn5qle9ynbStDGLFy82N3e+S6xevTrd43Ywmvzsb0t+O+xvP7nzMH9+9bWp0HVs0HnRIT1He9MCZUTO4/5l3PkUqodH6PMhM214HfqEbf5YDUFlHXfcccE26ufHP/5xcHosl112mbn99tl/5waAakF+AkwX+ozWZz/AuAkJzSJBfhJCCGl9ygD5WV84Hs3gmmuusb8wNUd+PiqSrOxxHe/zfYElhshLdTz3dTL76wxZP9tRnuuQz6ybdGj3daLn1s+S7TjPdJJ3y853rsc664t1qLdNfobbUP54JMdu7rz5nWObnZeVkznse9H/Hvrr9MugLNnys+9hZl21l75yBr+3/W0y16Y6283Xb1B97TrRNttD8nPbbbftO+ZtzBOf+ESz1157maOOOspceuml6RFoJiPJzyHXxf72k22jakN97TVTZug6NuC8sOXP7Vz/4+02IV9uYDuZa3KoHh6h4zDk2OTL7D8Wxa7VofZYdp75zGeat7zlLeaYY44xy5dHdwwAJgDyE2C6QH7CpAgJzSJBfhJCCGl9ygD5WV84Hs3Ayc977703nTIeqn/mZ09yxTuy8/TW6U/aeT2sIztXfr9oynbmh7cVq1+u492Wl3aKe2VnxFl0f4t1qE/tMz/t8esczwHipg+3Tigly0/7c34baWL1y2/bl5fd7Wbaanx/k3UHnA8e03Db21tvvdWOAP3qV79qjjjiCPOCF7zAvhd77rmnHTnXREaSnwOvq6H27rep5Od8+02SvV5mpePg80Jl929X9G+vV25gO5l9S+b762baf3pNzs7PLWMZUIe+Yxk//0KoLHWE5rntttvMYYcdZuc/4QlPMKtWrUrnjIY+s5cuXWrOP/98c/zxx5uDDz7YPPWpT7Xlvf3tb+c7H0BNQH4CTBfIT5gUIaFZJMhPQgghrU8ZID/rC8ejGVx77bX2F6b2yc9eJ3Wm03hgGck6AzuZM1IoQK78TOe7v27aSZ7tzB9Gf8e8LV9lLu6XVdr3uJgq1qE+rfIzOb46jqPLiGSdwe00LGV6jCo/7XIDygnRv+30XOlsL7Nd25a1735dehQRn2Jan/n57W9/27zoRS+yx/Gb3/xmOrU5VC8/R7ju5s6BhMh5Ya+tSV2y203buRI5t4Lbyexb/3y7DTc/9PmQmTZKHYS3XJpRr1la1pefvvTcbrvt7P8asVkG69atM//xH/9hnvzkJ9vRoJdcckk6BwAmBfITYLpAfsKkCAnNIkF+EkIIaX3KAPlZXzgezcDJz3vuuSedMh6qlp+JmOksa9fxOqNDndNdUmkYED1dBq7fIVfHTOd7oBN81A7thFAneVrnzvQiIsqtN+r2p1J+2vdLyy7qaxdZOZkj3+YC9MugLNnys++7v25GvIxIcNu2zmk7GtT+U7rnV/p6FKZVfgpJor/4i7+wx/cnP/lJOrUZVH/b2xGuu8FrX/i8WNBpm6FzJfj5kZ7jvXID28msF5jv73voOPjTRqpDen51j1exa7XamDpCQ9JTefzjH1941Ocw7rzzTnsd1ojSO+64I50KAJMA+QkwXSA/YVKEhGaRID8JIYS0PmUwjfJz4cKFpaRqkJ/N4LrrrrO/MLVKftrleh3QoY7kTEd7X+d0tiM6I5hCnds+uTpmOt9z6yblZsvK1jVPSAB0SDvPk7LS/bOvXUL1LdahPn3yM9dO8oIi18ZET1im62bex+S9c9vNtIsAvbLsq6DkSdZN5vW350A7SYlt227TlZWeB5mk20ja7QjnYY5plp8OySiNklvR+d7RFEaSn67N97XD5Bzpb3O583DYdTd3DiQEzguvnYrMdvvO2fTcyZSrabnrZeaa3l+PTD1z13iLP22UOvQtM+o1K0FlvfnNb7b/+9JT2Wabbcyhhx5qO0rLzs9+9jOz8847m5e85CXmnHPOCS5TRvT9VbffXblyZbrHAOCD/ASYLvTZqM94gHETEppFgvwkhBDS+pTBtMlPdfo85SlPKSVVC1DkZzNw8nPc79fM5WevI7cv6vROxU+2ozjtYO52iqcd9d11Q53d/nxP9IQ6t30yHeW5zvfAut0Oe5eAlOrR3/HuSMTVgHr1UaxDvW3yM3PMM0mOYXI8vfe9Q/Jeecc430588RPYjn+sM+0iwOjyU/QEikuojTii207Pnex+5OnfVi/Z45UH+WnMww8/bF74whfaUaBNYTT5KeLX1f42F7j+DLruDmx3yXaS8zNwznrbTZbprTt/cVrnTpvvzsufG5lreqge3jUh9PmQmzaoDuFzMHCsIlxxxRWZstueHXbYwbzqVa8yH/zgB81Pf/rT9CgATDfIT4DpAvkJkyIkNIsE+UkIIaT1KYNpk58aLaJO/kHZf//9bULz/FQ98gT52Qyuv/56+wtTI+QnTIz2yE+YFMjPhO985zvmsY99rLnrrrvSKfVmdPk5AUKyccrR56pGd+r2tvmRn2p3mlclH/rQh+wI0C1btqRTyke31r300kvtuXTUUUeZ3Xff3e7fS1/6UnPmmWemSwFMJ8hPgOkC+QmTIiQ0iwT5SQghpPUpg6Ly85FHHjFr1z5sHnzwoW7a9sxPJz8nDfKzGTj5Oe7bMCI/mwXyE2YL8jNBUmiXXXYxn/nMZ9Ip9Qb52Sz0uaqOUD3X85hjjglKUD0PtCok9XV73XE8XsHn7LPPtp8F2r9PfOIT6VSA6QP5CTBdID9hUoSEZpEgPwkhhLQ+ZVBUfm7sfMiuWfOwWfXgQ90gP6sB+dkMbrjhBvsLE/ITBoH8hNmC/Ozxz//8z2a//fZLX9Ub5Gez0OeqOkIdIQla9ejP173udebf/u3f0lfjQ39YoH199KMfbY499th0KsB0gfwEmC6QnzApQkKzSKLyU39JRwghhLQhZVBUfoZAflYD8rMZOPl59913p1PGA/KzWSA/YbYgP3t8//vfN094whPSV/Wm1vIT+sjLT4cvQbVMlaM/dSvat7zlLemr8SPxqlv88v0CphHkJ8B0gfyESRESmkUSlZ/6azZCCCGkDSkD5Gc/yE8owtKlS5GfMBTkJ8wW5GePK664wl7/7r333nRKfUF+Ngu1q5D8dDgJeuSRR6ZTyueLX/yieeELX5i+mgxvfOMbzatf/er0FcD0gPwEmC6QnzApQkKzSJCfhBBCWp8yQH72g/yEIjj5WdZo7FFBfjYL5CfMFuRnj9tvv91e/27ufPeoO8jPZjFMfjokQavitNNOM09/+tPTV5NhyZIlIx8LgDaB/ASYLpCfMClCQrNIkJ+EEEJanzJAfvaD/IQi3HjjjfYXJuQnDAL5CbMF+dlj9erV9vqnEaB1B/nZLOog/P7nf/7HbL/99umryaHPrL/8y79MXwFMB8hPgOkC+QmTIiQ0iwT5SQghpPUpA+RnP8hPKIKTn3feeWc6ZTwgP5sF8hNmC/KzxyOPPGKvfwsXLkyn1Jcq5OeK0+aaRx20wKxIXzeLFWbBQY/qvH/zzaJ0So9FZn7nfZ2/OH05gEXzVEaaEo+Fypu0/DzvvPNsPbZu3ZpOmQzf+MY3zC677JK+ApgOkJ8A0wXyEyZFSGgWCfKTEEJI61MGyM9+kJ9QhJtuusn+woT8hEEgP2G2ID97ID/bID8fZeaelt+D0eSnFZ/e/tvX8/pV6kxQvZCfCddcc42tx/33359OAWg/yE+A6QL5CZMiJDSLBPlJCCGk9SkD5Gc/yE8ogpOfy5cvT6eMB+Rns0B+wmxBfvZAfrZDfj7qUXPNgsxHpy8//eV8UaplcustX2DmBkeSFkfbQn4mrFu3ztbjggsuSKcAtB/kJ8B0gfyESRESmkWC/CSEENL6lAHysx/kJxTh5k7b1y9MyE8YBPITZgvys8f0yc9ECmqfJQznz0vk5wLv1q99oyWtEOzNz4yMtPPmmgWnze/NzwhFt71+oehuN+tvL3ML2r6y8iRSc+5pixK5mZG4PfmZEbyuvrEyh80vgOqP/Oyx3XbbmTPPPDN9BdB+kJ8A0wXyEyZFSGgWCfKTEEJI61MGyM9+kJ9QBCc/77jjjnTKeEB+NgvkJ8wW5GeP6ZKf6QjIrrzsidDuaMjFkpie/LOvfUGZruPK6IrRnty0srH7Oll+7kFzc1K1t203vX8Ualrf6MhUJz87c9N6ZEd1qmxvGUv+tU/++MwO7Rvys8cznvEM8+1vfzt9BdB+kJ8A0wXyEyZFSGgWCfKTEEJI61MGyM9+kJ9QhFtuucX+woT8hEEgP2G2ID97TJX8DIxqTEZaZkdlapqTg8FnYFohmq6TSses2PQFYyohT+ss55VjRee8+amgTCcGGHxb3qzIDEnXUeVnb8RpOaM+hcpDfvZ43vOeZ/7rv/4rfQXQfpCfANMF8hMmRUhoFgnykxBCSOtTBkXl55YtW82mzZvNI5s2dYP8rAbkZzNw8nPZsmXplPGA/GwWyE+YLcjPHlMlP31pmRKSi4mY1FJhUZiIxVQSRm4T25OmvoR0y7mf3TxN80hHm3Yzovx028puN7ePkfp2CcrcmaG6Iz97ID9h2kB+AkwXyE+YFCGhWSTIT0IIIa1PGRSVn+vWrTf337/K3H33Pd0gP6sB+dkMkJ8wCshPmC3Izx7IzxnIT18gjiw/k3JtWVrHbjMrP+12O6/90Zeh+vUI1K97m95s2b2RncPFZnC06wzQtpCfPZCfMG0gPwGmC+QnTIqQ0CwS5CchhJDWpwyKyk9td9OmTWZj58PWBflZDcjPZnDrrbfaX5huv73YuTRbkJ/NAvkJswX52WPab3ubCEdfiGaFYlAEzuS2t5qfSs9FToJm5GdYtNrtF5GfHUYWnUPF7ezQ9pGfPZCfMG0gPwGmC+QnTIqQ0CwS5CchhJDWpwyKys8QyM9qQH42A+QnjALyE2YL8rPHVMnPVBb2xF4iH7X/XYFoxaYnBLsjKdPXbh1XRio/fYGaFar9grNXfmCeJx27I0ELyk9/v1S2L0NdMtv0y8/v/yzQdpCfPZCfMG0gPwGmC+QnTIqQ0CwS5CchhJDWpwyQn/389Kc/tZk0yM9mcNttt9lfmPT/OEF+NgvkJ8wW5GeP6ZKfwglIZa6ZPy+5reyCQaMlu4IzjT8q0o2ePC2RpEn8kaS+4EyFZlc2Zuf50tJGyw2UkTH5mW4nU3YM/3go5YhPofKQnz2QnzBtID8BpgvkJ0yKkNAsEuTnFOXau+8y377sEnPcuf9rPvvzn7Um2h/tl/YvtN+EEFIGMfmpW9uuW7fOrFmzpi/r1683mzdvTpdsn/ysCxyPZoD8hFFAfsJsQX72mD75mSUrI2dA5NaxgPzMg/yEaQP5CTBdID9hUoSEZpHUSH4uNJ/onESfuDA0b1DuMqe+zf0l4yfMwuAyk89dCw709i2p84ELxifrfrH0hqA4bFu0n6H9J4RMd8og9GGpsu+9915z6aWXmnPPPdecc8453ej1kiVLzKpVq9KlkZ9VwfFoBrrdrb6v6fa34wT52SyQnzBbkJ89kJ/Iz6pQu0J+9kB+wrSB/ASYLpCfMClCQrNIGi8/JRXrLD1tlp1qDpzBvpUVjYgMicK2hhGghJB8yiD/YakRnatXrzZXXXWVlTn33XeflSwu99xzj1m6dKmNRoaqYwb5WQ0cj2aA/IRRQH7CbEF+9kB+Ij+rQu0K+dkD+QnTBvITYLpAfsKkCAnNIilNfj788MNm5cqVQ7Nhw4bg+sjP6qJbwoYkYVuj/Q0dB0LI9KYM8h+Wut2tPtcuueQSc+edd9rPNx8Jz5tuusmO/tQtcJGf1cHxaAbLli2zvzDdcsst6ZTxgPxsFshPmC3Izx7TLj+hOtSukJ89kJ8wbSA/AaYL5CdMipDQLJLS5Kc6f7/yla8Mzc033xxcv19+ulvDLvRua9vJ2041d6XrLPy4N72T3m1kk7J683Jy9MJP2HJOdevbMt32c+t+fGFfeX0SM5Wb3XX8ZbQtf54tL3zb2/z+ZLczqH7+cv0Z/IzPO83K9E1feXdofi/nPbCps9Qms+zG8Py6RPsbOg6EkOlNGeQ/LFWupOZ1111nbrzxRnPHHXeYu+66qxuNcrvhhhus6JEYRX5WB8ejGUxafn72s58lDUgT5Geo3qQ+QX72aKL8DL2npH5Ru0J+9kB+wrSB/ASYLpCfMClCQrNISpOfuvXfZZddZk488cRgTj75ZDsCRiNEQ+vH5KdOrO60VDL60rBv5KcTkZ4UTKSit4wTkhlx6KTigebUZcm0pOzQtN7r0KjO4cvk5afb1/469tbpr1//MuGEBGE3d69N3/IOa+8ML5OmKfJTCR0HQsj0pgxCH5YqW6M/NbrzoosuMosXL+5GryVF9fnoQH5WA8ejGegPBPS9RX8IN04kP1/xildUnp133jk4varssssu5glPeEJwXtNTZ/kZqm+To3b08pe/PDivyUF+JjRNfobey6ZH59juu+8enNf0ID97ID9h2kB+AkwXyE+YFCGhufbhdeb/7rnX3LF8ubnt9mX2f73W9PyypclPZdWqVebSSy+1otMXn6eddpodGbN+/frgekki8jM3stGKTG/0Z15+5ucnScruykYrDT2J6C2T2V5AtuZFpt1+fnt52TlMfgbrk9+X3D7YhI9RPiE56HK1dZ9rzcr0/6uD88WmzjKe/EylaXe06I0rzYbO6w0PLLWvE1Hq8ISpW++BZHnh1kmy1CzzV/WFrC9qA3X1EzoOhJDpTRmEPiyFOlyU0HbznTHIz2rgeDSDScnPcXDbbbfZfRtnRzC/gEIZvOY1rzGHHnpo+graRpPkZ1t51ateZY455pj0FZQJ8hNgciA/AaYLfveESZGXmaseXG2FZyya7y9fqvxU1q5day644ALzjW98w4rP73znO+aKK64ILptNWH5mZd8w+RmXgZn1rGz0RlnahORivk6d9InMXpK6dLaTZlT5mRe43WSkaKAus5af6S1vJRjzMlNJpyVy0klJJzKTdbOyM51nRaiTk+k2Nq0053llOqnp5KsTmfZ1bllbp4xcTevilgskdBwIIdObMgh9WKrsBx54wP6Bj/74R7eAd9FrSZ6HHnooXRr5WRUcj2awfPly+/1IdwJpG5JH2rc//MM/TKdUD7+AwmxxbUiRwIf2gfycLO4c22GHHewfikO5ID8BJgfyE2C64HdPmBS+yNTIzpDwzMcfAVq6/HTRF9HTTz99RPGplCc/8+v0rVem/Exf6wKg2OmRZWL7Fhw9qlQtPzPC0xOh6fy8mMzf9rYnKsMyMjP6Myc0g9I0J1T95LedvI6P/gwdB0LI9KYM8h+WKld/8HP99debpUuX2o5jjWxz0XMNNU//P/TQGvPg6oeQnxXB8WgGbZWfbtSni34xHAf8AgqzRaM+H/vYx5rtttuO0Z8tBfk5WTTqU8df5xmjP8sH+QkwOZCfANMFv3vCpPDlp25tG5Kd+Wi5yuVn8ZQnP6MjP930EuVnvj6hZUaSn9GRn256+fIzOOpywOu8gExEZuf13dlb3nZHd4bEaEa45srM3TrXT1KXPF5dcgkdB0LI9KYM8h+WmzZtss/71CjPO++802zYoCtYj3Xr1lnJc9VVV5n7719pHli1GvlZERyPZqDzRL8w6Vm4bULSSPJI+7bNNtuMbfQnv4DCbHDtxw+jP9sH8nNy5M8xRn+WD/ITYHIgPwGmC373hEnhy0/3jM9h0XItlZ8RGZkXm6XJz3Adkzp56w2Rn9kRnr1k96Vk+ZmKxhBOPibCMT/a0heO6UjNTdnpWWlaQH4GRp+69G97cELHgRAyvSmD/Ifl5s2bzYMPPmjvcHD77bfb29+uWbOmm/vvv99KHo3+fPjhh23HDPKzGjgezaCN8jM/6tNFvxxWDb+Awmxwoz5dm2X0ZztBfk4ON+rThdGf5YP8BJgcyE+A6YLfPWFS+PIzJDpjaa38dKLRF4J2HX+Zskd+hrbvlzVMfjqJ2VdHf51y5WciE3PP+Iw8nzORoflnfibpjsh063SSEZWZUaC912H5mROn/khQnvlJCJlFyiD0YSkBes8999jRn+eee64555xzutHrq6++2o4OdSA/q4Hj0Qzuuusu+91Gt4luC/6oT5dxjf7kF1CYKa7thMLoz3aB/JwMsXOM0Z/lgvwEmBzIT4Dpgt89YVIgP4O3jE3K6v6ikR8JWqL87IlLF43gTLffJ2A7sXUZsG+ZcnrzypWfTmT2bmnrEh7tmUxbuTYrKm0ygtRNTyWqZZPZ4G9riPzs1S3FHwXqRKqlv+5+QseBEDK9KYPQh6U6W9SxqJGeGgWaj0Z86va4DuRnNXA8mkHb5Gds1KeLfkGskssuu8xuR9cagCLkR326MPqzfSA/J0N+1KcLoz/LBfkJMDmQnwDTBfITJkWL5CepKsed+79BQdjWaH9Dx4EQMr0JISmpv76XOJOU0f967ctKn9CHpcrWyM9bbrnF3HDDDfZ/vdZ0jQrVrXBVrp4Hym1vq4Pj0Qzuvvtu+wuTzpU2IEmkUZ7aJ/3/mMc8xv6sqIN7HKM/t99+e/PjH/84fQUwHH9EWv62t+5nRn+2B+Tn+MmfY+48c/8z+rM8kJ8AkwP5CTBdID9hUiA/ydB8+7JLgpKwrdH+ho4DIWR6k2fdunVWeMai+XnyH5bqaNFy1157rbnqqqvMkiVLzDXXXGOf8annfWrU57Jly8x1111nR4YiP6uD49EM2iQ//VGfz3rWs8wpp5xifz7uuOMyI36qHv251157mX/4h39IXwEMR6M+XfuUwN93333Nu971LvuzPx3aAfJz/LjPAP1xikZ5/sEf/IH58Ic/bN75znd2zzFGf5YD8hNgciA/AaYL5CdMCuQnGZpr774rKAnbGu1v6DgQQqY3PhrZGRKe+eRHgOY/LDVfIzsvv/xyc++999rXa9euNTfddJMVohJyt956K/JzDHA8msGKTvvXL0z6A4GmIzn0nOc8x0pPh/bNyU79L8lUdafQ3/3d35mXvOQl5le/+lU6BSCO67RQ+3WjO//sz/7MvO9977M/a5qToIz+bAfIz/Gic+wJT3iClZtudOdrX/ta8/GPf9z+rPNKEnTHHXdk9GcJID8BJgfyE2C6QH7CpEB+kpHyi6U3BEVh26L9DO0/IWS646POppDszCffKTWK/BQbN260I9uuvvpqOw/5WT0cj2bQFvmpa4MvPYWmad+uuOKKdEqCfkmsuoP7oIMOMr/5m79p/ud//iedAhBG7TYvNX356dAyp59+evoKmgzyc7yErvm+/HToHMt/XkBxkJ8AkwP5CTBdID9hUiA/ycjRiEjdErZtzwDV/mi/GPFJCInFR6IsJDvzyQu1/IelOlr0LE/JTd32VutIgGq6boer539eeumldh7ys1o4Hs1A75N+YdI50zaOPPJIs9tuu6Wvxo8E6OMe9zhz+OGHmx/96EfpVIDhhOQntAfk5+QJyU8oB+QnwORAfgJMF8hPmBTIT0IIIWRIfPKSc1B8Qh+WKlujPyV1Vq9endnWQw89ZKdrVKg6H5Gf1cHxaAZtk58aufO1r33N7L777ua5z32u/YVwkuh5o+qE0jF+xjOeYd7//vebL3zhC+Z73/ueWbRoka2vRqYD+CA/2w3yc/IgP6sD+QkwOZCfANMF8hMmBfKTEEIIGRKfkOSMxSf0YVkU5Gc1cDyawT333GN/YdIzcctGtxlUJ6giIakOmSqiTh4nGBWN9tSz3eqEbqV41FFHmVe+8pVmp512Mtttt123vqSXbbbZxjz5yU82z372s82LX/xis8cee1hJ8Zd/+Zfmc5/7nDnrrLPM7bfP/rpfd5Cf7Qb5OXmQn9WB/ASYHO57MQBMB8hPmBTIT0IIIWRIfEKSMxafovJzy5atZvPmzfZWuC7Iz2rgeDSDMuWnZKck5wEHHGCe9KQn2XL9aCTm3nvvXVrmzJljJaeiEZaTHuVZFI1Mv+mmm8yFneuO6k7C0XNTv/jFL5oPf/jD5sADDzTPfOYzzR/90R+ZL33pS+bmzrW7jSA/2w3yc/IgP6sD+QkwOZCfANOFflfSZy7AuEF+EkIIIUPiE5KcsfgUlZ/r1m0w969cZe5ecW83yM9q4Hg0A90CWr8wzVZ+qrPFCU9JySbKSGgGK1eutO3rRS96kRXtbQT52W6Qn5MH+VkdyE+AyYH8BJgukJ8wKZCfhBBCyJD4hCRnLD5F5ae2+8imTWZj58PWpSnyc9myZXaE2KAsWbIkXXryID/rSV5IOvl5zTXXpFMStJxGcg5Dy7hbzkpIjbIOwEzIt13dAnc2bbfOID/bRb7txuSnngHMNXQ8ID/LQW1W8YnJz/x5MA6Qn9Bm9EiF/PkXk5+TOP8AoHp0buszF2DcID8JIYSQIfEJSc5YfIrKzxBNkZ9PecpTzH777TcwWkaStA4gP+vJoYceajtFXCfIfffdlxFImq75uq3sKBx22GHmiU98Ip0qUDlqu3/4h3+YaWtqu+61/tf8UdtunUF+tot8283LT3Ve//mf/3kr2m5TQH6Wh25pr/brJExefrprs86DcYP8hDajP5bZcccd7Xdxd/7l5ecpp5xinzWv/wGgfegzFvkJkwD5SQghhAyJT0hyxuIzbfJzGFqmLrfRQ37WE3WO6BckRZ2RZ5xxhv35q1/9qn3t5rlO+kG4sk4//fR0CkB1+G331a9+dfeXfY04Ltp26w7ys13k2+7/dr5n6Ofvfve7Vhq1qe02BeRneUiquDas9vztb3/b/nzuuefa9u7mOTkzTpCf0Hb03Ht3jkmCfuhDH7LyU+flM57xDDv9Wc96Vro0ALQN5CdMCuQnIYQQMiQ+IckZiw/yMwvyE0bhne98p3n0ox9tttlmG/vL0q/92q/Z//X6sY99rHnNa16TLjkY1+ECMC40ckhtVO3Oj5v2qle9Kl2y2SA/28e0tN2mgPwsF8kVvz370feNSYz6FMhPaDsa/bn99ttnzj/3fd6dg4z6BGgvyE+YFMhPQgghZEh8QpIzFh/kZxbkJ4yCPwoplFFHH6kzc86cOekrgOopq+3WHeRn+5iWttsUkJ/l4o/+DGUSoz4F8hOmAf0xYugPDxRGfQK0G+QnTArkJyGEEDIkPiHJGYsP8jML8hNGRaM/8x0l+kvxUUd9Cj2fTh0uAONE0n277bbLtF2lTSPnkJ/tZBrablNAfpaPG/3pR98zJjXqUyA/YRrwR3/60fd6Rn0CtBvkJ0wK5CchhBAyJD4hyRmLD/IzC/ITRiU2CqnI6CPkJ0yCMtpu3UF+tpNpaLtNAflZPrHRn5Ma9SmQnzAthEZ/MuoToP0gP2FSVCY/Q53AhBBCSBPjE5ofiw/yMwvyE4qQH/1ZdPQR8hMmRX4EXdtGziE/20vb225TQH5Wgz/6c9KjPgXyE6aF/OhPRn0CTAfIT5gUlcnP9evXG0IIIaQN8QlJzlh8kJ9ZkJ9QhPwopKKjj5CfMClm23brDvKzvbS97TYF5Gc15Ed/TnLUp0B+wjThj/5k1CfAdID8hEmB/CSEEEKGxCckOWPxmTb5eWGnfoOC/ISiaPSnfmGayegj5CdMEo0ommnbrTvIz3bT5rbbFJCf1eFGf0561KdAfsI04Y/+ZNQnwHSA/IRJgfwkhBBChsQnJDlj8Zkm+Xn44Yeb/fbbb2AOPvjgdOkeJ5xwgpVUEqPK/vvvb84888x0bnUgP5uBG4U0k9FHyE+YJLNpu3UH+dlu2tx2mwLyszrc6M9Jj/oUyE+YNvS9nFGfANMD8hMmBfKTEEIIGRKfkOSMxaeo/HzkkU1m7dp15sHVa7ppivwsyoMPPmhF5+67725l57Jly8ySJUvMaaedZjuDjjjiiHTJakB+xrn11lvNb/7mb9YmO+64Y3D6sOh5Qo9//OOD85qWJvPKV74yuE/TkJm23XHnLW95S/pujUYb5ecf/MEfBI/NtKYpbXecGSdtlZ+h4zqJ1OW7wWMe8xjOtVz+8A//MG0tzeGP/uiPgvtC+vP0pz/dPOlJTwrOI+EANBnkJ0wK5CchhBAyJD4hyRmLT1H5ubHzIbtmzVrzwKrV3bRVfn70ox+1I/MkQfNomqSoRoVWBfIzjuSnfkmRtCKTz6/92q+l70wz0T6o8ya/X6Qe+fVf/3XkZwfJz6c+9anBY0TIb/zGb6QtZTy0VX7y3YIMis6zpsrPJzzhCcF9ImQ20R9qADQZ5CdMCuQnIYQQMiQ+IckZi09R+RmiqfJTozljt6+V3NQtbjXaM4bWff7zn5++Kh/kZxwnP7/zne+kU2BS/PM//3Nr5CfUE+RngpOfAHkkIpGf5aDvFscdd1z6CiBL0+UnQJn8yZ/8CfITGg/yEyYF8pMQQggZEp+Q5IzFZ1rlp6Sm5KZuX7tw4cJ0ag9N08jOYQwTpLMB+RkH+VkfkJ9QNcjPBOQnxEB+lgfyEwaB/ATogfyENoD8hEmB/CSEEEKGxCckOWPxmVb5ud9++5nDDz/cfPrTnza/+7u/m07toVGduuXtMCQ/9RzQKkB+xkF+1gfkJ1QN8jMB+QkxkJ/lgfyEQSA/AXogP6ENID9hUiA/CSGEkCHxCUnOWHymUX5KbGrEp3uWp0Z4SoL6uJGhoed9OtwyVYH8jIP8rA/IT6ga5GcC8hNiID/LA/kJg0B+AvRAfkIbQH7CpEB+EkIIIUPiE5KcsfhMo/yU7DzhhBPSV8ktbn0Z6tDo0COOOCJ91Y+E6Uc/+tH0VfkgP+MgP+sD8hOqBvmZgPyEGMjP8kB+wiCQnwA9kJ/QBpCfMCmQn4QQQsiQ+IQkZyw+0yY/JSxDz/J0t8H10chOSdFDDjmkT4yqHN0Wd9DI0NmC/IyD/KwPyE+oGuRnAvITYiA/ywP5CYNAfgL0QH5CG0B+wqRAfhJCCCFD4hOSnLH4TJP8lMx8/vOfb0d65nG3sM3P03SJUc3Ts0EV/awRn1WKT4H8jIP8rA/IT6ga5GcC8hNiID/LA/kJg0B+AvRAfkIbQH7CpEB+EkIIIUPiE5KcsfhMk/w8+OCDbWK40ZwhJDolRpWqpacD+RmnDPm5aN6jbBkuc09bkc6BIkyN/Fy+wMz12osyf3E6z2PFaXMzy9jMW5TOhZmA/Ezol58rzIKDcm0tH9reVID8LA+dN6XLz/TzI/SZIZLPjfmGs7X+ID+rZpGZ73+GZcI5UjeQn9AGkJ8wKZCfhBBCyJD4hCRnLD7TIj+XLFliR2x+61vfMhd26hjKWWedZUeGnnnmmelakwX5GWe28tOKz4MWmJ7uTDpbEKDFmQb5mYjyuWbB8nSCSDuz/Taj5WhD5YP8TIjJz1ibs+0W+TkVID/LQ98tqhj52f+9w5F8/4iJUagXyM+qiZ8P8XMIJgXyE9oA8hMmBfKTEEIIGRKfkOSMxWda5KdGa2rUp25hOyy61W0dQH7GmZ38VMdKTmR1sCMv6FQpTOvl5+L5/eLTkZnXaVe0n0pAfiYgPyEG8rM8qpKfManDd49mgfysmgF/DGD/6CzyfQwmAvIT2gDyEyYF8pMQQggZEp+Q5IzFp6j83Lp1q9m8ebPZtKmXptz2tmlwPOJU8czPvg7IwG1OfZEQvL1pJ05EuPIWSEC4+YEOTisouutHpGx3/qCRhaEOo/y00G0yZ3cbsbbLz5EFkkRoZ7n8+9XfgZd/D/zjn75fp2XbXrAT0MdKWL/MTjJtbfD73tf2O2SmhTocc9MGHidvWXd8/H1KzoF4O0R+JsxefpbQ9nJtLbPtEdqJKO+aJ0JtO1fvwPnRK3P4dTPUtjPTQvvt0Vs2KTdzrtl1Y/uYLp9L33vSAflZHjrGVT3zs/9am21r+bbfi9rXKO1h0Dnu2mLne4m/jGvH6XkSPTfy84d+7nSY1fUit32Rni+ZaYO2UQHIz6oJvO+OTPsY/L3Gkm+jAz8Pe22x/zz1ydcvfF726pJdvu87UNqmM+vmPm/qDPIT2gDyEyZFq+TnOeecY37605/WLqG6EtLknH322d1IGoSWIaRN8QlJzlh8isrPdes2mPtXrjJ3r7i3G+RnNXA84pQvP5POiWinn0g7UTIdGJnOkaQjxZXR7cTsdmKkHS35114ZyTq5Dhi/czDU8dclUOfctP5O/GT+bDpa2i0/s+/pQFwnm98m+t6v/uNt35NcJ1nmPbfleq9DaBmvzHzbHPa+97fl3LRMh2NKblr/NjxCy7p9HmH/kJ8Js5OfyXvuL5tcX0Zve9nlRa7Moe2k7GueUJn+NpM6dZcP1Cm7jdzyluy0UNvOTAvtt0f/su6Ypccjdt6E6mbfE/89SEB+loeu41XJz773VO9n7tqbEDq3h7WHZH78HE/bYmaZ/Dp6nS0v2V7+POugbXtt126r79yezfXC375Izxdv2tBtVADys2ry77sjff/TNtZ/XU7W606z54Zfjt82smUJvy3l23KWfP0C9Q2cl8l8/ey3+di6uWk1BvkJbQD5CZOidfJTJ1Kdos7CUF0JaUIuvvhic+yxx5q99trLPOlJTwq2cT9a7ogjjrBSNFQeIU2NT0hyxuJTVH5u2bLFPPLIJrOx82HrgvysBo5HnNLkZ9rJYBPtgHZkOyn6O0eynZX9nXId/I69YIe5X0a2vOEEOlGC07KEOvaLMA3yc6ROKNuW8u9n2g5cO8l0iDn89yj5Of+eD3uP7Da8+YM77hL8MkPLZ6YN7aQeUse+9dP9nDe/M314G0d+JsxKfqrt9bUJf/1hbS9yLvhtelg7Cc3P1GHw/oRRvfvb1sBzNlOP0PLZaaG2nZkW3K8e+fXtudU5ZvM1ve964NNfN7dufh3kZ3no+0B18rND95yJnFOW0LkwpD0MPcfTtphfJve5ZMu07dXbnpbJnQO95RLs627ZkX0rcr3I76+tQ+e86U4bYRsVgPysmuR9734399PXvrP419rQdbvLkGt2ti3nyZ+H/edltg325ufPmTCB8moM8hPaAPITJkUr5ecJJ5xgTj311IlHdUF+kqblhhtusALzuc99bvLltxP9vPfee5tDDz3UHHPMMTb64NIvrPr5yCOPtPN322237jqSpYcccoj52c9+FtwOIU2KT0hyxuJTVH6GQH5WA8cjThW3vbUdJX0dZknnmvsMUVyHRH/nSLaTMdx54nVqRDroep0jRTtAkuX9uubr7LDb8JcZ2hkTh5GfKbEOV296uE0kbS/ZRvg9j63n0Hy/jrHlY+9733QXV4btKAzM9zoPk/MnF9euQh2N9rh0lhmwXw7kZ8Js5Gf0Pe5ktLYXv7502/2wdlL6NU9oHb/MWBn5+mcFS7a+SVwZwbatZNp3fn7u3HDLWnqfK4P3NVy30DrIz/LQMa5Ufrrz9iCdk4HPDEvo3B7cHoaf46G22GHQ9dklv04HbS/+uRM/r0a+XqRlJPunn7VeflpofSV2XGcP8rNq/Pd4OH3t3rbVId/dYt/XUoLnUq5t9+oXqG+mfK+dBs6jhN5ngsuo+z9pkJ/QBpCfMClaKz8nzXe/+11bF+QnaUokPSUr3RdBiUyJzSuuuCJt1aNx22232V9k58yZ0y1LI0KRoKTJ8QlJzlh8kJ/1heMRpwr5me3ACHVWZDs4sh19ItvZ0j9feGVEOl96nZPZ7Q0ntHx2Wq8Tv7fdYGdoAab7mZ/Jez7o/fSnh9uE327C73l4vR6qo79Ofvlh73uo/My0UOd4blr/cfL2K7C+LT9XpxjIz4TZyE/784A21FlicNtLRUV+foZh7aT0a14HlZ/Zr1wZab3V1rrHKVPP0Daz0/rbdm5aaL+9fe1fPyk/U6cggbrZcnPb6oD8LA+9L9XKzw72fRz0/ofO7cHtYfg5HmqLHXLtt3ft720vVLam+XXp/8zI1TVP6LyJnJvaVnIsvGMwyjYqAPlZNYF2HsC2yc5y4e81gz8bY59FjkxbTumVna9foL6Z8rPtOFtuMs/uR/e8HG3/6wLyE9oA8hMmBfKzIpCfpClRp//RRx/dva2tpKUEZhmsWrXKClT7RbMTyVVJ1lA9CKlzfEKSMxYf5Gd94XjEmZX8DHW4WbwOh1DHSK6jrb9zJNvZYucHy0i3HayHX8aQzps+Qh0m/rTQ/GQbfZ2hBWi7/Iy3lw5ex3NyfPuXy3R2BTvc+t+j/Hve63QL0b/dbNsc/r6HOvoy00LHIDctVMduGfn17Wvt56KR2h/yM2H2Iz/jnb2uncTbXnh+hmHtJDQ/sw9Fr3npfmXaT7a9h9p2/3mbPz+y00JtOzMtuF+9MvLr29d6LzL1CDG8bg7kZ3nou8V45Oeg8zF0LgxuD8PP8bTtBc+HdL1MW/a3l9+2XmfbbvZcS5af1fXCbfO0zrRcuX6dilwvygD5WTX+exwjtEz2e03out0leM3uEf/c0HmS33agLpnz25+fWzZ0HbB1y+9bfUF+QhtAfsKkQH5WBPKTNCESke5WtbptrT6MqkAyVbfM1XYkWRkFSpoWn5DkjMUH+VlfOB5xZjvys9v5nL4WmWm2Q8LvGEk6LLRN1yHR3zmS7axMOiL9zpdsx0z3tVdGsk5vu8lrv56hDlFHoAMmMy352V832We/TsVpvfzskBynUCdt9nj2tQnbjvz3JG1H3vHOtkXXzrxt9bXFHJqf66TL1mP4+95X7w6ZaUM7qdMyM+3Ia6uZZXPnwQgdfcjPhFk98zPQ9rLHfnjbS65H2XZgtzFyOyn7mpfMi1/zAuWl+9zbZnb5hOy0/radmxbab3vsku1mls0d08zx6yNQt9C2OiA/y0PXxrHc9jZy3iaElhnWHpL58XM8bW+d171yk3Xc62xbz24vcy4N/dxxy2fbaqa9h9pyaH8yy4TqNGAbFYD8rJrsexwm226Fa9uxa63ote/0s6jvXEmWz7dl0Vs3Xz+9zm7Hv/7nl8+U3VfHZNns98Z6g/yENoD8hEmB/KwI5Cepey6++OLuaM9TTjklbbnVolvoPvGJT7TbPOmkk4L1IqSO8QlJzlh8kJ/1heMRp4zb3iadZkkng02uoyM/f/7ibGdJf+dItrPSzV/gOmQUv6MlpdthY5PrQOmQr0e2M9Qn3yEjctPSjtBueZ36JOX7sqEY0yA/LbaTyjt2nYQ6p7LvZ2iZtB11l/GPffp+aaRLd35/m3Dk20ZfXPsc8r67ttrX/jPr5+qRm5bfb5vA+sly2faW1CW+n8jPhNnJT9HrWHXptc/R2l5fm/PbzQjtRJRzzevfl3zcvvVvL1k3KTfd78x5mp3Wfxxz0+w++ttI0rd+ulx2f9L9yJWfEN7H0PFAfpaHjnE18tN7P4Pvt0/o3B6lPfQv47ftpC12vpd4n0Hd9SMiprd+WvZB+3TXDca7JszuepFsL7R//j4N3EYFID+rpv89DpK/7nbOqaQteN8v8t/bMudd/rtYry32tSkbV26vft3l8m1ugPzMt+v8tvK/a9Qd5Ce0AeQnTArkZ0UgP0mdI/Go9ikRWfSZno61a9emPxVDt8J1o011G9xQ/QipW3xCkjMWH+RnfeF4xKnmmZ/lYjs0Ku6EqwNTIz/HwoidfimD2lib2h/yM6FffpZJsbY3eQbVt2n7MnuQn+Wh7xaV3/Z2QoREflGm5XMnBvIToAfyE9oA8hMmBfKzIpCfpK5x4lMCctRney5evNh2ur7pTW8yL33pS82Tn/xkW4a+gL3whS+0v5S///3vNz/5yU/SNQYjAepug4sAJU2IT0hyxuKD/KwvHI84yM/6gPwsE+RnCORnAvLTB/npg/wsD323QH7GQX4iPwEcyE9oA8hPmBTIz4pAfo4/DzzwgNl2220bnzvvvDO4f2VEt7pVu5T4lIAcxJo1a8w//dM/mZ133tmuozz3uc+1HUJz5841RxxxhHnnO99pnxW6yy67dJfRlzJNX7JkSVpSHCdAjz322GB9CalLfEKSMxYf5Gd94XjEQX7WB+RnmUyftBkF5GcC8hNiID/LQ98tkJ8QA/kJ0AP5CW0A+QmTAvlZEcjP8UfyU8dcIwmbGtW/Kvl5ww032Gd86la3w0Z8fu5znzNPecpTbH323HNP88lPftJcddVV6dwwEj0nnnii2X///e16yuGHH273ZxDuFricK6TO8ckLzkHxQX7WF45HnCbIz2kB+QlVg/xMqFZ+QpNBfpaHvlu0VX7C7EF+AvRAfkIbQH7CpEB+VsQ45OfJJ5/cijz88MPB/SsaJz//+q//On0XmsWHPvQhW/8q5Kc69p1kHPSMz2XLlpm99trLLrfHHnuY733ve+mcYvzqV78yb33rW205kqhnnnlmOqcfjUDViFKJWY1MDdWfkEnHJyQ5Y/FBftYXjkcc5Gd9QH5C1SA/E5CfEAP5WR76boH8hBjIT4AeyE9oA8hPmBTIz4oYh/z8x3/8R7uNpgf5mVCl/FSHqco+5ZRT0q31ow+iZz/72XY5jfwsg7PPPts84xnPsGV+/vOfT6f2IyGrEakSr6H6EzLp+IQkZyw+ReXnI49sMmsfXmdWr17TDfKzGjgecZCf9QH5CVWD/ExAfkIM5Gd56LsF8hNiID8BeiA/oQ0gP2FSID8rYpzy85e//GUj8zd/8ze2/sjPhKrkp7vdrZ7NGePcc8+1295xxx3NGWeckU4th5tvvtneOlflf/rTn06n9nPMMcfYZao8ZwiZaXxCkjMWn6Lyc2PnQ/ahNWvNA6tWd4P8rAaORxzkZ31AfkLVID8TkJ8QA/lZHvpugfyEGMhPgB7IT2gDyE+YFMjPihin/FyxYkW61WaB/MxSlfw8+OCDbbn6oAmhW91qxKfE59VXX51OLZ83vOENth46N0Lo9rca/alb4Ib2g5BJxickOWPxKSo/QyA/q4HjEWdW8nP5AjO3s67W72W+WZTOhmK0QX7+zu/8ju3Q/NrXvkZqmB122MH+wVoRkJ/Tw4rT5ppHHbTANPM3z3JAfpaHvhPUV34uMvP7vr/MNQuWp7OhcpCfAD2Qn9AGkJ8wKZCfFYH8HE4d5aduv3reeeeZ2267LZ2SSLkTTzzRTleqogr5qVGfKnPOnDnpVvrZZ5997DJlj/jMc/fdd5vnPe95ZrvttrPPBA2hX4BVl5NOOim4P2Q80bNXdcviWELrFI1kU6hstdnQ8pOOT0hyxuKD/KwvHI84M5afi+dPfSd52bRBfrpb4ZP65sUvfnH6bo0G8nN6QH4iP8tE15tayk/7h1v8odakQX4C9EB+QhtAfsKkQH5WBPJzOHWSn5Keu+++u13f5bDDDrPTd955Zzsa0U2viirkpxv16ctcn89+9rN2flnP+BzGBRdcYLd3wAEHpFP60bEuc/SnvijutNNOrUiZbUOi8eijjzZHHHGEfdaq38ZHiXtGq8rQdS4mLbWdY489trudUFmxPOc5z7HrHHLIId3tSFKFtlN1fEKSMxYf5Gd94XjEman8XDSPERJl0wb5uccee5inP/3p5t577yU1jDrW1HFbBOTn9ID8RH6Wib5b1FF+qp3PX5y+gImB/ATogfyENoD8hEmB/KwI5Odw6iQ/d9ttN7tuPhKf+l/PzHTTPvaxj9lbgwldvCUtlTPPPNPO088aTXn66afbZUalCvkpoaV9C7FmzRrzlKc8xXZEjhO3nzpeIY488kg7v6wRgPqiKFH3pje9qdEpq23ouOp5ayrPRZ3p/utRk1/PCdGZyNRRo1vyTWJksE9Icsbig/ysLxyPOIPlZ/62cG6khKZ3fs7f9nZe/ziKRfO8+blbytl58xaYBQd5ywTKyDL8VnXZbebnJ+tnOz6z05J6ZevhTxssCLyy3PHxy9KI2b7tJ/DMT6ganvmZMB75uSJ7bfOuQ/Ya0p3ey9zT/KtKfn1/pNrw69hoJOsk5c818+cl17YF3jW0r7z0Gubi19ldG/31s9dKt73+UXfuuu1fO2e/f8VBfpaH3s/6yU+dVzoX/bafb6dpewx8drsMPleTJG013Y5Xfrbs/PzYeZ+rr5+0LHcO9ZL9blQ3kJ8BbDvLvW/2ehhos37UBvLfyW1CZXnz/TbutnOa39Z767vPre41uFuv5GV+fvBzzt9eh2ybzda17xzs4E9znzeZMzEwbeg2uvM6cesOPN+rAfkJbQD5CZMC+VkRyM/h1EV+uguw4n4B021i3bRYPvjBDwanu+y99962rFEpW37q1qUq75hjjkm3kOWjH/2onf+9730vnTIe7rnnHrP99ttHf5lx74dGC4b2q2ic/GwyZbYNHVeVNds8+tGPDk4vK4997GOD05VddtkluG9VxickOWPxmSb5qWO2cOHCUvLQQw+lpVYH8jNOXH6mnSxex4PtJLAdA64Dxu9ESDvsusunr71OiKQjpLeO63TodSok5Q7uZNAyXsd5qPMl0/GRr0eyjUGd6n7nisOfFupc6ZErPyM7B+8f8hOqBvmZUL38jF3/kmtX7Do16Fror993nbGEpg0if81O1s9ck3Md8UkdvOt+2pHulk/m+2WGtzH3oPzIu962k+n59TrYuvRL07JBfpaH3s96yk+/rSX0vt94r137y3yOi/y5pjL970P956LKc6/z3ydGP+9TAueCXS5wTYl/V5k8yM8QkTaQfx9D18Pc92GRWTd3Pe+2EdfO0+u5X25f+9MyrrzM9lTv/jbp70fmnMpvW+Tql10+IX/u5I9Ldlr/OZDsz+Bt5JfJf85VBfIT2gDyEyYF8rMikJ/DqaP8dLeHlTB00xTJM/ezpKb+90eD5qNRb6eccoota1TKlp9OcunWvSFUxz333DN9NV50C1PV7aqrrkqnZNHx3m+//YL7VTQh+an31z3rVNEtj3WbYz3f1UfHLnb8hJbXaF8fTVNZfvn6Ob+c0Ojg/DZ9tG21ozLbxqBbzz772c+2t6fVdetnP/uZFUJuPf2saZqnDvhdd93VrlNEgubLz4/u1TRFbXdY+f5644hPSHLG4jMt8vPSSy81L3zhC+3I8jKi2x/fcsstaenVgPyME5WfoY6VLv2dMxa/IyTTKeJIOiLcerbTIddxMXi7HWy5uY6Yvu1kyXaG9HdK5qfNpMOlR3/5yX7ON/OHdEQiP6FqkJ8JlcvPIdel/mtI9tpor4N91wp/meHXsaEE6mivVbnrr6Yl28zVMcXfl6TTOHf9zmwnreNpnWneNdauN69zjfTqny8rdF2uAuRneei7RW3lZ19bin8PSD7Ds+dj9hzWuv65FDgXve8uvbK1nHe+DD3vU4Z9T0rJ1rF+ID/DZNtb+LobbAOxa3paln7uK8dfx/6c/wzp3363HG9dtbV82fnt2bq48847H3z8ZTLLp/jTQu07My1wPPL707+N8PEex7mE/IQ2gPyESYH8rAjk53DqPPLTCc5tt93W/u/fwtOJUXUQuWn5qMyilC0/9Yuy6h3ioosustv65Cc/mU4ZL8O2f+ihh9r5of0qGl9+Sibmn+3qR0Lb3a5Yy+q1EhKgkpauLMlOoXUHSXEt78py7UjTQgLUbV/L6Jco/V9G21C7cPXZbrvtuj9rui87R4lE5Y477jhwlKaLpGeojEHR7W1DZSmh5auMT0hyxuIzLfJTf1Tx/ve/P301ez784Q/bzvUqQX7GicnPwb/oBzr2LN70SOecLXdAx0a4s8JD8/16xZa32/euK911kjpm5qXJdHoG5mc6XPLzcuVnj43b5oD96oD8hKpBfiZULj+HyIn+62u2wzV4jUmTLBO/zvRflyME6hi67veu2ZHyvU7s0PrZ9dzP2l93PXQ/58q35ebXs3MqBflZHmqvdZWfebmRn973PSD/XSVz/qh9+udSrL0m03vlBs6/zPxeMvUddH2JfvepH8jPCPY9TK+PA7/j5tpAes3MvP/ddZP2nZ3nMnhboe/q+bbafz4l6/nnQKacfDv1ky4zo+/iimvzkfOk95kW2rfIuet9zlUF8hPaAPITJgXysyKQn8Op0zM/Y88ndBLUj7X7/7gAAPYjSURBVJNW6hTJz3Opg/yUOIvdevdf/uVf7LZiIy/HgZ6n+upXvzp9lcUdY926N7RvReLkpwSjLyb1nuv46BbH+We+6v1zzx5V8gLUF5+KytczTN1rRWWqbG3Db18qS8fdn5YXoL74VJ72tKfZ/8toG5KQrlw/RcWnS6w8PxrxGVp3lGgEsF/WYx7zGCtcQ8tWGZ+Q5IzFZ1rkp0ZrfvrTn05fzR6VpTKrBPkZZ9zy0+9o6O906BDr6HGoXH+d3PK9zpDctO6+hOqenRaqlz8tdGx68wPlex1S/cesB/ITqgb5mVB3+WmvJ9Hrrxh+HRtKoI6ha5udFru2Ca+c0PrZ9Xo/a1m7v7o+2nX6y+9eV4cczzJBfpaHPvMaLT/Tz3z/5y5+m+y2YUfgXPG+q2Tbde+7yvDzPiV27na2Gf/uUz+QnzF6bTH6HoauibnvwyJpF1ouaZP97d4jsL7It//u6+7yqVjNnCOali3LL6dXrzj57Yq+MnLHJjMt8rnhl9G/jcC5KyJllQnyE9oA8hMmBfKzIpCfwylbfn7kIx+x5c1Efko2SWBpfReJK91y1J+mODH3ile8IrPOs571LPPOd77T/lwH+amyJPBCvPGNb4yOCh0Xep9Uxy1btqRTemgEpeZpZGFo34rEyU//Oa4aWZofban3zL2fErOa70agKk6AhsTnL3/5y+40vc6///myDjjgADvNl65OgObFp5bRKDr9XFbb2GmnnTK3k9UtZkPLjRJ1xrtylMc97nGZ14o6bULrjpJ8+UoZ7aJofEKSMxYf5OfMQH5Olpnd9jbpMOjrRLHrpJ0dwU6UQOdivlOn6HYz28mW78huJ9SxkZ3W3xmSnRbsjOrWO19+2inUWX7RkM4e5CdUDfIzoe63vR3eMTz8OjaUQB37t+vXK3x99fclWO/Mdrw6anp6XUzKDNRf19XOMgsC1+SqQH6Wh75b1E9+pu00355sO+21v2Gf+X3tPlNe+HuAO3f8svu2M/C8T+n7nhQ+N23ZuXrXCeRnnKRNda59gffVEvquHPrc6U5L2khfu/fJnQMJubblb9ffXn7b9nW2fn5bT8rJ1TVHZvmUvvNlwHnZVydL/FxMCJ9LoW2VDfIT2gDyEyYF8rMikJ/DKVt+/uhHP7LlzUR+OnQxlnjzR/lpmsTqe9/7Xis+9Vr/S4xKVum1op9nQxXyU/UM8dKXvtR27EySf/3Xf7V1XL68/1utjqfmlXH+6IuiRgqqPEUyMYZ+AXfLudvf5gWoxKh7LdGptuLqqwz6Jd6XnWovIQGaF59apuy24Z4H6zIbOXnwwQd3y9HtbzXK05+m7LLLLsF1R4kvP1X+bETtbOITkpyx+CA/Zwbyc7JE5adJOu8yHQCxTg9LsnyvEyHtaPE6C5KOvd46ttMhs43ANjNofq4jI1OP/s6dZJt+PfKdkiI7bSYdLr352bKS7bsOoP76+SA/oWqQnwmVy8/Que5dq/qvIfkO1+Q60r++u7YMv44NJ1/HdJuddOuR66DOX8Ndndzy3ettt8zwNpI6pvO65cX3SWWOvl+zA/lZHnrf6ig/+9ta2ha9czL7PSC3fOZcTNYNtdvutJyoypQdOK972+2QmZ+SK6//POtMcedi7rtKnUB+DiB936OCsK8NdLDr5Jb3l7M/Z9tS5jtqd5u9cjPz03bW/XzIbc+267S92fX8dtwhe071n3Ou/bvys8sn+NPsNnLtOzutfxvJ/uTqnNtGfhl3XHqfz9WA/IQ24PpNAcYN8rMikJ/DqdNtb+tAmYJLI+NUVkx+PvnJTzZz585NX02GL3/5y7aOurVtHvehqI7e0P4VifuiqPKUQb9k+xLTP3a+AHVx4lNoWTddZcTw5apbLi9AXZz4FGXLzxtuuCGzLY0CDi03StQh45el53RKJOmXPn+6thlaf1jyIz/LaBMziU9IcsbiE5OfW7ZsNZs3bzabNg1PU+Xn4Ycfbp7//Ofb20AvXLgwnToayM/JEpefIu2I6ybX0ZJ2pHST60AQtmOhu0y2UybpdEj+st0tE+1c6HbKxOLKztVZnR62ntn5gzoqR+pw8bdh446NV1ago2lQJwryE6oG+ZlQvfwUacdr9xrRu/71d9rmOpUt+euvfy3pn9dLup1cx3QYv45zzfx5Sb3sSMu0vOy1skPuuu/X2e2Xv372Wpq91maPQ3aeI/kMyX32VAjyszz0/tdTfnbIf6fInI9pu/Pbbm75pN0POg+TzF+cLOOfJ/mys228v8zwOZg/J3LraX8y333qB/JzECE56BFqA5HvyZn2k7t+Z8pwnxmn+cv05ifffQPLu/aVbn+fzOdeIN22n/+MHHyeCH9a/+doeFpyfrlkz4fQNiwDPueqAvkJbQD5CZMC+VkRyM/hVC0/f/KTn3QTQhfej33sY+aMM85Ip5SDRJhGiars2267LZ06nCrkZ0jErVu3zs7TsxonyQ9/+ENbDzfCMo/mlSU/t9tuO1te7Jg4JBvdcv4tgzXdH5Gp+HLUfz6oE5Yh3Ie94v+y70938etZtvxUdOtbf3uhZYZFwsitr9vo+s/2zD8LVKNN/XVHTf6Zn2U8B3Ym8QlJzlh8Qh+WW7duNWvXrjP33rfS3L3i3qFpovxcsmSJlZ4PPvigfTZu7FnEMZCfk2Ww/KyWaKdDiHwni8+geQ0C+QlVg/xMGI/8nACzvBaGOo6LMNv1QxT6nCgB5Gd56LtFbeVnKYSFfcKgeSCQn4MI/UFMxZT0XXrQNXvc1/MmgfyENuD6PQHGDfKzIpCfw6lafko+6vW2225rX/vkZVMZSHT6t0RVfIE1jCrkZ+wXyu23394+n3SSuOepXnDBBemUHhpRqXllyU9/5GdsNKzw24U7dpKZ/jM+/WgfhJZ102IyV4RGiOaf8emiaW5kaRXyMy8nZ/IcTY3y9MvwBac/ulRiVCNZ/XVHjXsOq/Jbv/VbwWXGEZ+Q5IzFJ/RhKTTqc+Mj+lDdODRNlJ8SnroVsli2bJk9n4qA/JwsyM/6gPyEqkF+JiA/w9RPfkogjffajvwsD323QH6mL6EP5OcA7LU8P7q3YpCfEwX5CW0A+QmTAvlZEcjP4YxLfm6zzTZmn3326Wb//ffPjHrT8y/dPEkmdeDoZ8kndXy8+tWv7s4/7LDDustJTPlS7DWveU33Z5eTTz7ZHHDAAd11v/jFL3bLUlRHR5mCy4mnmOh7wQteYLc/ST71qU/ZOt50003plB7uQ1FyLbR/RaIvir5A0/saG53p395W729efKqcOXPmdF8rEqBO1iqDxI5uL+uWE9pPX3xKEPq3wHUCtAr5qRGUbjuK5FRouUF5znOeY8Wm1tcveRJI/vz8sz+LXg+1vL++hG1ouXHEJyQ5Y/GJyc8iNPW2tzovNOJTt77Nf0ZLiB5yyCHpq36Qn5OlMfJzCkB+QtUgPxOQn2HqJD9tWZ3PprGOfOqA/CwPvX/tlp8wG5CfYex34865M3Zx3pI/JGwqyE9oA8hPmBTIz4pAfg5nXPLzcY97nP1/1DzrWc8KTs9HnSKh6X7UieS/fsYznpF5rbjRg2ULLpUVk5/6ReLFL35x+moyfPCDH7R1XLt2bTqlh/tQnMloxHyc/PRHXWqErrbhkOR07UWR4MyLT0lJNxIz/wxQvYe+FJVY9m95rJ8lwd181cWNfHVRmdqmkheg73rXu+zPZcpPRbepddtRihzv/MjR0Chdf/TnYx/7WCtL84J0UPbaa6/MNiZ1y1vFJyQ5Y/GZZvkpdPtb3frWR68lRZ/3vOdFb8WN/Jwsk5SfkAX5CVWD/ExorfyEWYP8LA99t0B+QgzkJ0AP5Ce0AeQnTArkZ0UgP4czbvkpAeZG3rnRdvpiqv813X9uo5s27OdR498WVVEZrhwnKKuQn7Fn633gAx+w85cvn9yf7u2xxx7mt3/7t9NXWZyoLFN+Cl8qxqJlJSB9wan1NM0nL0Cvuuoqu64/LRSVJRnqT1NZPnkBuuOOO9r/y5afuk2t28ZjHvMYW38Jy9Cyfo4++ujueuqID436dMlLUu3XsG2oLI0E9NdTR2Ro2XHFJyQ5Y/GZdvkZQqODDz/8cCtBJUBPO+20dE4P5OdkQX7WB+QnVA3yMwH5CTGQn+Wh7xbIT4iB/ATogfyENoD8hEmB/KwI5Odwxi0/JQIV/ezEozrg9L9G+OVH4rllB/08avzboip+XaqSn/pFOXYL1p/85Cd2WyeeeGI6ZbzcfPPNdvt/93d/l07J4kR0TKgViS8/JRXzktuPG/HplpWoC4lPhxOgbvSulsvfFtePtu3K0ge/6pUXnw63fS1T1chPRR18rn4SoPpf4jEkKHU9y4/GVAZJar2HGmGqDnu3vPZJ4jX//mqbulV06A8MRpGyVcYnJDlj8Zlm+elGePqjO7WMprnRoBoZKgGq/32Qn5MF+VkfkJ9QNcjPBOQnxEB+loe+WyA/IQbyE6AH8hPaAPITJgXysyKQn8Opg/zUrV/1vx83KtQtO+jnotl2223t/35dqpKfbsSdf/tVnx122MGKuknw+c9/3tbt5z//eToli25Lu+uuuwb3q2h8+emQjNZx1/7rfdDP/m1wHRKQMfHpCK2naSpTZWsb+tndMtcn9t44tO2qnvnpIqmYvz2zi25TK9npC0/3jE8XtbNQuX50u1ptw8nVfBkq3xee+fkSpaFyxxmfkOSMxWea5ed+++1nR3jqf7WZM88804rO/G1wNfJTf7ThT0d+ThbkZ31AfkLVID8TkJ8QA/lZHvpugfyEGMhPgB7IT2gDyE+YFMjPikB+DqcO8lOv/ZGAeq1OefezPz3/c+iZn9tss03mtTr7Jd70s7apsjWaT2W4cqqSn2p7Ki/2S6VuN6n5l156aTplfEg6S3CGcKNkR5Fqo8TJT43ObGqqlJ+KBKg/AnTUnHTSScHyQpEAzT9jdFj0Bb+MWx+XEZ+Q5IzFZ1rlp66Dut4JNwJUy+RHeDq0vEYfO5CfkwX5WR+Qn1A1yM8E5CfEQH6Wh75bID8hBvJz/Kw4bW7md3GbeYvSuTBJkJ/QBpCfMCmQnxWB/BxO1fJz6dKlNpJ7ushKqin6WRLSTXOERvhpGbdc/mdXXr4MzdMvcvrflRkq25XjRv9VIbgk/WKjO6+55hq7vbe+9a3plPFw/PHH2+1++ctfTqdk0bHTfMmy0D4Vjb4oqrw2pCr56aIRli996UuD23bRL3MS5zO9Da0674dJ0N/6rd+y25CQCpUxifiEJGcsPtMoP/V5LNmZH+EZE5/CCVJXBvJzsuizSuelOqB0PSWTyyte8QrkJ1QK8jNBf7CoTsbQeUimO7prhe6eM07aLD9f/epXB48zITrPYn8sXWeaKj8XzXuUmXtaM/sVpwGdE8hPaDrq/9ZnP8C4QX5WBPJzOFXLz6ZRhfzULSZVZki+Co2w0vyf/vSn6ZRqWblypXnGM55hb2kbQ7e8lLQN7c9MoutCW1K1/HSRCNK1S6LST5nXM8ltyVa/fI0knfSzPWPxCUnOWHymUX6qk1CvZxKtK5Cfk8XJz+23397+0k0ml+22286+F00G+VlvkJ8Jz3rWs+yt+kPnIZnu6I5Cyjhps/zU51roOBOia7AewdI0mik/F5n5By0wqM/6gvyENoD8hEmB/KwI5OdwkJ9ZqpCfumWoynS31s2zfPlye1uvpz/96ebmm29Op1bHn/7pn9r6fOtb30qnZHEfhhJhof0hZFLxCUnOWHymUX6WAfJzsnDb2/qgz0ZGfkKVID8TuO0txOC2t+Wh7xbc9hZicNvbMbJ4vr29bf62t/MXp/M72Hm+IF2+wMz1lu27Pa7K9Ocr6fpuO93ybVlzzYLlycu++bmykhGqK8yCg7yy/bh6BurQ1NGtyE9oA8hPmBTIz4pAfg4H+Zmlquc66hfmJz3pSd3b6+Y566yz7Hb33HPPdEo1uP3Ts1hjuFGfEhGhfSFkUvEJSc5YfJCfMwP5OVmQn/UB+QlVMxP5+fa3v9184AMfSF+1A+QnxJiU/PzEJz6RvmoP+m6B/IQYyM8x4iRhQG46AZmRn+m8nkhMRGRGLKZC1RGUp5nynPxcZOY/an7n34REhPZeJ/Nz28rJU0tgWlJWbrmGgPyENoD8hEmB/KyIccrP17/+9Y2N6o/8TKhKfrrRn4ceemi6pX6+8IUv2GXe+MY39gmbMnD79q53vSud0s8pp5xil2HUJ6ljfPKCc1B8isrPRx7ZZNY+vM6sfmhNN8jPakB+xkF+1gfkJ1TNTOSnltf3vDaB/IQYk5Cfv/u7v9tKSajvFshPiIH8HCNWfvZLQV9Y9v2cEZIdbBk5aTlIfnboPmfUE5VaLi9V/RGolty2gvIzxKjL1RDkJ7QB9Sc87WlPS18BjA/kZ0WMS37qmWhND/IzoSr5qbhnf+rZbTH+/d//3S6z8847m/PPPz+dOjv0jE93q9uDDz44ndqPnkmq7e60006M+iS1jE9IcsbiU1R+bux8yD700NrOte3BbpogPzWK/P3vf3/6avZ8+MMftrdVrBLkZxzkZ31AfkLVzER+/v7v/75tm20C+QkxJiE/n/vc55pvfOMb6av2oO8WyE+IgfwcI3mZ6PCmJ8LTu4VsTmTmxWJWYoblp8iXmxnR2dmyRnn683sZVX7my0B+AkyK//iP/zB77LFH+gpgfDRKfp533nnmxBNPjOYf/uEf7Afau9/9bvOe97xn4lFddBuoUF2V0D6SmceXn+eee27jUqX8vOGGG+ztZHX7W4nGGN///vftlyrV48gjj5zVLZWPP/5484xnPMOWNehWt+KAAw6wy1X5xwKEzCY+IckZi09R+RmiCfLz0ksvNS984QvtaM0y8pznPMfccsstaenVgPyMg/ysD8hPqJqZyE9d7z/5yU+mr9oB8hNiTEJ+7rjjjuYnP/lJ+qo96LsF8hNiID/HyKjyMzAKtEtOQGpU58BnhnbQMnZ0aHfd9DmebsSonR4Y+ZknJD/TdXWd6QrV0HINAfkJbUB/1L7//vunrwDGR+Pkpz682pAPfvCDwX0kM4+Tn01PFfJTUce1ytdzNQcJ0Kuuusp+IGnZbbbZxvzLv/yLueiii9K5g7n55pvN5z//efPiF7/Yrr/bbruZb33rW+ncMJKsWvaII44I1puQOsQnJDlj8ZkW+Sl0zBYuXFhKHnroobTU6kB+xkF+1gfkJ1TNTOTnk5/8ZHPyySenr9oB8hNijFt+Ll++3H4G63estqH9Qn5CDOTnONHoyH4paOVkSHiGZGlmWn95ffLTX96XkhlBGXi+Z4iA1AwKWrvN/v1sAshPaANvfetbzXvf+970FcD4aKT8/M///M9gB2lTon1AfpYfyU89N7LpqUp+Kscee6xtf4cddlh6qsb56U9/al73utfZ5RXdkvZv/uZvzDHHHGO+/OUvmx/+8Ie2vp/61Kdse9btC9yyuj3TKLef1vpaXrflDdWXkLrEJyQ5Y/GZJvnZNDgecZCf9QH5CVVTVH5u3brVtkk9eqRNID8hxrjl51e+8pWxjzQdF/pugfyEGMjP8RKWk71Rl9n5yQjNnpTMSUqtmxOPA9fPycs+6ZoTlv58S0x++oLWLqO+KuQnwCS47777zLOf/eyhdwUEqILGys+mcu+999p9QH6SSUXP3lQbHEWAiiuvvNIKTv3yofVi0WjPv/u7vxu5A8yJz1133dWKh1BdCalLfEKSMxYf5Gd94XjEQX7WB+QnVE1R+Xn55Zfb68P999+fTmkHyE+IMW75uffee9t+gzaiawfyE2IgP8ePlYqd89Jl8G1rc8/STG9Vm0hHb3o+nTKuCopJT0qmotLJ0b4yM/XoEJCfIrs/mj/iSNIagvyEpqOBOL/1W7/V10cGMA6Qn2MG+UnqECdAh90CN8+mTZvMHXfcYS6++GJzxhlnmPPPP9/cdNNN5uGHH06XGA33fFPEJ2lKfPKCc1B8kJ/1heMRB/lZH5CfUDVF5efHP/5xs8suu6Sv2gPyE2KMU37qGer6/G3jLW+F9g35CTGQn82kX5L2GDQPBoP8hCajfuSXvexljPqEiYH8HDPIT1KXqBNVbXHnnXc2V1xxRdpCq0Wi9YADDrDb1a1uEZ+kKfEJSc5YfJCf9YXjEQf5WR+Qn1A1ReXnK17xipHvJNIkkJ8QY1zyUx2Fu+22m3n961+fTmkf+m6B/IQYyM9mgvysBuQnNJlPfOITjPqEiYL8HDPIT1KnqDP7iU98onnSk55k/wqnyCjQonzta1+zolXt/4gjjgjWh5C6xicvOAfFB/lZXzgecZCf9QH5CVVTRH7efffd9trwv53PobaB/IQY45Kf6it48pOfbG688cZ0SvvQ9QP5CTGQnwA9kJ/QVORv9Hn/zW9+M50CMH6Qn2MG+UnqFt3CVr/Iq11KgkpSlskvfvELe3tdlb/TTjvZDvRQPQipc3xCkjMWH+RnfeF4xEF+1gfkJ1RNEfmp5SQJ2wjyE2JULT8ffPBBc+CBB9o/Tl20qPtEvFai7xbIT4iB/ATogfyEJvLtb3/bftZ//vOfT6cATAbk55hBfpK6Rh3bkpNqnxqhqedy6pybCbfddps5/vjju9JTv8Cr01aCIbRtQuoen5DkjMUH+VlfOB5xkJ/1AfkJVTOK/Ny6dat55zvfabbbbrvWPosQ+QkxqpKfa9euNf/+7/9unva0p5kXv/jF5vbbZ/+dse7ouwXyE2IgPwF6ID+hKVx++eXWd7zwhS+0vyvolrcAk6ax8lO/IDQxyE9S95x00kldCapoNKie56Tb4p5xxhn2PHRSVM8Kda81X8LU3dpWQXqStsQnJDlj8UF+1heORxzkZ31AfkLVqGNNnRXHHHNMXz7ykY/YTl11SCsXXHBBulb7QH5CDMnPHXbYIXiOzCR/+7d/a37/93/ffs6+7GUvM1/5ylfSLbUf7TPyE2IgPwF6SH4+7nGPs31uhNQp73//+82+++5rXv7yl9v+X32277LLLnaeBsUA1IFGys82BPlJ6p4bbrjBHHvssd1b4o6aXXfd1T7TU7fTDZVLSBPjE5KcsfgUlZ8aXbN585ZONneD/KwGjkcc5Gd9QH5C1Uh+qsN57733juaoo44yK1euTNdoJ8hPiKHfi7bZZpvguTGTqENbv28tWbIk3cL0oO8WyE+IgfwE6KHPisc85jFmn332IaRWedvb3maOPPJI85nPfMaceuqp9rFnAHWjcfLz8MMPb0WQn6Rp+dnPfmajDnB1wLpopKibxwhP0tb4hCRnLD5F5ef69RvMypUPmhX/d283yM9q4HjEQX7WB+QnVE2RZ362GeQnxKj6mZ/TBPITBoH8BOjBbW8BAGZOo+QnIYQQMon4hCRnLD5F5eeWLVvMI49sMhs2bOwG+VkNHI84yM/6gPyEqkF+JiA/IQbyszyQnzCIpsrPF73oRbZtE1J2Hv3oR6etDAAAioD8JIQQQobEJyQ5Y/EpKj9DID+rgeMRB/lZH5CfUDXIzwTkJ8RAfpaHvlsgPyFGU+XnHnvsYbbffnszb948QkqLvj9vt912aSsDAIAiID8JIYSQIfEJSc5YfJCf9YXjEQf5WR+Qn1A1yM8E5CfEQH6WB/ITBtFU+cltb6EKuO0tAMDMQX4SQgghQ+ITkpyx+CA/6wvHIw7ysz4gP6FqkJ8JyE+IgfwsD+QnDAL5CdAD+QkAMHOQn4QQQsiQ+IQkZyw+yM/6wvGIg/ysD8hPqBrkZwLyE2IgP8sD+QmDQH4C9EB+AgDMHOQnIYQQMiQ+IckZiw/ys75wPOIgP+sD8hOqBvmZgPyEGMjP8kB+wiCQnwA9kJ8AADMH+UkIIYQMiU9Icsbig/ysLxyPOMjP+oD8hKpBfiYgPyEG8rM8kJ8wCOQnQA/kJwDAzEF+EkIIIUPiE5KcsfggP+sLxyMO8rM+tF1+rjhtrm1rvcw3i9J5UBLLF5i5A44r8jMB+QkxkJ/lgfyEQSA/AXogPwEAZg7ykxBCCBkSn5DkjMUH+VlfOB5xkJ/1ob3yc5GZL9l50AKzIp0iEhk61yxYnk6A2WHF52CpjPxMQH5CDORneSA/YRDIT4AeyE8AgJmD/CSEEEKGxCckOWPxQX7WF45HHORnfWir/Fw0r198OgbNg9Fxo2rnHqT/kZ/DQH5CDORneSA/YRDIT4AeyE8AgJmD/CSEEEKGxCckOWPxQX7WF45HHORnfWin/ExGfc5fnL4cRHfkYi45OWqFaXd+duSonTcvq/6y0wL1Sbfbm7bCLDjI34aSFYr9t/BNMve0pKZ2fqjemWnpiNhukm3Eyo6PklU56bzF8zvLIT+HgfyEGMjP8tB1C/kJMZCfAD2QnwAAMwf5SQghhAyJT0hyxuJTVH4+8sgm8/DD68zqh9Z0g/ysBo5HHORnfWil/LRiccRb2waWzUrEVEr6ctPKvt46xeVnT3S6af1lpJLSm9YvN5NyovLT1rNTRndaf5n9cjRb5kggP0cC+QkxkJ/lgfyEQSA/AXogPwEAZg7ykxBCCBkSn5DkjMWnqPzc2PmQfeihteaBBx7sZprk51VXXWU++clPmj333NPMmTMnnVoNyM84yM/60F75GZdxGYbJz0hZvqwsLD8lC+fNzwnRfvLlFpOfmjfXzJ/nTRsiKROQn1WB/IQYyM/yQH7CIJCfAD2QnwAAMwf5SQghhAyJT0hyxuJTVH6GaLv8vPjii838+fPNXnvtZTueXY455ph0iWpAfsZBftYHRn4OkZ9u9GQoM5Kf+lmiMCdEU+y2A9sQReSnftb0/LTs+iGQn1WB/IQYyM/y0HUT+QkxkJ8APZCfAAAzB/lJCCGEDIlPSHLG4oP8HIw6C3zh6eeMM85Il6oG5Gcc5Gd9mMpnfvqjOYfIT/vzkNGSReSnpidiMVtHu3zntb+tfLn98jIiP73969sX5OfEQH5CDORneSA/YRDIT4AeyE8AgJmD/CSEEEKGxCckOWPxQX4O5gtf+EKf9HRZtmxZulQ1ID/jID/rQzvl52DRZ6WimzfSyM/Bo0jzklJkp6Wi87TOtrp18uVnSNYmEnIm8nNBZ9uurP59GSxy82WOBPJzJJCfEAP5WR7ITxgE8hOgB/ITAGDmID/JjKKOYnWEHn300TbqkHM/H3vssfbWhaH1SHPzs5/9zL6/N9xwQ3A+IW2OT0hyxuKD/ByOPlfy4vN3f/d307nVgfyME5KfVtJ0pvUyTNJAYfwRjyltlZ9OKGZloWtnnswcJj9TGZgtJynbCcJR5WdWovbLT1842vW1Tl5+ZrYTkJ+hdbp1799Ov7hEflZFlfKz215ccu0eZoo7d12q+VxCfpaH3qdB8rN7naz4PYV6gvwE6IH8BACYOY2Vn7fccos56aSTGpXQfjQt2o/ddtst94tIOE960pPMIYccgixrePT+6fl7/vsqURBalpC2xickOWPxQX4OZsuWLeawww6zHc7Pfvazu/JT06oG+RknKz/TzuVhkgpmh5V8+sydFvmZ0CeF8h3dQ+WnSAWoV05QVAaSLBeQjum07mjP7vuTZt6i9BxQfXsCJjQ61JXbW75H/74MkznIz6qoRH66dpOR4q5Nxt8TGIX+8zZ0jpUB8rM8dF0Ly8/02sd3jakG+QnQA/kJADBzGi0/e50B9c8HPvCB4H40JRrNKemlfXniE59o9t57b9shfcABB9j/99lnn240Tf9rObf/kmdI0GZFMkAjPd17eOihh5rTTz/d/nzwwQcH1yGkrfEJSc5YfJCfcR555BH7xzLqbP7rv/5rO9L8Na95jX09jluiIT/j+PLTdtJHRikNmgejk3TuPsrMPai/477t8nNyzEAithTkZ0L58jOV8jnxmTBoHoxEUOrn/mihJJCf5aHPutB3PL5rgEB+AvRAfgIAzJzGy89tt93W7LDDDrWO6tlU+akOYTfq77nPfa4VYBKbeu3HF51+dt99dytK9bPkaVtGwLY9et+d7Nb7d8UVV6SntjFz5syx0yUnQusS0sb4hCRnLD7IzzA6vn/+539uO5rf9773pVONue222+xnzrnnnptOqQ7kZ5ye/Jw/ekdyfmScS67DMhnx5JIdzWHnhUZIdacFOrbT7fampVKhuw3F7yAPzVd6demvR0hUhEfoOZHZn9jIFZWTzgt05iM/qyJ5T5GfyE9H6fIzMGo5Ruy6kWmfgdHHPULSLzvNbiN0Pfanha7jA697Lu66FahH3zW6g73WeevbbcSuzZ2MLL5Cx2H2ID/LQ+9nv/ws/r4N/S7RnZcm045j68+kDYbX6e5L6Dpg27+blu67njkdWt8x6PzPbSPZt87rH+bOMy/d8nPnYt9I6s5+6znV3WX6jkN+/7PfYUZ5L3yQnwA9kJ8AADOnsfLzyiuvtOKzKfmrv/qr4H7UOeoMdre4lfDSiE73RVUj/yQy8wJM62ia5mkZt/zOO+/c/RkBWv9o5JXeK430zCMhIdmtthFal5A2xickOWPxQX72s3btWvP2t7/ddjLrj4QmBfIzTld+nvC3/Z12MQIdfNnO9rSDzO/0ynQApp1koQ7K7rR8B2mv081N6y8jWac3LVmnXyrE69EVE7l6+MvYdTKdgoHtDAP5OUZm8P60FORnQunyM3A+x+gXk7n2mbtWuvn5a1JWmGSn9W3DSY/utEAZ6TK9abFlYvIzrac/LVLmoGvyyPQdp3JAfpaH3vs++Vno/U7blNeWk8/o+Gd4tl3mz50OoXYzcp1Unr9c7hzoKyeZ39te/nWHfH366pfbB38b9uf+607/Mek/bsm6vXOx/7tP/tildffKtdvxtj/4vegH+QnQA/kJADBzGis/ue1ttfHFpxu5qUhoFrl9rZb1JagLArSeOfnkkzPP9zzllFPSUzrLMcccw/tIpio+IckZiw/yM8vq1avN2972NtvB/MEPfjCdOhmQn3Gy8nO0zvtQR2Gms32EDrlQ51x2Wq7TTB2C84aPTs2WkXTeDepo799mZxv+NNsROey4BLYzjEC5yE+oGuRnQiXyMyM04/SJydz1Q9ekvmtJ5roVEgrZadltqPy5netafrt58uUGtpO5buXmB67Roet8H4HPk6HYdQpec0cE+Vke+m4Rlp8z/64ROl8ybSxtG7YNRrYVXmeUNqg27y+XOwdy5eg8nNs5J/Lnbr7d+vUZev57PweX7dC3f7lj5vCvE/bn/LHytxv8LpTd//Bx9Y5PDuQnQA/kJwDAzGm8/NSoSv2iXueonk2Tn/rFTvV24nOnnXaa1TM7NRo0f2tcbptar+h5e3pf3Pu0/fbb2xG7q1atSk/rLLoNsm6NK2kQKo+QNsUnJDlj8UF+9njggQfMgQceaDuXP/ShD6VTJwfyM04lIz9tJ1nv+0AmXgdftnMuP83vVNPP6nTLdTSmJJ12/dsIdvjl6u5vUz+rbH9aZr+ihDsWBxLoSER+QtXo9xbkZ51HfiY/Z65n3bjrVug6mJ3mb0M/q+zwtax/e71yA9vJ7Kc/Xz/nr9EjXhcDnycDSYVK/vOjLJCf5aH2NKuRn5HzyrZl73Pbb782rm2M8F3EMnKdXDt35M4Rvxz9rPMtU3Zu+ZTeuTnC+W/LS6bFzq3sdykR3m5SVrI/4etDb73w/GRbrh4D34sAyE+AHshPAICZ03j52ZQ0SX5+5zvfsXV24lMy7OKLLw4uWyQqwxegkmeh5cj4c+yxx9r3RM/Xk+zU/+590ijPEL/4xS/s/COOOCJYZpty9tln22N09NFH25Gxinsmaj6a7paRUNY6Wn82fzxAJh+fkOSMxaeo/Ny6davZsmWL2bx5czdtkJ/33Xef2X///W3H8lFHHZVOnSzIzzgjP/PT6yTLdPCl+B1j9udAh6VPf+dcflqv063XuZbtwOt1tPW2lS0j0Pmeq3t3eXWSpvX3y4h1+GUZsZPfJ9Cpi/yEqkF+Joz9mZ/e9aX/muJfP5Jr3OBrSUhkZKd1txGVG8ny9voZuOYmBLaTuW715oev0RXIT7usX+fyQX6Wh9pX4Wd+em029Dkp/M/o7Ge+SMpXuxvlu4hl1Dao5TLnbm5fuuUkbd9Oz5Qd3vfeudmre5TcNkLnQuyY9B1z7/j2X5dEb73w/Ow5Pui9CIH8BOiB/AQAmDmNlZ+LFi0yL3vZyxqTfffdN7gfdcyuu+7afaZjWeLTxYlVF70OLUfGGwk7vd9ulKf+13vvZLWe8xnCCfIy20gdov1xotNvry7abz9HHnlk3zTJ/fx6miZZTLtvXnxCkjMWn6Lyc/36DWblygfNiv+7r5umy09t90//9E9tp/L/+3//L506eZCfcXry8zuRzq0E26nl5gU6CjPr2g61wR2J/Z1k+Wlpp9tpfmej34EX6szLdwYGOt9zdU+2uaCzXH5aWkak8zVLYDvDCJSL/ISqQX4mlC4/O4SuaQnZ61L/dda/fuSvYSFC177sNLeNBZ065afZ7Yaua/ba6Jcb2E5mvXR+9BrdeRU9Jh6Bz5Mgaf0KXWdnAPKzPPTdol9+hs6BHrbNuHnBtpH9vA21se60Eb6LWEZsg7bemW3lzhFXzmmd7brlMmUny+fbcG8fRjj//fIi9e4/Jtlj5vDfB/tz8JqQlh/8LjT8fA9NcyA/AXogPwEAZk5j5acb+fmYxzym9lE9mzLyU6PTVN85c+bY//W8ztBys8l+++1nyy6zfI0kalNC+1hVnJDO//LpnuupHHDAAenULJKimi9JGCq7SZH80DNP3bNuFclfnQs6NhrpGrsF8CC0np6dKkHqC1EJZ4lQRoQ2Iz4hyRmLT1H5uXnzFvPII50P2w0bu2my/NTxUKe6OpT/aQZ1rhLkZxxffrqOrHynZNIp5nWwBTrcsp2ZaQdeppxsp9/wTrK0Lpnt+B1t2fKEXV/rdMtI6pHpvM/V3a3TV06uHplOw75OwHDH4kACHYnIT6ga5GdCFfIzubb4146E5BrTO9ez10qRu37Ya0P2upUVE/510JGdliyfrUtmu31SKFk/u11Ny17ns9ctt07sGt2hbzudJTLX1w4RgZMlKbfQNXaGID/LQ+0pJD+7bWfYd4303PCXyy/T154y51P/+sG2NFIbTMoadN51rwH+Z3um7HS//W3lz5Fh53+urv37H57Wd2zTurrjkMz310uPXfd1Wnev3Py1bfB70Q/ysyDd9tVLtj3CjMkd20kcV+QnAMDMabz8bEqaIj+dCNPINf1/0kknBZebTdwtVpWybn17zjnndMtseu68887gPlYVdaZqu/nRnW70p3turSReCCdJq2gr44ikh0Z5utvYap8lKq+44op0D8tFx1m/6LtzTNHtcXkGbr3jkxecg+JTVH6GaKr8vOOOO2xngDqTdb7VDeRnnKz8TEg6tPx4HXki1/kmbMdZoEPfL8fvAOvfRi/JcoEOynRaf0djmnmLep2EaQfisLrbeuQ6YPs78FyHpUuuzCEdfEEyEiEB+QlVg/xMqER+Wvqve0HBE7hWZq4f3euXi3+tyF+P/CTXtu51MF1D5LebLNNbd/7itO7d62jn51zds9etEa7RIr8vmWtrh8DnSZ58Xf0Uuu6OAPKzPPT+hOVnwtDvGinZ5bJtJfhdInB++fP72szQNjjonEti23z6nSTT/jNlp+eHRkt31w1sd9D5n69rYJv932FScuX6x8FdHzRavLtMXxn5Y5l9v4a/F1mQn6OTHNtcW0nf+7KvgVNH/hzKn2NjAvkJADBzGis/ddtb/WLalOgXpdB+1C1OhLmRn1WMStMtRf0vvaFlisbJz/e9732NjvZhUvIzhBObO+ywg9l5553TqVkkSSWxNaI3VH6d40tPjfjUCM1xIqHsP19VI0ElYUJ1JZONT0hyxuIzrfJTwv8Nb3iD7UiOPUN40iA/44Tk5+QISIApAvkJVYP8TNDvbtXIzwkyoQ7btoH8LA99txgkP5tDQOp3GTQvT5Flx0v+jyPGAfJzRKy0jlzbB82DkbBtPyf6JZvH/bsI8hMAYOY0Vn4y8rOa5OVnaJnZxt1a1yW0TNE4+XnCCSekTbB5fOhDH7L7MG75qV/itd0YEptPfvKT7TJ5cSHx6eotcRcqv46R6HDP89T+jVt65pEcciNBVR9JhlC9yeTiE5KcsfjE5OfmzZvNxo0bg9vVbW+3bNmSLtk8+Xlzp6777LOP7USeN29eOrV+ID/jID/rA/ITqgb5mYD8hBjIz/LQdwvkpw/y0wf5ORrRkbx9JO1L5102uRHVI4wA9ttBdlqgDedHTnboHwWc/WyyZWbmJ3F1CdXDlpmZlh+JnG6jb+R0L6Oee6Mf8/JAfgIAzJzGy89tt93WbLfddrWO6tkU+albb6q+TsRUcStOd2tdl9AyRYP8nHmGyU+JQc1XZ6VGSbrb4+qXVTdqUmVIHoTKr1s08tjVW7e3rROnn366ve2u6tbU2wi3NT4hyRmLT+jDUmJTz/m9/PLLzfnnn2/OO++8bn75y1+a6667zjz44IPp0s2Sn0uXLrXXBnUgz58/P51aT5CfcZCf9QH5CVWD/ExAfkIM5Gd56LtFO+RnWSA/fZCfo1Dke3GgfVkR2JOfiXT0ZWiyziDpmJ2W30ZPQLpp/WWky3jTYstE6+GEZndapMzQrZiLSswJjaZFfgIAzJxGy8+nPe1pjUkd5KdGXKrz8uyzz47eztaNynTyUx1toeVmEze6VNlpp52CyxQN8nPmOfjgg+12B6Fbwrpnf2oUl26B696/Jj2r0olPCUaJxjLQ6FeJqrKeEarydLx1fJs0mrbt8QlJzlh88h+WGvH50EMPmSVLltjPtBUrVpj777+/m7vvvtsKxBtvvNHWYevWrY2Sn2q/6jz+t3/7t3RKfUF+xqmX/JxukJ9QNcjPhFbKTygF5Gd56LsF8hNiID9HIZF8ownzYfIzUpa3TL+UzE/LbUPrzpvfv90c+XL7tzNIfmreXDN/njdtxD/2KSQ/0xGsum6Ne9SnQH4CAMycxspPMlrUoXvIIYckH9KBhJ4xKDEkwaXbb0oU5efPJipL5brtS7yFlisa5OfM42S0G9EZQs+m1DK77rqr/V9tpAoxXmUk9p34nKmo1DE6/vjjzQEHHNAdPRrK7rvvbt/PM844I12zGL4APfbYY4P7Q8Ybn5DkjMUn/2G5adMms3LlSnPJJZfY837Dhg3pnIR169aZm266ycrRNWvWNE5+6pz74Q9/mL6qN+M4Hk0F+VkfkJ9QNcjPBOQnxEB+loe+WyA/IQbycxSyUnAww+RnMt/1Z2QzE/mpn7VeYLvCbtvbhlduEfmpnzU9s05mv+LM9Pa1/bfYrR7kJwDAzEF+tjga5eZEo57hqec1arSbop/d6E5JFi3r1nMy7NBDD7X/lyUoFTfK0N3aU52poeWKBvk58+j2qtquBGcMtRkto/dPQqNMIT6uuGd8DtrPGJKehx12mF3fRZ0fOlfy0THSiFi3nEbJfu1rX0tLGh0JUPcHCLGR2mR88QlJzlh88h+WbuTnNddcY5+NqeXvueeebpYvX27fewlQ1aFp8rNJcDziID/rgz5jkJ9QJcjPBOQnxEB+loe+WyA/IQbyczQGCzx/NOcQ+Rl4NmeefimZn9bbhuqVyMrsdu3yndf+rWPz5fZvJyI/bZ0DYrZi+TmJ28gjPwEAZg7ys8WRgJFkHCR79DxHLSMxlF9X0sUJ0jKeP6gRbCrLCR2NIgwtN5MgP2ce95zXQb98aiSj2kkTpaeiTnvt40ye8amRnm6U53777TfybX4lrdRR7USoRotKaBZBI1S1bv78JOOPT15wDopP6MNSz/zULW6vvPJKs3DhQnPBBRd0o9fXX399Y5/52SQ4HnGQn/UB+QlVg/xMQH5CDORneei7BfITYiA/R2SQiLMS0M0bIj/T+YNGkfZLyfy0dBundeqUn2a3Gx6pmh9JOar8XNBZLyNV3TojyslR5GdwGeQnAECjaKz81PPRfuu3fqsxGfczP0cZzedwo/p8qeOEmEaMuttvznSUpiSQpJHKUFluNGqZz4pEfs4u2q7e6xBOwDX59qtqd5K3M5WPs3m2qaSKbi+tcvTHBEWRsNW6jP6cbHxCkjMWn9CHpZAA1S1wN27cmMkjjzxip2vEpwP5WQ0cjzjIz/qA/ISqQX4mID8hBvKzPPTdAvkJMZCfo2MFXV7GWUHni8Zh8jMViLlyfDHZLyXz05JtZMvol5++TEy22dtGd1pGOAbkp9bJl9Mto387IWE5ivxMjpF/3AJljwHkJwDAzGm0/NSH0Lbbbmu22267Wkf1HLf8lKyR8BkVCUkJSre+k5/6hcTd/raIfFFH8tlnn22OPvpou64iuabRb/pZHXih9WYa5Ofsol/kNboxhHveZ5myepzRLZ1V/5mM+hQ6N5RQ2aPG/TGCRloXpQ3yuQ3xCUnOWHxCH5YSn5LyS5cute/15Zdf3o1e65bLet6nA/lZDRyPOMjP+oD8hKpBfiYgPyEG8rM89N0C+QkxkJ8FSSWdn4zoHEF+iq5YdMlLSX+eHysDk21kR3bmt+sEaRqVb+shMdmbl617SH4G6u3V1a3T3U5eDncYSX6K/LEds/gUyE8AgJnTePnZlIxbfmqbeq7nqLjRZW5992xOdbzrf/2i52SmJKkbvemi17o1p+JuEeqi0W6SPrp1ql6X+QxRF+Tn7OJuSSzZksfJz6aOPFRncWzfRiE/8lL/SwLoXNCITtfuFZ0bmq7jqfPF1cGNfC468tSh80t/zODKI+OPT0hyxuKT/7CU+Hz44Yet+NTtbfVsT4kmlxtvvNFOv/VWCdC15qGH1iI/K4LjEQf5WR+Qn1A1yM8E5CfEQH6Wh75bID8hBvKzOYwsEWHGID8BAGZOY+XnokWLzKtf/erGZM899wzuRxWRnCn6y4REqdbR+uoE1s8aqSlpqZ/zkdCUFNJ6Wk6v3Qg5/azp2r7WP+yww7rrlfHs0FCc/GxDJiE/XZsJjY5s+shPd8vZmaJ2rPWPOuqoPrHvkv9jAD+Sluoomcktbx06x1RWaP/IeOITkpyx+OQ/LHVL25UrV5pLLrnEnvcbNmxI5ySsW7fOCtErr7zK3HffSrPygQeRnxXB8YiD/KwPyE+oGuRnAvITYiA/y0PfLZCfEAP52RyQn9WD/AQAmDmNlZ+M/IzH3bJ2lOd9Opzg0bpuFKCeBerEpqSYRKamnXHGGeZjH/uY2WeffWx0K1u99qNpvijSaE/dfjRU3zLi5Oe+++5rxWsTI0mufZiE/FR23XXX4K1v3ejfpt521Y26nCnumbg6Pvpft4HWNB2XGDr3dE75UnQ28lPtQ2WE9o+MJz4hyRmLT/7DcvPmzXY08K9+9SuzbNkys3r16sw2NU+jP6+77jo7QlTP/kR+VgPHIw7ysz4gP6FqkJ8JyE+IgfwsD323QH5CDORnc0B+Vg/yEwBg5jRefj7mMY+pfVTPustPf3SfnhcqaaOO9/POO68rOvOj3p74xCfaZf1pfvTLoTrqxnG7VG57O/u451JK7OXRe13F7YrHkdne9taJR5dB0jOPu2Wuots+zxSJU70Hof0j44lPSHLG4hP6sNTozxUrVpjLLrvMnH/++X1ZsmSJuf/++634FMjPauB4xEF+1gfkJ1QN8jMB+QkxkJ/loe8WyE+IgfwE6IH8BACYOY2Vn7rt7cte9rLGRKPPQvtRRZz81EjNUXGCR/JQ/4eiX/Z0C1FJsrzQ1Gttt8rRnYOC/Jx91Pmv7Ut059FoR83TMqF165yZnA8+Eo/qDHzBC15gyymCO69069ui6/roDw90/oX2j4wnPiHJGYtP6MNSUnPjxo3mwQcftJIzn4ceesg88sgj6dLIz6rgeMRBftYH5CdUDfIzAfkJMZCf5aHvFshPiIH8BOiB/AQAmDmNlZ/c9jYeJ7EkXkbFyS2N7tP/vuiclNAsEuRnOXHvf350o7v1axNvfTtI6g5Dx0Hi8c1vfrMtQ7eBdpx55pnmz//8z82znvUsO2/77be3ty7+1Kc+ZR544AG7jDtub3rTm+z/oVG1w3C3HVand2j/yHjiE5KcsfiEPiy3bNli7rvvPnP77bfb91q3v1X0GXfzzTfbMtasWZMujfysCo5HHORnfUB+QtUgPxOQnxAD+Vke+m6B/IQYyE+AHshPAICZ03j5ue2229ovF3WO6jlO+anoFplFbrOp29zqmYZNEJ2h1EF+utsED4uWC1EH+akRvKqDZHgetRGJQEmC0Lp1jrv1bdFfsCVMtd473vEO+79Gj+r9+7M/+zP7WnnNa15j3vnOd5r999/fPOc5z7HTdJwWLFhgy9C5+JKXvMT+v/POO0ff/xg6j1VmU8/NtsQnLzgHxSf/YalRnyr72muvtbdlvvzyy+3tb/Ve67WeBXr11VebO+64w94eVyA/q4HjEQf5WR+Qn1A1yM8E5CfEQH6Wh75bID8hBvIToAfyEwBg5jRefjYl45afTvaM8txPCR0t2+SRZXWQn+65qcMSe0/qID+V2OhPt38zuYWzRhDvtddetvM8NH8ckdyXlBzlnBDu/VAnrf7XrWvXrl1rXvWqV9nX73vf++x7lee0006zklPLaL/drW913PS/ngM6Km7dJp+bbYlPSHLG4pP/sJTQ1ChhSc97773XrFy50n62SYbqVrfr1q2zoz/13E+N/pQsRX5WA8cjDvKzPiA/oWqQnwnIT4iB/CwPfbdAfkIM5CdAD+QnAMDMaaz81IiY7bbbrjF5z3veE9yPqqKOXDfSbBAahaZldtppp2A5TUmd5KdGTUpa5aNnR2p+3eWne0ZmaPSnxJ3mjSoxVZZ73qWLpoWWrToaTadzQnX42Mc+lu5RP5K+bsSnvmA++tGPtr/AaCTeYYcdZqd/7nOfS5cOI+mlZ/1q2QsuuKC7XXWm6f8DDjhg4AhQzXPtQdI2tD9kvPHJC85B8RkmPyU8N2/e3B3lqde6Be51112H/KwYjkcc5Gd9QH5C1SA/E5CfEAP5WR76boH8hBjIT4AeyE8AgJnTWPnp3/Z2hx12qHVUz3GP/FT0fEZtW7fNDIkWSR53S81JjsgrI3WSnzG5KQE6aH5d5KfiRn/m66p25G5/O0hi6va5bqSjxJ/2XfJQP0uGhtYZR1QvdVqoXpL+kpASoWeccYb9X9JT+6b5b3/727s/a3T0RRddZH/WsRmFCy+80C6v54K6fVcOPPBAO11lH3/88fZWyA79rGlu5KiOoaRMaF/IeOMTkpyx+OQ/LCUzN2zYYEd3arTnihUrrPjUdP2va7TE5/Lly60UFcjPauB4xEF+1gfkJ1QN8jMB+QkxkJ/loe8WyE+IgfwE6IH8BACYOY2Xn03JJOSn4gSoZIrkjuSKRI9EmxM7ujVnaN0mBflZbiQJJeokA/M4kRdrO5IIrm1p9Kgv3t0xmHSb03nhRmH6cfv8ute9rvta4lMcddRRdppG6Y2K5KrWWb16tS3HHTcJ0B133NH+HIqWa/ofJLQtPiHJGYtP6MNyy5Yttn1IfOpc0Wsh2anRoPfcc4+93bID+VkNHI84yM/6gPyEqkF+JiA/IQbyszz03QL5CTGQnwA9kJ8AADOn0fLzxBNPbFRC+zGOqMNSt7X15YqiaboVaGidpqWu8lPi4i/+4i9sXv/61/fN96mT/FTUyar6OPnnIwHqbmd7yCGHWHEwynrCjRz11xl33K19tQ/PfOYz7c/Pf/7z7f8uuk2x9tOhX75U9yJ84QtfsGW50Z0qT2Vomv7fc8897ehOydA3velN9jmiOp5HHHFEsN5kcvEJSc5YfEIflkVBflYDxyMO8rM+ID+hapCfCchPiIH8LA99t0B+QgzkJ0AP5CcAwMxprPwkxaPRfBpxp+jn0DJNTZ3lp6YpTZOfkgES5BKVodsma5p7jqkikbjXXnvZL/t6reeDhjj99NPtfHXihrY7jqieGl2Zfx6pXqvevvR07LLLLrbTtgg/+MEPbLnf//730ykJ+kXfSdBYJvVsVBKOT0hyxuJTVH7q9rcaCbp5cy/Iz2rgeMRBftYH5CdUDfIzAfkJMZCf5aHvFshPiIH8BOiB/AQAmDmNkp8//vGPW5OqBZdGdB599NF2VJkkiy9SdMtPTf/P//xPO08/a1qTR4EiP6uJGyEZuv2tQ/uj29s6kSip6G7vqmcWhnDSdBISXvJf29YteIugDlsJ0CJ85Stfsds6++yz0ylZdHwkg1UXRR0ATg5L0IbqTyYTn5DkjMWnqPxcv36DWfnAg2bF/93XDfKzGjgecZCf9QH5CVWD/ExAfkIM5Gd56LsF8hNiID8BeiA/AQBmTqPkpy74+pLchlQhuNR5K4mZH1HmRJRkim6nue2229pf6DUtv6xeq4xQ+XUO8rO6qM2oXqP+cuqe66nEpKlGVmq+xHtom1VGklbnRGg06yDe+9732jrffvvoAktSWOvcfffd6ZTRmDNnjl2P0Z/1iU9IcsbiU1R+aqTnxkceMes3bOwG+VkNHI84yM/6gPyEqkF+JiA/IQbyszz03QL5CTGQnwA9kJ8AADOncfJT0uLrX/96Y1OV4NKoTScy9b9/605JHskUX3TqdqYSM04ASchpHb+MJo0ErbP8/Ku/+iubpspPZdddd7V1C90ONoTazzbbbDNwf50YHKfgU5vWNmO35B3EWWedZdc96qij0imD0ajORz/60fYXoKK40Z8HH3xwcD/I+OMTkpyx+BSVnyGaIj/POOMM246bAvIzDvKzPiA/oWqQnwnIT4iB/CwPfbdAfkIM5CdAD+QnAMDMaaT8bDJVCC4JHT2XUcfmlFNOSbc0c1SGylKZTRGgdZWfPm5EZBPlp25P69rEKALUHQuNMt59993TqVkkB1WmRmKGtllF3CjWUSVuHv0yo/Xzz/AMoc5DLSu5OxMkkHW8Q/tBxh+fkOSMxWda5Oc//uM/mrlz59q84x3vMNdff306p74gP+MgP+sD8hOqBvmZgPyEGMjP8tB3C+QnxEB+AvRAfgIAzBzk55ipQnBpFKeOy0yFTgiVpTKb8txB5Gf1kQhXm5DMHOWWse7WrUpMyrtjoudwhrZZdiRaJRVniiTw0572NFvn448/Pp2a5aqrrjJveMMb7DJ67u5MUWeAypBwCO0LGW98QpIzFp9pkJ8a8fmyl73MrFy50r7Wuf285z3PfPWrX7Wv6wryMw7ysz4gP6FqkJ8JyE+IgfwsD323QH5CDOQnQA/kJwDAzEF+jpmyBZc6I1WeJFLZODHVhNGfyM/xRCJDddx5552HynaN7Nxxxx3N9ttvb5ePCVPJSHUkhLZXZiQ3VHfdbnc2XH755d3bAL/gBS8w73vf+8y//du/WdH55je/2U5XPv7xj6drzAzXntTZHdofMt74hCRnLD5tl5/a35e//OVmwYIF6RRj/vVf/9Xsv//+Zs899zR//dd/bZYtW5bOqRfIzzjIz/qA/ISqQX4mID8hBvKzPPTdAvkJMZCfAD2QnwAAMwf5OWbKFlzuNp4STWWjMpsiX3z5edFFF00kX/rSl2wdhslPLRdavwnyU5EA1Xk4yi1w3T4rIUGvaSpnv/32C26rzOj2s6pHWb9kH3vssXaEm9s/ZbvttjN//ud/bhYtWpQuNTtU5jjEMBken7zgHBSftsvP97znPebv//7v01fG3h76hS98obnvvvvsrW8/+MEP2nPm29/+drpEfUB+xkF+1gfkJ1QN8jMB+QkxkJ/loe8WyE+IgfwE6IH8BACYOcjPMVO24NIvYLqVZ1WMa1TebOPk56TzzGc+035J32efffry6le/2rbf0Hp+6i4/FXcLXNX3Yx/7WHRUp6ZrOUlBSU4n6U8//XQ7GlTraxSlxENoO2VGncbaXkxOzxTVXbe6Xbp0aTqlPFRfnYOh/SHjjU9Icsbi03b5+Td/8zd2FLTj93//9/tuef31r3/dvOIVrzBHHnmkuf/++9Opkwf5GQf5WR+Qn1A1yM8E5CfEQH6Wh75bID8hBvIToAfyEwBg5iA/x0zZ8lPHY++9905LLx+VLbka2nadIvn5H//xH61IE+SnoudfqgNA7VkiMyYVJT+0jOJEsH5W29XoyVDZVcTJzzKfjVs1Ov9U59D+kPHGJyQ5Y/Fpu/y85ZZbzFvf+lZzyCGH2BGgOudCXHPNNeawww6zncs/+tGP0qmTBfkZB/lZH5CfUDXIzwTkJ8RAfpaHvlsgPyEG8hOgB/ITAGDmID/HTNnyU2WFbidaFnPmzEG+kIFxt8FVO9l9991tG//a175mzjvvPJvjjz/eztt2223t/4pu1yzZECqvqjj56erVhOh4qs6h/SHjjU9Icsbi03b56dAfcTzlKU+x14FBfO5znzO/+7u/az760Y+adevWpVMnA/IzjpOfX/7yl8mE0yb5Gdo/MvkgPxOc/AwdIzLdQX6Wh75bSH6GjjMhTZefoX0iZKZBfgIAzBzk55gpU36qs1ZlVSk/3TMbQ9snxEVtUUJzp512su0lH5236rT9+c9/bkeMhsqoOgcffHCwbk1IaH/IeOMTkpyx+EyL/BSLFy+2I5ff/e53m7Vr16ZT+zn77LPtMm9605vsCP5JgfyM4+QnqUfaID9D+0XqE+RnIj9Dx4YQBflZDqFjS4ifpsrP0L4QMtsgPwEAZgbyc8yUKT9/9rOf2bKQn6ROkUTQ7RElO3VbW7XT0HLjjkaoqk5NTGh/yHjjE5KcsfhMk/x0/OM//qN59rOfba8DIXSMdMtsXSs00vlTn/pUOme8ID/jrFmzhtQsTSa0P6R+mXZCx4QQPzB7QseVkHyaRmgfCCkrAABQHOTnmEF+EkJI8+KTF5yD4lNUfj7yyCbz8MPrzUMPre2mafJT/PCHPzS77rqrFaH529suXLjQ7LLLLma//fazn2l6XuiBBx5oLrroonSJ8YD8BAAAAAAAAAAAaA/IzzFTpvy8+OKLbVkHHHBAWnq5rFq1imcOEkJIJz4hyRmLT1H5ubHzIbv6obVm5QMPdtNE+Snuu+8+85d/+Zfm93//980FF1yQTk144IEHzN///d/b54Sef/755jOf+YyVpZ///OfTJaoH+QkAAAAAAAAAANAekJ9jpkz5qeg5iypv5513NmeccUa6ldlzyimn2DJVtm5HGNo2IYRMS3xCkjMWn6LyM0RT5afj5JNPts8GPu6448zGjRvTqQkaIfra177WHH744eanP/2pede73mVHguo5wVWD/AQAAAAAAAAAAGgPjZSfz3nOcxqdMuWnIjmp4+IkqASrRKhGbo6KltU6WtdJT5WpZzeGtkkIIdMUn5DkjMUH+Zlw7bXXmre97W1mzpw5ZtGiRenUhBWd/dMo0D322MNceumlZs899zRvf/vb07nVgfwEAAAAAAAAAABoD42TnxoV0oaUKT8VddxKgmpEjcSln3322Scad1tbPypDZanM0LYIIWTa4hOSnLH4ID+zfPrTn7a3utXtbTdv3pxOTfj+979v/uiP/sjMnTvXfk794Ac/SOdUA/ITAAAAAAAAAACgPTRKfpLRolsEnnTSSeaf//mfu7I1LzgVjex087Ws1tG6oTIJIWSa4xOSnLH4ID/7+cUvfmHe+MY3mkMPPdQ+x9px5pln2rsQXHbZZeZb3/qW+eM//uN0TjUgPwEAAAAAAAAAANoD8pMQQggZEp+Q5IzFB/kZZsOGDeajH/2oefGLX2y++MUv2mnPf/7zzde+9jX7s/4oRyNE9SzqqkB+AgAAAAAAAAAAtAfkJyGEEDIkPiHJGYsP8nMwp59+unnlK19p3vOe95j3v//99pmfQs/9PO+88+z/Dz30kJ1WNshPAAAAAAAAAACA9oD8JIQQQobEJyQ5Y/FBfg5Hz8PWs0Df9a53mT322MOO+Hz9619vvv71r5s5c+aYz33uc+mS5YL8BAAAAAAAAAAAaA/IT0IIIWRIfEKSMxafaZKfGqG5cOHCTHR726KonEWLFtlnUv/t3/6tOeKII9I55YL8BAAAAAAAAAAAaA/IT0IIIWRIfEKSMxafaZCfGrX5tre9zY7YDEW3tNWzO++99950jXqA/AQAAAAAAAAAAGgPyE9CCCFkSHxCkjMWnzbLz5UrV5p3v/vd5oUvfKF573vfa37605+mc3r84he/MJ/85CetHNUtbb/85S+nc0ZH6+y///7pq/JAfgIAAAAAAAAAALQH5CchhBAyJD4hyRmLT1H5uXXrVrNlyxazeXMvdZWfe+65px3VuaJTv1GQxHz+859v3vKWt5izzjornRrn8ssvN4cccogdPfqlL30pnVoeyE8AAAAAAAAAAID2gPwkhBBChsQnJDlj8SkqP9ev32BWPvCg+b977uumrvJTz/QsypIlS8w/der+ghe8wLzrXe8y8+bNM//93//d96zQd7zjHVZ6asTnpZdemq5dLshPAAAAAAAAAACA9oD8JIQQQobEJyQ5Y/EpKj810nNj54NWEtSl7s/8nAl33nmnOfXUU81RRx1lXvGKV2SeEfrbv/3b5l//9V/Neeedly5dDchPAAAAAAAAAACA9oD8JIQQQobEJyQ5Y/EpKj9DtFF+1gGOBwAAAAAAAAAAQHtAfhJCCCFD4hOSnLH4ID/rC8cDAAAAAAAAAACgPSA/CSGEkCHxCUnOWHyQn/WF4wEAAAAAAAAAANAekJ+EEELIkPiEJGcsPsjP+sLxAAAAAAAAAAAAaA/IT0IIIWRIfEKSMxYf5Gd94XgAAAAAAAAAAAC0B+QnIYQQMiQ+IckZiw/ys75wPAAAAAAAAAAAANoD8pMQQggZEp+Q5IzFB/lZXzgeAAAAAAAAAAAA7aEy+RnqBCaEEEKaGJ/Q/Fh8kJ/1heMBAAAAAAAAAADQHiqTn1u2bDGEEEJIG+ITkpyx+CA/6wvHAwAAAAAAAAAAoD0gPwkhhJAh8QlJzlh8kJ/1heMBAAAAAAAAAADQHpCfhBBCyJD4hCRnLD5F5ecjj2wyD69bbx5as7Yb5Gc1cDwAAAAAAAAAAADaA/KTEEIIGRKfkOSMxaeo/NzY+ZBd/dAas3Llqm6Qn9XA8QAAAAAAAAAAAGgPyE9CCCFkSHxCkjMWn6LyMwTysxo4HgAAAAAAAAAAAO0B+UkIIYQMiU9Icsbig/ysLxwPAAAAAAAAAACA9oD8JIQQQobEJyQ5Y/FBftYXjgcAAAAAAAAAAEB7QH4SQgghQ+ITkpyx+CA/6wvHAwAAAAAAAAAAoD0gPwkhhJAh8QlJzlh8kJ/1heMBAAAAAAAAAADQHpCfhBBCyJD4hCRnLD7Iz/rC8QAAAAAAAAAAAGgPyE9CCCFkSHxCkjMWH+RnfeF4AAAAAAAAAAAAtAfkJyGEEDIkPiHJGYsP8rO+cDwAAAAAAAAAAADaA/KTEEIIGRKfkOSMxWda5OcPfvAD8573vMc89alPLSUq6/vf/35aejUgPwEAAAAAAAAAANoD8pNMba69+y7z7csuMced+7/msz//WWui/dF+af9C+00IKR6fkOSMxWda5OcHPvAB86//+q9m4cKFpURlqcwqQX4CAAAAAAAAAAC0B+Qnmcr8YukNQXHYtmg/Q/tPCCkWn5DkjMUnJj+3bt0a3GYoTZCfc+bMMRd26lYWKktlVgnyEwAAAAAAAAAAoD20Qn4u/PijzKMedaA5dVl4vnLXggOHLuNil33bqeauwLzyc5c59W2qv59wPRd+fLT61ynJcX+UOXDBgFGIF37CLvOJCwPzKohGRIZEYVvDCFBCZh+fkOSMxSf0YSnx+fDD68x99z9g/u+e+4YG+VkNyE8AAAAAAAAAAID2UBv5+fDDD5uVK1cOzYYNG/rXX3aqOVDS8OML++fZLDSf0PwRheb45Gdar3y9QzLQTmuq/DzQHPi2mNxMj0F+fyuMbgkbkoRtjfY3dBwIIaPHJyQ5Y/EJfViKTZs2dz7bNpr16zcMTVPkZ+j2tbMJ8hMAAAAAAAAAAABGpTby85JLLjFf+cpXhubmm28OrO9GT37CLOyb10nBkYVjk5+2XuE629Gsfh0aLT8/YT6h/QnIac0/8OOfsPJ6XPKzbc/4HBbtb+g4EEJGj09IcsbiE5OfRWiK/IzlqU99anC6MmieUiXITwAAAAAAAAAAgPZQG/m5evVqc9lll5kTTzwxmJNPPtncdNNNdoRoaP1BgjO5La4nGdNle8lKxaz8TEYmZstNZWtO5iXbCZcZihODQWHrJVmuV3ZyC1nVq7ONBW5fvO25kbAuoRGxQ46B3ZfOetl9SuqamRYq20t3H4OiV8exs90Lk/oGj3F327lt2X3sreuWGUWghgRhL3ealWkjXnl3aH4v5z2wqbPUJrPsxvD8OiV0HAgho8cnJDlj8Zkm+anRmiEkOEPzNE3zQjDyEwAAAAAAAAAAAIpQG/mprFq1ylx66aVWdPri87TTTjPXXXedWb9+fXC9JJFbyKbTu8+cDIygzMvRmcjPfBmDZGw3nqQcKu366p3ub14opmX2nrGZ1nXIKNJ8/Z3g7Jbj1TU/rbet/vQEb+A4an3VKy2nNy8gl/Pb6tbH249RjnknITnYzd1r0ybcYe2d4WXSID8JmZ74hCRnLD7IT+QnAAAAAAAAAAAAVE+t5Keydu1ac8EFF5hvfOMbVnx+5zvfMVdccUVw2XyCIylzos9KvbwgzS1TWH72ybskdlu+dAylK/G8hNaJyM+8eAxuM1e/UY5BIj/9YxmQqCFJmYv/nuS3q3m2/vnjZ1/7+6qEj/lI+59LSA66XG3d51qzMv3/6uB8samzjCc/U2naHS1640qzofN6wwNL7etElDo8YerWeyBZXrh1kiw1y/xVfSHri9pAXf2EjgMhZPT4hCRnLD7IT+QnAAAAAAAAAAAAVE/t5KfLeeedZ04//fSRxadNnxALCbteEsHnMnP5GZSuihWKgemRJOX06pQRexH5ma1XWIi6+vZPjx+DkETMy8ui8jN7nFTXdHt5+eknndetY0Z+5gVpJyMc85AcTJLe8laCMS8zlXRaIiedlHQiM1k3KzvTeVaEOjmZbmPTSnOeV6aTmk6+OpFpX+eWtXXKyNW0Lm65QELHgRAyenxCkjMWH+Qn8hMAAAAAAAAAAACqp7byc6bJSLuQVLNyzMm0VJ7lxOLM5KcrM5/R5Wcvafn+ugXkZ7genvwc4RhUIT8zwlLbi75Pbv/T2PJz26pCfmaEpydC0/l5MZm/7W1PVIZlZGb0Z05oBqVpTqj6yW87eR0f/Rk6DoSQ0eMTkpyx+EyT/JTILDPITwAAAAAAAAAAABiV1slPX+JlRxoqEVmXE38zk58zkZwDkqtT3+sB8jM0wrOX0Y5BJfIzXV71U1ndeublZ9++KrltReTnKO9FSA4qwVGXA17nBWQiMjuv787e8rY7ujMkRjPCNVdm7ta5fpK65PHqkkvoOBBCRo9PSHLG4jNN8pORnwAAAAAAAAAAADAp2ic/u4JtYVe09eaFhGEq9TyRFpKfoXK6Ii4o6/Ll5DNEHNoyPYk3kvyMlekvO9oxqEZ+unIPzIrLnPwMHrd0me620td50dtfx/6E5KATjSGcfEyEY360pS8c05Gam7LTs9K0gPwMjD516d/24ISOAyFk9PiEJGcsPshP5CcAAAAAAAAAAABUTwvlpxNuj8rJQiWVdb5Ys1JRy8bkW/86iSjsxJNsyTRPVuZHM4aSbjsv8Nw2M9NHkp+dBKRgIhzj+xM6Btl1vGmzlJ/dbfll549Vukxv39Lt+Os5Geofk75jFE5IDiYyMfeMz8jzORMZmn/mZ5LuiEy3TicZUZkZBdp7HZafOXHqjwTlmZ+EjDU+IckZiw/yE/kJAAAAAAAAAAAA1dNK+dk3MjM0r5tPmIU5Ydg/8jC7jpbrF4GeFE0zUHx2k6+PEhJ4ngC0243IT6UrBtPkJOYox6Ay+ZluOyN28/Kzk57ATtI95q4st84Cf1+Hi0+lXw46kdm7pa1LeLRnMm3l2qyotMkIUjc9laiWTWaDv60h8rNXtxR/FKgTqZb+uvsJHQdCyOjxCUnOWHyQn8hPAAAAAAAAAAAAqJ6Wyk/S+gSE6ag57tz/DQrCtkb7GzoOhJDR4xOSnLH4FJWfmzZtMuvWrTcPrVnbTVPkp0RmmUF+AgAAAAAAAAAAwKggP0kzMwv5+e3LLglKwrZG+xs6DoSQ0eMTkpyx+BSVnxs2bDSrV68x969c1U2TRn6GIpEZmq4Mmof8BAAAAAAAAAAAgFFBfpJmZhby89q77wpKwrZG+xs6DoSQ0eMTkpyx+BSVnyG47W01ID8BAAAAAAAAAADaA/KTTGV+sfSGoChsW7Sfof0nhBSLT0hyxuIzTfLzwk7dQsxEfqos5CcAAAAAAAAAAACMCvKTTG00IlK3hG3bM0C1P9ovRnwSUl58QpIzFh/kJ/ITAAAAAAAAAAAAqgf5SQghhAyJT0hyxuIzLfLz05/+tNl5552tsMxHgjM0XYnNU1kqs0qQnwAAAAAAAAAAAO0B+UkIIYQMiU9IcsbiMy3y86GHHjLnnnuuFZZlRGWpzCpBfgIAAAAAAAAAALQH5CchhBAyJD4hyRmLz7TIzybC8QAAAAAAAAAAAGgPyE9CCCFkSHxCkjMWH+RnfeF4AAAAAAAAAAAAtAfkJyGEEDIkPiHJGYsP8rO+cDwAAAAAAAAAAADaA/KTEEIIGRKfkOSMxQf5WV84HgAAAAAAAAAAAO0B+UkIIYQMiU9Icsbig/ysLxwPAAAAAAAAAACA9oD8JIQQQobEJyQ5Y/EpKj+3bt1qtihePZCf1cDxAAAAAAAAAAAAaA/IT0IIIWRIfEKSMxafovJz/foN5oEHHjT/d8/93SA/q4HjAQAAAAAAAAAA0B6Qn4QQQsiQ+IQkZyw+ReXn5s1bzMbOB60kqAvysxo4HgAAAAAAAAAAAO2hMvkZ6gQmhBBCmhif0PxYfIrKzxDIz2rgeAAAAAAAAAAAALSHyuTn+vXrDSGEENKG+IQkZyw+yM/6wvEAAAAAAAAAAABoD8hPQgghZEh8QpIzFh/kZ33heAAAAAAAAAAAALQH5CchhBAyJD4hyRmLD/KzvnA8AAAAAAAAAAAA2gPykxBCCBkSn5DkjMUH+VlfOB4AAAAAAAAAAADtAflJCCGEDIlPSHLG4oP8rC8cDwAAAAAAAAAAgPaA/CSEEEKGxCckOWPxQX7WF44HAAAAAAAAAABAe0B+EkIIIUPiE5KcsfggP+sLxwMAAAAAAAAAAKA9ID8JIYSQIfEJSc5YfJCf9YXjAQAAAAAAAAAA0B6Qn4QQQsiQ+IQkZyw+yM/6wvEAAAAAAAAAAABoD8hPQgghZEh8QpIzFp+i8nPTpk1m3br1Zs2ah7tBflYDxwMAAAAAAAAAAKA9ID8JIYSQIfEJSc5YfIrKzw0bNprVq9eY+1eu6gb5WQ0cDwAAAAAAAAAAgPaA/CSEEEKGxCckOWPxKSo/QyA/q4HjAQAAAAAAAAAA0B6Qn4QQQsiQ+IQkZyw+yM/6wvEAAAAAAAAAAABoD8hPQgghZEh8QpIzFh/kZ33heAAAAAAAAAAAALQH5CchhBAyJD4hyRmLD/KzvnA8AAAAAAAAAAAA2gPykxBCCBkSn5DkjMUH+VlfOB4AAAAAAAAAAADtAflJCCGEDIlPSHLG4oP8rC8cDwAAAAAAAAAAgPaA/CSEEEKGxCckOWPxaZL8vOGGG6JZunRpN/lpRZZx0/z/84mt409zrwdN0/+DQH4CAAAAAAAAAAC0B+QnIYSUEAmWs88+2xx99NHmiCOOMHvttZd57nOfa6Of99tvP3Pssceaiy++OLg+qXd8QpIzFp8myc+NGze2LoNAfgIAAAAAAAAAALQH5CchhMwikp6HHHKIedSjHpXJE5/4RPPa177WZtddd83MkxCVJJVwCZVJ6hefkOSMxadJ8nPa4HgAAAAAAAAAAAC0B+QnsZ2+bsSaP2rNxU3XqDUth7AhpF96SnJ+5zvfMT/72c/sfJ0req3/FS2vef/8z/9sdtppJ7vOk570JHu+cU7VPz4hyRmLD/KzvnA8AAAAAAAAAAAA2gPyc0qjW29KZu62225deVMkkqJaX0InVD4hbY7+GMCdC5KekpqKbm2rUZ3+ueJH8yRMdd5IjGpdTdd5yO1w6x2fkOSMxaeo/Ny6davNli29ID+rgeMBAAAAAAAAAADQHpCfUxYJmrzw1Cg0jT7TiDQncRR1BrufJWo0/+CDD+6OWnOR0NEyoe0R0qbonHCjPXUrW3d+6I8BNM3d6jZ/PukPBTTNv/2t1nF/hKD1NO2kk04KbpdMPj4hyRmLT1H5uX79BvPAqtXm/+65vxvkZzVwPAAAAAAAAAAAANoD8nNKopFmTtAokjCzGbnppE1e5iBBSZvjziG1e/+ckryU7JRA8Zf/5je/aW9560/TevojAnfeaBSpzid3LiFA6xmfkOSMxaeo/Ny8eXPng3ajWbd+QzfIz2rgeAAAAAAAAAAAALSHqZKfGr04U9mnSFI08faUGnHmRItGbZYtKFWeu32nIiGUl0CEND3+iE9dR9wIaonM2HXlJS95iXnTm94UnKd1nPDU7XJ1zkii6jmg3AK3fvEJSc5YfIrKzxDIz2rgeAAAAAAAAAAAALSHqZGf7hl9EgsasRhaJhaJiPytYlVeaNk6RZ25kiqqr6RK1SPKJJfdLXF1K1wEDmlLdO6oXTvR6a4Hg86pT37yk3YZRedGaBnFjQKVXNU5o3NV5w9/QFCv+IQkZyw+yM/6wvEAAAAAAAAAAABoD1MhP92ILQkLSQX9rNGJw0aBqjPUjZqUkDjuuOPMFVdc0RUf+n8UwadlJEu1zXHd0lJ1d/XU6LIiIuW2224zv/rVr8xFF11krrzySnP33XcHl4vFyRyJZm7hSZoenTtqy7oG+OfVoLa9bNkys8MOO9hzb5tttjGvfOUrg8u5uHNGt851olU/h5Ylk4lPSHLG4hOTn1u3brW3uN20aVNfNF3zHcjPauB4AAAAAAAAAAAAtIdWy091ZrqRj4ceeqhZtWqVzZFHHtmVc7FRoLqVqxOle++9txWCPsccc4ydp+RHgUqqnnzyyXbb2oZbThnHaEh/ZJq7nWZoOZdzzjnH/L//9//MH/zBH1hh49fX5WlPe5p585vfbP7t3/7NXH311cFy/DiBo0ggh5YhpAnxxaSin4eNHv+bv/kbu9x///d/d9cZ9ocA7tbROn/9n0PLkvHHJyQ5Y/EJfVhu2bLF3H///eaqq64yF154oVm4cGE3ixYtsm1g9erV6dLIz6rgeAAAAAAAAAAAALSHRslPCUnJPMnGYc/vVEemE4ASn3n8EZwakemkpNbLj/aMISEqMaplVZbWc8LURfMlSt228vUsO/5+S9qElnH5/Oc/b17+8pdn6vubv/mb5jWveY2ZM2eOOeigg8y+++5rXvGKV5hf//Vfzyz3R3/0R+YHP/hBsFwXdwtPLV/0VsOE1CE6n/QHDLqds6437ufQsi6//OUvbZvXtUqvH3zwQfP0pz/dvOhFL+pb1o/OF62n65GudfqZPxyoT3xCkjMWn/yHpUZ1rlmzxlxzzTXmpptuMnfeeadtcy7Lly+37e7mm2+2ddAIUORnNXA8AAAAAAAAAAAA2kOj5KfininpR7JAt7aVYDv77LOtRHACcJC8FP4ITl9ehkZ7xtA2nOTT+hpZevrpp9tRpo6dd97ZjuYK7VOZcbf4deIlFI1Ge8lLXtLd7ze+8Y3mhBNOsB3sg7j00kvNvHnzzMte9rLuum95y1vs9NB2FF+Acgtc0rTomuLa7qgjODVCWsu9/e1vt9cm5cMf/rCd9pnPfCa4josbZSrhpVvmSraGliPjj09Icsbik/+w1G1tV65caS655BIrPjds2JDOSVi3bp2VokuWLLGSFPlZHRwPAAAAAAAAAACA9tA4+elup+pGVOr//GhLl1NOOSWtzmD8UaDDRnvGkCiNyVJJUJVd9Sgud2wGPePzAx/4QPf4vOMd7zCXXXZZWstiSO7qNrmurP/v//v/gttT3Cg2iRw3wpaQJkR/sKBrgs4ntV+dW6HlXE499VTb1g8//PDurWsVnQO77LKLvX30Aw88EFxXcaM/da1w5/Mw2UrGE5+Q5IzFJ/9hqZGfuqWtbiV+yy23mHvuucfKUJcVK1aYpUuXmhtvvNGKUORndXA8AAAAAAAAAAAA2kPj5Kei0Z8SEf7ISv38i1/8wopLN/KyKFp31NGeRVC9qpYY7pacEjUhwXjffffZW9WqHs973vPMD3/4w7R2s+Ozn/2sLVPR6Lb8dl2cyFEdY2KWkLpFbVajqJ3AH3YOa0S1zsG77767T37qOcD6+Z/+6Z+C67pIsOoPOnSeaHlufVuP+IQkZyw+oQ9LPfNT1+df/epX5rzzzrOfFy7nn3++ufbaazOfdcjPauB4AAAAAAAAAAAAtIdGyk8971NSQCM/m4C7ta4ESGh/yoi7XWbo2Zp65qATMX/yJ39iRxSVyQUXXNAdfasRb/ntu0jiaBlkDmlCnPDUOeVueTvoOcOf/OQn7TLu1ra+/HTrvepVrzKPe9zjzK233ppZ14+/LYlUlRNajow3PiHJGYtP6MNSaASotqHRnQ8//HA3er1x40YrSB3Iz2rgeAAAAAAAAAAAALSHRspPRUIgP/qzrsyZM8fKjNB+lBFJEpWvEbGh+W77b3vb29IalY9uy/iiF73IbufjH/94sB7qXJbMcWIntAwhdYl73qckqK43aruh5ZRly5aZxz/+8eblL395d5ovP920733ve/b1+9///u60fNwoabddXedCy5HxxickOWPxCX1YSmzq1rd65rKe7alb4LrotdrW2rVr06WRn1XB8QAAAAAAAAAAAGgPvvy8Y/nyoOjMR8tNXH66UVlNGP258847D31W4GziRn2Gbsn5L//yL3be6173urQ21XHVVVeZHXfc0W7vRz/6UV9dFCd2dCvR0HxC6hI3AtNJSCW0nPLe977XLvvtb3+7Oy0kP5U//uM/ttMuv/zyzHQXf8SpGy0dWo6MNz4hyRmLT/7DUuJToztvuukmc91119k/CtEfkrhcf/31dvrtt99u1q592KzpBPlZDRwPAIDi6Bbt++yzT6PzsY99LN0bgJnThnNhEtFxAwgRai9tCAAAAIwXX37+3z33BmVnPlpu4vJTcaOi6j76UyPG3DP8Qvsxmwwa9XnhhRfaedq+brM5Dr71rW/Zbf7O7/xOX31cVFctI8kTmk/Kyfbbb9/4hPZrXBlVfuq2z1ruT//0TzPTJfg1XfGn//znP7fT3vnOd2amuzj5qT8UcAI1tBwZb3xCkjMWn/yH5aZNm+xtyC+55BJz5513mg0bNqRzEpwYvfLKq8x9991v7r//AeRnRXA8AACKI3Hhvus0NchPKIM2nAuTCPITYkgUhtpM0wNQFH1PcQEAgOL48nPtw+uCsjMfLVcL+elGER533HHpZuvJKaecYuspmRLaj9nE3Zoz9KzPfffd18478cQT05qMh8MOO8xuV89AzNdJcc9s1YjV0HxSTrbddttGZ7vttgvu17gyqvx885vfbJdbtGhRZrpbPzTq++1vf7udd+655/bNc/LTbVc/55ch449PSHLG4hOSnw888IC59NJLzfLly+1zPjXNZc2aNVZ+XnPNNfbWt1u3bp2I/Fy3foO5574HzLK7/s/ctvzuWkZ1Ux1V15mA/AQAKI4vfPKjW+oeV286E6EMmnwuTCLuWCE/IYZrJ/m209S4Ng9QFNd+9D8AABTHl5/KqgdXB4Wni+b7y09Ufu622272Q+C2225LN1tfXF3LftalG1128cUXZ6afc845dvqrX/3qtAbjQ++Htv30pz/djlzy6+Wi+RoNG5pHyokE4hOe8IT0XWkWv/7rvz5x+ekkvf5351l+mVNPPdVO/8AHPtA3z62j0en58/Oyyy6z897ylrdkpitFnjVKxhefkOSMxSf/YSmZ+cgjj9jlfvWrX9nR+n4WLlxon/t577332lvkinHLz7vvud9ce+NtjYrqXBTkJwBAcXzh0zSJ4eqN/IQyaPK5MG44VjAKbRI++pxxbR6gKMhPAIDZ4YtMF43s1K1t3TNA9b9e+yM+XSYmP92oqiY881O4L/llP+tSZYZuefvud7/bzpOcmQTuGYgnn3xyX92UmLQl5cXJzxUXnGMuX3yRuXLJrWbppeeY626/ziw66zpz+32rzKr1q8ytFywy5//kf8zFN19vFi2+1ay67zpz+fWrjFm8yCzqvJcrtM6qVea6cxeZ62+43Jx56a3GrL/OnNkpY9WK283tly4y51xwXVK27kC9ZoW5bskKk9VFxaiD/FTbVBvVtcZdb/LtVbd31nNuJa/86YobtalIZObnu3PkBz/4QWa6L1r1f9nXDDKz+Phyc1h8Qh+WEqC63a1ufysBp2i9a6+91j4XdtmyZWbjxo3p0uOVn3f9331BudiEqO5FQH4CABSnyRLD1Rv5CWWA0BsdjhWMAvITIAH5CQAwO/Iys2gmIj81elKjqTSaskkceuih9kMrJEJmEnd7zPztY3XrxB122ME87WlPS7c8fnQLUNUtNLJNcbcsPuKII4Lzy4q2MZvE3it37EeJxFmoDD9nn3126SLYl5/XrVlhFi2+yty6ZJFZ9IOLzeVLbjVXLT7HnHn9+ea6xZ2fz/2x+d53f2kWnbvI/FLSc/kKYzR/1e3m8h+daRbddH1nvTPN/15wnVl0vZ4fq/JWmBWLTzI/Pq2zfKfs/7XLrW+N/FT0/kk+uvfbfy8/9alP2Wmf/vSnM+u4DJOfN998s3nMYx5j/uAP/iAzXdc2reu2GbqlNRl/fPKCc1B88h+WGs2psrWcJOftt99uo2c0X3nllfZZoJKg99xzjx0hOs7b3q5e83BQKjYp2odRQX4CABSnyRLD1Rv5CWWA0BsdjhWMAvITIAH5CQAwO0JCs0gmIj/32muvRn5ZXrVqlb2FZVm3e3Wj0SQS/ek/+clP7PS/+Iu/SLc8GZ73vOeZRz/60eahhx7K1E9RR7PqKMmTn1dmtA2NjNV2ikTPadS6w+Snlgutr7gyRpGfVRwLbns7++gPC/Te6A8u1I7cuXvHHXeYxz/+8eblL3+5feZwKH//939vDj/8cBuJ0tAyH/nIR2z5X/3qV2257pa3Oqf1hwH6mdHR9YhPXnAOik/+w3Lz5s1m9erVdoTneeedZ7N48WJ7W2Td9vaXv/ylff/13E/dQnyc8vOOu+4JCsUmRfswKshPAIDiNFliuHojP6EMEHqjw7GCUUB+AiQgPwEAZkdIaBbJ2OWnGzF45JFHpptqDu5ZmGVJLic/84JOtwLW9FNOOSXd8mRwt94999xzM/Vz0TyN3g3NKyvaxijyMR8nN4fJz9h8xS0zKfn5a7/2a1Y+b7/99o2L6q36h/ZrnHHvoaSkLybdLWvLykte8hIrXzTqU5LV/Vx2myAzj09IcsbiE/qw1OjP++67zz7z84orrjArVqywt7mVYL/++uvtqE+fccnPG25eFhSKTYr2YVSQnwAAxWmyxHD1Rn5CGSD0RodjBaOA/ARIQH4CAMyOkNAskrHKTycENPpKoyibxgEHHGA/tAYJsyJxo9Ly5f3Zn/2Zna6O9Enyuc99ztbjS1/6UqZ+LpI8mh+aV1ZU/rTLT42gbFrqIj8VN+LTjf7UqNQzzzzTnH/++aXmsMMOs+1AcjV2bpPJxSckOWPxCX1YCo0A1TZ061snQW+88UZz3XXXTUx+hmRiEzMqyE8AgOI0WWK4eiM/oQwQeqPDsYJRQH4CJCA/AQBmR0hoFslY5ae7DWQTR326L/n553POJpJlKlOdtv70Pffc005/8MEH061Phu9973u2HjH55+ofmjebSBgdffTRNoO2PyhOXB5yyCHdsvxouuaPIj91m+ZQGX60XNnyk9velhM32lzt6Dvf+U63XYSWnWl0a1M36lOStYr2QGYXn5DkjMUnJj8durWtrudLly61bULP/UR+zi6jgvwEAChOkyWGqzfyE8oAoTc6HCsYBeQnQALyEwBgdoSEZpGMVX6qc9I9R3HSt3Qtyu67726f9ymxEdq3mSQmD1/2spfZUXOT5uc//7mt39/+7d/21VFx9S/7mYaSVCrXZTbyc1hGkZ+jpir5ueKCc8zliy8yVy651Sy99Bxz3Z23mkWLbzW36+fbbzWX3/Z/ZsX115kVt99uli65vDPtOrPo0hVGumf9WWeaM29eYW6/7zpz+QWLzOVXXW/X7WzBrFjSWWdN8l6XzaTlp641EpwS1yeffHKmrbpRmWUJUCc+dX3Qz/vtt193W6HlyWTiE5KcsfgMk59i06ZN9g9XbrnlFnPnnXeaNWuyJxnys1hGBfkJAFCcJksMV2/kJ5QBQm90OFYwCshPgATkJwDA7AgJzSIZq/xUmihAVU/VdyYSbiZ5+ctf3gj5WVUkmCUeXWYinNXO/DJi0XKh9ZVRy3ApW3b58vO6NSvMosVXmVuXLDKLfnCxWXTbVeaiH51pFv3qCnPmjy4yt1/6fbPo2z82Jy1e1Fn+OnP5klvNCr2JndeLOvlxJws07+ffNQvOurwzr73yU+1Fz6JV25WQ1P9/9Vd/Zf/XdL2vTlDq/0FtYFg0ktQXn25EcZkjxEk58QlJzlh8RpGfw2iC/DzqH/7RvO71bzBPecpTSonKUpmhbQ3LqAw7HgAA0E+TJYarN/ITygChNzocKxgF5CdAAvITAGB2hIRmkYxdfirqpGySAHW3s5yNJCmS17zmNfbYTPq5qN/97ndtPXRb11A9SbWZ8W1v77vVLLpCozsnx6TkpxuFqXar29361xr3TE4JUAlSNwJUzwOVxAyVF4vWd6IT8dmM+IQkZyw+ReXn1q3K1kyaID9f/OLfNgv++3vBead++7tWaIbmxaKyVGZo3rCMCvITAKA4TZYYrt7ITygDhN7ocKxgFJCfAAnITwCA2RESmkUyEfmp+FLi9NNPTzdbTyRLJEhC+1FF3v72t9vjcvnll6c1mAzHHnusrccJJ5wQrCepNpKfEohNTmi/qooTn5KREp9uekyAankt50aH6hzXLXJjI401/eyzz+5KTkWi0xehiM/6xickOWPxKSo/16/fYB5Ytdrcc+/93TRBfkpuli0/i67jMirITwCA4jRZYrh6Iz+hDBB6o8OxglFAfgIkID8BAGZHSGgWycTkpyLxoA+Buo/+POaYY2w9JUtC+1F23Jer//qv/0prMBncyDj9UhOqJ6k2IZnYtIT2q4q4a4kbhZmfLzGi0dta5qijjuoKTwl+zdMtrd00RSJUzwt1cdNdnPTU7Y7dfMRnveMTkpyx+BSVn5s3bzYbNmw069at7wb5WSyjgvwEAChOkyWGqzfyE8oAoTc6HCsYBeQnQALyEwBgdoSEZpFMVH46uTbp27sO44orrrD1HNczP8866yy7vXe/+91pDSaDBNBjH/tYs3bt2mA9CalDholPF83TMhod+s1vfrM7GlTtXLd2ljzR7W+POOII89rXvtZG87Wcng2q81/byktPlTmuawOZeXxCkjMWn6LyMwTys1hGBfkJAFCcJksMV2/kJ5QBQm90OFYwCshPgATkJwDA7AgJzSKZqPyUhNDtJ+uABKwkZwwJDtU1tB9VRM96/I3f+I106+PnggsusB/Q++67b7B+hNQhko5qpxKUkh+hZfw4ASpxqdeSmW5EqKLpEqG6va3i1pEU1XTd3lbXAS3rpOco2yWTj09IcsbiM43y8+LLr7b5+XkX2tfITwCA9tBkieHqjfyEMkDojQ7HCkYB+QmQgPwEAJgdIaFZJBOTnxo5pQ+A4447Lt3k5LjtttvM7rvvbusjIavnAn7ta1+z0x2HHnqonR97HmDZ+Yu/+Au7va9//etpDcbLX/3VX9nt69a7ofoRMum4keOjik8XjeLUev40SVBNl9DUvEGRLEV6Ni8+IckZi8+0yc///v4P7c8uZ/3vL5CfAAAtoskSw9Ub+QllgNAbHY4VjALyEyAB+QkAMDtCQrNIJiY/dWtJfQD4gtGhL9Gnn356+qoYkpb6UDn++OODZefRaE8JT9VFdXK3wnTZeeedzYc+9CEbvZYkCe1P2TnvvPPs9n7v934vren4uOmmm+y2n/nMZwbrRsgkI8mhEZhqoxKgRSSknvHp1gvNVzTSU+e5BKeL/lhj0C11Sf3jE5KcsfhMm/zUzz8662yb7/7gR/Y18hMAoD00WWK4eiM/oQwQeqPDsYJRQH4CJCA/AQBmR0hoFsnE5Kees6c4dNtZCUvJRvfF4pRTTknnDkdfvP11XTSiU+IydEtbJz412ktyw9VNnaju2X/+LTEVjQ7z96PKzJkzx27zi1/8Ylrj8eBG1P37v/97sF6ETCo6N91tZwcJzFBmOlKUtCM+IckZi880ys9vffd0m28s+G/7GvkJANAemiwxXL2Rn1AGCL3R4VjBKCA/ARKQnwAAsyMkNItkIvJTI6h08T/yyCPt6EzdZtaNvnS3lHQjMIcJUH3hdh8m/jP4QvLSjeKU9FS5TnwOG9GlW92622JqndAyVcQdp8c//vFm6dKl6R5Xyze/+U27TR3/UJ0ImVR88anzPLRMLE586hxGfE5nfEKSMxafaZOf3/nBj+zPLj/9+XnITwCAFtFkieHqjfyEMkDojQ7HCkYB+QmQgPwEAJgdIaFZJBORn+7Wk/5Izde+9rWZW8qqI3OQAJXAdB8iipOe/nZcJBFDozhHEZ/5aBux7VSRefPm2br+4R/+Ybrn1XHppZea7bff3m7vrLPOCtaHkElE56n7A4kit57WubrXXnvZ9YqOFCXtik9IcsbiM23yUz9fs/RWm4UX/cq+Rn4CALSHJksMV2/kJ5QBQm90OFYwCshPgATkJwDA7AgJzSKZiPx0o7ckHyUkYgJSnZl5AepGirovH1pfIzND64eibUmUSrYWFZ+Tytve9ja7r7oNblVcc801XRn9qU99KlgPQiYRXQdmKj5neotc0r74hCRnLD7TKD8/9olPmb//yD+Zzx3/Bfsa+QkA0B6aLDFcvZGfUAYIvdHhWMEoID8BEpCfAACzIyQ0i2Ts8lMdlBqBqdGf+jm0jB8t4wToAQcc0P3SUVR6NjkPP/ywef3rX2/3+41vfKNZsWJF+jaVw89//nPzzGc+05b/4Q9/OFgHQiYVN1Lcfy7vsOja4MRnEWFK2hufkOSMxWfa5Oc55y8yb3jjm7rRPOQnAEB7aLLEcPVGfkIZIPRGh2MFo4D8BEhAfgIAzI6Q0CySicjP0PRB0ToaJaoPDI3YLCJB2pLVq1ebfffd1x6DZz3rWea73/1u+lbNDo3ydF/kPvKRjwS3Tcgko+f3qn1Kgobm5zPTW+SSdscnJDlj8Zk2+Rmah/wEAGgPTZYYrt7ITygDhN7ocKxgFJCfAAnITwCA2RESmkUydvk500hoTKP0zOdDH/pQ94vXgQceaBYuXJi+ZcX41re+ZfbYYw9bzmMf+1hzwgknBLdHSB3iRn8Pk5lOfOqPJSRNQ8uQ6YxPSHLG4lNUfm7atNmsW7fBrFn7cDdNkp8/O+d8c+Bb39bNhRdfjvwEAGgRTZYYrt7ITygDhN7ocKxgFJCfAAnITwCA2RESmkXSGPlJejn99NO7t/RUNBr2uOOOs8/tHIREqZ53+qIXvai7rm4lfPXVVwe3Q0hdIrGh22Wrzcae1Ssx6sRnU57nS8YXn5DkjMWnqPzcsGGjeXD1GnPf/au6aZL8XHjRr8z7PnBEN5cvuQH5CQDQIposMVy9kZ9QBgi90eFYwSggPwESkJ8AALMjJDSLBPnZ4Jx44onm937v97pfxBTJn1e84hXmj//4j81+++1n3vCGN5iXvvSldnSnv5zmnXnmmcFyCaljJDQlNtXG83JT4lPtGvFJYvEJSc5YfIrKzxDc9rZYRgX5CQBQnCZLDFdv5CeUAUJvdDhWMArIT4AE5CcAwOwICc0iQX62IBdeeKH5l3/5F/O6173O/MZv/Eb3i5mf5zznOXaUp0aILl26NFgOIXWPL0BvuOEGO03PAlUb161xJUDy6xCi+IQkZyw+yE/kJwBAm2iyxHD1Rn5CGSD0RodjBaOA/ARIQH4CAMyOkNAsEuRnC3P33Xeba6+91lx55ZVWEK1cuTK4HCFNjJ7lqS+PuvWzRjDrZ8QnGRafkOSMxQf5ifwEAGgTTZYYrt7ITygDhN7ocKxgFJCfAAnITwCA2RESmkWC/CSENC66za1GgOpLpAQo4pMMi09Icsbig/xEfgIAtIkmSwxXb+QnlAFCb3Q4VjAKyE+ABOQnAMDsCAnNIkF+EkIaGckOnu9JRo1PSHLG4jMt8nO//Q8wv/fKV5q//8g/BSORGZoey75/up+Zc+Dc4LaGZVSQnwAAxWmyxHD1Rn5CGSD0RodjBaOA/ARIQH4CAMyOkNAsEuQnIYSQ1scnJDlj8ZkW+XnuLxeb4z7/paDInElO+urXzfmLLglua1hGBfkJAFCcJksMV2/kJ5QBQm90OFYwCshPgATkJwDA7AgJzSJBfhJCCGl9fEKSMxafaZGfdcqoID8BAIrTZInh6o38hDJA6I0OxwpGAfkJkID8BACYHSGhWSTIT0IIIa2PT0hyxuLTJPl53U23B2Vik6J9GBXkJwBAcZosMVy9kZ9QBgi90eFYwSggPwESkJ8AALMjJDSLBPlJCCGk9fEJSc5YfJokP2+94+6gUGxStA+jgvwEAChOkyWGqzfyE8oAoTc6HCsYBeQnQALyEwBgdoSEZpEgPwkhhLQ+PiHJGYtPk+TnylWrg0KxSdE+jAryEwCgOE2WGK7eyE8oA4Te6HCsYBSQnwAJyE8AgNkREppFgvwkhBDS+viEJGcsPjORn1u3bs1kXPJTNHn0Z5FRnwL5CQBQnCZLDFdv5CeUAUJvdDhWMArIT4AE5CcAwOwICc0iQX4SQghpfXxCkjMWn6Lyc/36jWbVqtXmnnvv72ac8vORTZsaKUBVZ9W9CMhPAIDiNFliuHojP6EMEHqjw7GCUUB+AiQgPwEAZkdIaBYJ8pMQQkjr4xOSnLH4FJWfmzdvNhs2bDTr1q3vZpzy03HvylXmptvuDIrGOkV1VF1nAvITAKA4TZYYrt7ITygDhN7ocKxgFJCfAAnITwCA2RESmkWC/CSEENL6+IQkZyw+ReVniEnIT8dWJXcb3tokqeKMQX4CABSnyRLD1Rv5CWWA0BsdjhWMAvKzLiwy8x811yxYnr6EsYP8BACYHSGhWSTIT0IIIa2PT0hyxuLTdPnZZjgeAADFabLEcPVGfkIZIPRGp+nHatG8R5m5p61IX0FVID/rgMSn6o38nCTITwCA2RESmkWC/CSEENL6+IQkZyw+yM/6wvEAAChOkyWGqzfyE8qg6UJvnDT5WEl8qt7Iz+pBfk6YxfOTOh8018xFfk4U5CcAwOwICc0iQX4SQghpfXxCkjMWH+RnfeF4AAAUp8kSw9Ub+Qll0ORzYdw081j1RsDNPQj5OQ6Qn5NkhVnQaefzF3d+XL5gBPnpzo/5nZ+yuD8YsGU5nFhN038+ufJc/HLz85K48u325mVrEZrWJJCfAACzIyQ0iwT5SQghpPXxCUnOWHyQn/WF4wEAUJwmCx9Xb+QnlEGTz4Vx08RjteK0uak8SaTQMPkZFD7CSR9fxFi5lCzfN88ycxFk633Qgk6te4Sm1RHkZ00oID/nHjQ31+Z77TPTJgNtuHdOpet454E9n2ybTc6/7DmSLI/8BACAGCGhWSTIT0IIIa2PT0hyxuKD/KwvHA8AgOI0Wfi4eiM/oQyafC6Mm2YfqwLyU7cLDUkY7bubbmWoL5bycmd2Igj5WQ+mRX7OP62zrNcebVubN99rk0mbzQrSDvY8SIWo/3MfofWRnwAAMJiQ0CwS5CchhJDWxyckOWPxQX7WF44HAEBxmiwxXL2Rn1AGzRZ646XZx6qA/Jy3oLOsJ3GsRJpv5nsiRsv1leXLplmKIORnPZga+blYbdIt637222TyszsW2STtfFj77J+P/AQAgMGEhGaRID8JIYS0Pj4hyRmLD/KzvnA8AACK02SJ4eqN/IQyaLbQGy/NPlZF5OciK2rcsu7nnohJynLHIptEIM1WBIXWH1ZmXUB+1oRC8jNpX7bNaz3bzrw2acvqtc8QI7XPtJze+YL8BACAOCGhWSTIT0IIIa2PT0hyxuKD/KwvHA8AgOI0WWK4eiM/oQyaLfTGS7OPVTH52RNAvRFxPRGTSKFBZc1WBCE/68E0yU/X5hc5CZoR8sPb/ODRziL9o4GuzPTL77xCfgIAQI6Q0CySqPwMdQITQgghTYxPaH4sPsjP+sLxAAAoTpMlhqs38hPKoNlCb7w0+1gVlJ92+blmwWInQfPz3M8RZimCkJ/1YKrkp2uT3XUCbTJXnj0num0yIEi98yBZ3z8nkJ8AADCYkNAskqj83LJliyGEEELaEJ+Q5IzFp6j83LRps1m3foNZu/bhbpCf1cDxgLaRdA4lHW3KsI5agJnQZInh6t0W+WnP+QZ37jadZgu98dLsY1VUfvY+j906GRFjpU5P3Iis3JmdCLLzkZ8TZ7rkZ76NZeeJpN0mx8Omrz0m6/SWSdt4er5kz79s+fb8yqzbS1O/CyM/AQBmR0hoFgnykxBCSOvjE5KcsfgUlZ8bNmw0D65+yNx3/wPdID+rgeMBbSLWGdrUTh+oL02WGK7ebZCf3Y5k5OfEaLbQGy/NPlbF5WdeHvWNQkuFTi/+57eYuQjqk0x+an69QH5CeYx23tYV5CcAwOwICc0iQX4SQghpfXxCkjMWn6LyM0QT5OeyZcvMhZ26DYqWcSxZsiS4jB9/+SpAfkJ7CHfwZP8KH6AcmiwxXL2bLT97txecq/+RnxOj2UJvvHCsJk+fgK0hyE8oD+QnAMA0ExKaRYL8JIQQ0vr4hCRnLD7TIj+f97znmf32229gtIxYuHDh0OX33ntvmypBfkLbGSw/3aiS/GiTtIO0M8+/XVl+lEp/Z1JklIolPy9J5nZluQ7Z4aNkmtuh1XSaLDFcvRstP3UupOf1KDLDjQLrO1/syLTO+plrhBOrLvnrQ36+f1vE/Lwk3e2GbqM40q0V6wtCb3Q4VpMH+TlekJ+TBvkJADDNhIRmkSA/CSGEtD4+IckZi8+0yM+nPOUp6U9x3DKSnxKcg9Ayo5Q5G5Cf0G5SERHt6EyE5NyD5mYlpycqs7fQ65eZvQ6ldB1vW7aT1UqVUD2S5UeWnwFBktSpudKkyTRZYrh6N3vkZ4+R5WfnPJ+b+0MIJ0V78jN/XufP/fRc9srx5/fOeUeu4xn5OdVwrCbPKNeLSYP8BEhAfgIAzI6Q0CwS5CchhJDWxyckOWPxQX72QH4CjA/bydk3assnFZCnLTBzvc5QKzPmzffkZCIwsoK0gx2JmZbv/9xHaP2C8jNEw6VJk2myxHD1nj75ucAsmOefLzoH55r5nWldYemNKO3hCcwh55zqkh1hg/yEHhwrGAXkJ0AC8hMAYHaEhGaRID8JIYS0Pj4hyRmLD/KzB/ITYDwk4nOYUHACUoLCLet+9uVk8rPrwMsmEZ5OrmSlSY/++TOVn/m6NFeaNJkmSwxX72mUnyskN92y6c/+uWl/To9PPlZgDvwjhw5985Gf0INjBaOA/ARIQH4CAMyOkNAsEuQnIYSQ1scnJDlj8UF+9kB+AlTPaOJT9ASkpEd3ZJcVIZ6ctHKiJypD9MvNAGk5riNQGVl+eusOFCnw/7d3J2CSVHW6/1vBBQFxQIErOgIOAjrQOCIqi+AC6Cgom6KiIlwHFx7QUXAZFxaZ/4CM4B28bKIMdCMiDihXR5BtoEVsdmiahgakaQR7qd6Xarq6z7/ek3myTkb9IitOVUZWZtT38zzvUxWRERmRkRXdVfXWieiIXi4xwn5PyPLTn9e1clLrhXM/nLv+uVqdxyOVn172DxQoP1HDsUIRlJ9ADeUnAIyNVWimhPKTEEJI5ROzSs68xCg/h1B+AuXy5cWI5USQKTiPmOruCCVo/Fj980aBYRmxFKmNABsqaeLnr+93i/LTLFf9Nik/x0Mvlxhhvydm+Vlb/nt/1PlXO1/jx/znrc7jAkWl35/GucrITwzhWKEIyk+ghvITAMbGKjRTQvlJCCGk8olZJWdeYpSfQyg/gfKMWFwMExeQ9XKyUUI0l5O1524uKJpLDqMgjQrR4fs2ivIzXt8XJvH+opN6ucQI+z1Ry8/aeZk5tzLncdPz1c+1pn8nhj1ePw+H/UEC5SeGcKxQBOUnUEP5CQBjYxWaKaH8JIQQUvnErJIzLzHKzyGUn0BZ6qWFmbxC1Cg4MyVIeExqBWT0vI1lg+w+1LdbL1uaR442P78vcJrWHUpYr3kZlSW152h+XnRCL5cYYb8nbPnZ8ryX7Hnc/O9AKDSHHq8Xl+EPEpr2xSo/43Xj5P071d0o9IrjWKEIyk+ghvITAMbGKjRTQvlJCCGk8olZJWdeYhOp/DzzzDNbJi4/3/zmN5vLhBx//PFuu+2288uXhfIT6GaZ4gRdo5dLjLDfVSk/KyEaJd5rKPSK41ihCMpPoIbyEwDGxio0U0L5SQghpPKJWSVnXmKtys/169cXSi+UnyosNZqzVbSMLFmyxB111FHmMnHOP/98v3xZKD+Bbkb52a16ucQI+0352UUoPycEjhWKoPwEaig/AWBsrEIzJZSfhBBCKp+YVXLmJWb9Z6lCc+XK1a6vb7GbN79vxPRC+dmLOB5AN6P87Fa9XGKE/ab87CKUnxMCxwpFUH4CNZSfADA2VqGZEsrPLsnDz/7FXXn3dHfOzb93Z994fSWi16LXpNdmvWZCCOlUYlbJmZeY9Z+lrF271q1e3e9Wrlo9Ynqh/NRITV3WtlUOPvjg+tLDXXHFFW7OnDn1qc6g/ASAdL1cYoT9pvxEO1DoFcexQhGUn0AN5ScAjI1VaKake8rPOVPcIYP/IZz+h+GP/WXqIbVvNg6f4v6SeWwsqT3v6W6a8Vgnc8ujs8zysErRa7ReOyGEdCIxq+TMSyyv/EzRK/f81L08W0XL5FF5qmU6ifITANL1cokR9pvyE+1AoVccxwpFUH4CNZSfADA2VqGZku4vP/9weu0bjVOnNc9vQ7qh/NSoSKssrGIYAUoIGa/ErJIzL7GJVH6OhPITAHpfL5cYYb8pP9EOFHrFcaxQBOUnUEP5CQBjYxWaKWlb+bly5UrX19c3Yvr7+831zfKzxOJT6YbyU5eFtYrCKkav1ToGhBBSdmJWyZmXGOXnEMpPAOh9vVxihP2m/EQ7UOgVx7FCEZSfQA3lJwCMjVVopqRt5ef06dPdj3/84xHz+OOPm+sPKz9HKj7D440c4qbMyT5+upuWWS4uV0P5OSVcVtfHKEPr+5b3PEW2lZeW9/h8rM/1+7djrZvzmPF4I4+6OWu1WJ+71Xy8O6LXah0DQggpOzGr5MxLjPJzSLzM+eef784888xG3vzmN7vjjz++aV7ZZSjlJwCk6+USI+w35SfagUKvOI4ViqD8BGooPwFgbKxCMyVtKz+XLl3q7r77bnfhhReaufjii93s2bP9CFFr/abyM5SNLYvP5rJz2qn6ZiQqLkMRGd0nNLuMdS/RYc9jjEitrRdtv8C28mKVhCG3LlKjWdO/6FFzmVp6o/xUrGNACCFlJ2aVnHmJUX4OaVV+7rbbbu6LX/xi0zzKTwDoPr1cYoT9pvxEO1DoFcexQhGUn0AN5ScAjI1VaKakbeWnsnjxYnfXXXf5ojMuPq+44go3c+ZMt3r1anM9n1AyTh0aZZk3ctIXi9liNFuIGgVptsgcVmL6THOnDy5zyNTa/Sn9MlGp6ZMtRAtsKy9WQVhLKDRXuD6z2HzG9fm3alBmmQdXaOYK92B92VqJOjR6tPZ4MLRcWG9Oo3TNjDhtjESt6Xt26LG4qG1VwlrHgBBCyk7MKjnzEqP8HNJqGS572330wzYhhFgJv9Dt1fLTek2EjCa9ei50Wlx+WseRkJDwNdLr4vIz+xoJKZKqnAsAMB6sQjMlbS0/lRUrVrjbb7/dXXbZZb74vOqqq9x9991nLtuUelnov6k4dVp95GS2mBye2nIh2fIzM/LSKj+zxeZgzHJ1MI2RovU0l5+tt5UXqyD0qReNGvGZLS+VWlFZnxdKyVA6PqsHw/KZUaF6LHwe1lvxTPScodSsl6v1x8J0GIHaVLD67eWt1xzrGBBCSNmJWSVnXmKUn0MoP3tL/L0LIYRY6dXyk5B2h/Kztbj8JGSkVKHwictPQkYbyk8AGB2r0ExJ28vPkFtvvdVdc801xYpPJZSfjdKxNgLTKidrZWP4T6ReeGZHX7ar/IxL2bButtgsofxsKjyjIrT2eLZgzF72Nioqh61bS9Poz6bys0Vpmilgm58rM4K0sS/NsY4BIYSUnZhVcuYlRvk5hPKzt4S/OiaEkLz0WuFjvQZC2hHKz9Z0fKzjRkheep3KT+t1EZIaAEA6q9BMSWnlZ3KssjCUnE2jMP/iphyenReWbUf52fz8vggtdNnbdpaf2TLTLjfzy8+hAvLBzKjRxuVp/brNz9NcYjY/pzX6tJb6csMMlaFxrGNACCFlJ2aVnHmJTZTyc9999/XlZqtomTy6x+ecOXPqU51B+QkAAAAAAABUh1VopqS7y8/BhEvNDs2vjQjNLjfsMrlFy8/sMk33/KwVoeH+nyHD9qnd5Wf9MrKWpkvL5paj4TnWuv6m+a1L1FblZ/OlbZuTHfnZKtYxIISQshOzSs68xCZK+dmLOB4AAAAAAABAdViFZkq6vvxsjMRsFJv16Xg0pi8ftUxaIRlKzPi5aiXq0HrZ6fAcWq9Rira5/KyViZlRlub9OevLZO/56VMvNgfFl7yNi8rmUaAjlJ+ZorRpJCj3/CSEdHliVsmZl1hq+bl27YBbvbrfrVixqhHKz3JwPAAAAAAAAIDqsArNlPRA+anU7//ZKEDDdMjpblp9/ZRCMlz2dlooQZW8y+CGx/0+1LcfLr3b1vIzO6ozJFxeNlNOytoVrq+pqKylZYnqNY8MbV1+ZtdtHgXaKFJl2L4PxToGhBBSdmJWyZmXWGr52d+/xi1ZsswtWLioEcrPcnA8AAAAAAAAgOqwCs2UdE/5OUFzzs2/N0vCKkav1ToGhBBSdmJWyZmXWGr5aaH8LAfHAwAAAAAAAKgOq9BMCeXnOOfKu6ebRWEVo9dqHQNCCCk7MavkzEuM8rN7cTwAAAAAAACA6rAKzZRQfo5zHn72L2ZRWMXotVrHgBBCyk7MKjnzEqP87F4cDwAAAAAAAKA6rEIzJZSfXZBbHp1lloVVil6j9doJIaQTiVklZ15ilJ/di+MBAAAAAAAAVIdVaKaE8rNLolGRuixsle4Bqtei18SIT0LIeCdmlZx5iVF+di+OBwAAAAAAAFAdVqGZEspPQgghlU/MKjnzEqP87F4cDwAAAAAAAKA6rEIzJZSfhBBCKp+YVXLmJUb52b04HgAAAAAAAEB1WIVmSig/CSGEVD4xq+TMS4zys3txPAAAaLO5U92hkya5SU051E2dW38cAAAAAEpkFZopofwkhBBS+cSskjMvMcrP7sXxAACgzf74PTdp0vfcHfVJAAAAAOgkq9BMCeUnIYSQyidmlZx5iVF+di+OBwAA7fXcFYe6SUdMdc/VpwEAAACgk6xCMyWUn4QQQiqfmFVy5iU22vJzfRTKz3JwPAAAaK87TpvkJp1WfNynL0snTXKHXpGpS8Plc5uK1Ofc1CPiy+kOH2Eani8kft7sYz7h+f32Mpfnteb5ka1D6xd+fgAAAAAdYRWaKaH8JIQQUvnErJIzL7HU8rO/f41bvHipmz+/rxHKz3JwPAAAaKdsOam0vt9nbaTooe7QTEnYKBIb8+9w3xucHl42DhWgteloe/UC9Xt/HPzcl5bN+1LbdvHyM7u97D41PZ9XOx7Dil0AAAAApbEKzZRQfhJCCKl8YlbJmZdYavk5MDDgC9CVq1Y3QvlZDo4HAADtVCsDm0Z+GqVjLBSGU0+Ll9HzHOq+NzivUSbqeZqKRYnLxRGKRmP9tPKz9vy+SI3511crRIeXn8MLWwAAAADlsgrNlFB+EkIIqXxiVsmZl1hq+Wmh/CwHxwMAgLLVR4PmXAq3URiqRAzL1D+Py0T/uYpVI7VysVY0DisnG4Y/nlZ+1otdM1H5mX2sqQwFAAAAUDar0EwJ5SchhJDKJ2aVnHmJUX52L44HAADla3Uf0KECUuVirUTU8iop43LSP0fLInGk8rPGP49VTo5UfvrPWz9/U5nqtS5+AQAAALSfVWimhPKTEEJI5ROzSs68xCg/uxfHAwCANrIKxHoBmHfp12zB+b0/DpWg8WP+86b7bWaNcNlb8ZeoHdq/prJypPKzXq62ev7h5ac9DwAAAEB5rEIzJbnlp/VLYEIIIaQXE7Mez0uM8rN7cTwAAGin4SMdRyotm8pBX04Ord9cHNYvOxuPosyMxhy+rbgQHV5eNj3/iOVneP7mZeIRqc37W+MfZ+QnAAAA0DFWoZmS3PJz9erVjhBCCKlCYlbJmZdYL5Wfs2bNys2jjz7aSHZeyjJhXvwxm7x14nlhutU8fWyF8hMAgHarF6AqKn1ajdbMFobNl64dXibWC9Ao2cvQ1grKocdrZWfYp+Z9aXr+epEarzuUofWyzx/v37DHfFq/fgAAAADtZRWaKaH8JIQQUvnErJIzL7FeKj/XrFlTubRC+QkAAFryo1EpMAEAAIBeYRWaKaH8JIQQUvnErJIzL7FeKj8nGo4HAABoifITAAAA6ClWoZkSyk9CCCGVT8wqOfMSo/zsXhwPAADQEuUnAAAA0FOsQjMllJ+EEEIqn5hVcuYlRvnZvTgeAAAAAAAAQHVYhWZKKD8JIYRUPjGr5MxLjPKze3E8AAAAAAAAgOqwCs2UUH4SQgipfGJWyZmXWGr5uXbtwOC2+92KlasaofwsB8cDAAAAAAAAqA6r0EwJ5SchhJDKJ2aVnHmJpZaf/f1r3JIly9yCBYsaofwsB8cDAAAAAAAAqA6r0EwJ5SchhJDKJ2aVnHmJpZafFsrPcnA8AAAAAAAAgOqwCs2UUH4SQgipfGJWyZmXGOVn9+J4AAAAAAAAANVhFZopofwkhBBS+cSskjMvMcrP7sXxAAAAAAAAAKrDKjRTQvlJCCGk8olZJWdeYpSf3YvjAQAAAAAAAFSHVWimhPKTEEJI5ROzSs68xCg/uxfHAwAAAAAAAKgOq9BMCeUnIYSQyidmlZx5iVF+di+OBwAAAAAAAFAdVqGZEspPQgghlU/MKjnzEqP87F4cDwAAAAAAAKA6rEIzJZSfhBBCKp+YVXLmJUb52b04HgAAAAAAAEB1WIVmSig/CSGEVD4xq+TMS4zys3txPAAAAAAAAIDqsArNlFB+EkK6Nn19fe69732v22effXo+H/vYx8zXWHaOPvpo9853vtN8rF3pxDbGmphVcuYlRvnZvTgeAAAAAAAAQHVYhWZKKD97JLNnz+5orH0g3RmrsCkz1j6UmeOPP95NmjTJbbPNNm7fffftubziFa/w+3/BBReYr6/sbLbZZn771mPtSie2MdbErK/rvMQoP7sXxwMAAAAAAACoDqvQTAnlZ4/knHPO8eVCp/LLX/7S3A/Sfen018bUqVPN/SgrKqBe+tKXute85jVuYGCg/k9Ub1Aho33fbrvt3IoVK8zXV3YoP2uJZQvOVomllp/9/Wvc4iXL3PwFfY1QfpaD4wEAAAAAAABUh1VopqSj5eef/vQnd8MNN3RNZs2aZe5nNyYUXKecckrp0Qg7bYsCtDcSvja+9rWvub333tt//trXvtZP77LLLn767//+792XvvQlt8MOO/jpvfbay09vueWWfvof//Ef3Wc+85lGiaVLtCoveclLfD73uc/5x/W5Hr/iiivMfSkrJ598st/uj370o/o/Ub3huOOO8/s9ZcoU83V1IpSftcSskjMvsdTyc+3aAbe6f41buXJVI5Sf5eB4AAAAAAAAANVhFZop6Wj5qfve6Rfk3RJdjlKFrLWv3ZZQcN133331t6g82sarX/1qv71OFaDd9rWhTJ482f9C3drfbkr42jj44IMb+/3nP//Z7bfffn7605/+tJ/ebbfd/PSJJ57o3+NwOdaf/vSn7pZbbvHTKrGuueYaP0+PaVrLap4e33TTTd2rXvUq/9jPfvYzc3/KiN4H7ctWW23lp3vBE0884TbYYANfQGdfTydD+VlLzCo58xJLLT8tlJ/l4HgAAAAAAAAA1WEVmikZl/JTRct4R2WOfmHfKwVoJ8tPiQvQ//qv/zL3qZ0JXxvf/e53fTRiLpRzKus0TyMZd9ppJz/vwAMPbCz7vve9z8973ete17S+Ljc62vU10lHzeqEADV8biopOvXeh6NRryRadocjU17/OhWzRqRGhmtZrX7x4sTv33HMbj2v597znPe6FL3yhn3fllVea+1RGTj31VL/Ns846q/5V2t2OOuoov7863tbr6VQ6UUx2YhtjTcwqOfMSo/zsXhwPAAAAAAAAoDqsQjMl41J+dgsVPfqlvYqgiy66yNznbkmny0+59957O1aAxl8bKuNCOafiSOKRiyr4gqOPPtrPC0WdjHX9eNnwWDcXoOFr46tf/Wqj6NRr13HIFpuhyFTRq+n49et1f/jDH/bTH/rQh/zxiB/X8uG4qNgLI0B//vOfm/vV7mh/Nt98c/9adP/MbvbII4/4gvgtb3mL+Vo6GR0vvU/WY+1KJ7Yx1sSskjMvsZHKz/Xr1w9LFuVnOTgeAAAAAAAAQHVYhWZKJnT5KSp0wi/uu7kAHY/yUzpVgIavDd1zVB9DOSf6qEJP81XmiYqwuMwMxeVY14+X1TEP5aGer1tHCIevjTAyMhSd4ViE4jJbdLa6LG72+GjEZ3wMw3EJ9wC96qqrzH1rd84++2y/PY1oHSu9xksvvbRxr1vl2muvbXwtjEUokW+88UbzdXQylJ+1xKySMy8x6z/LdevWuUWLFrkZM2b4fyPuvPPORjQ9e/Zst3Tp0vrSlJ9l4XgAAAAAAAAA1WEVmimZ8OWnqBjqpgJ0xx13dC9/+cubstFGG/mRZJtsssmwx8YSXd51JCpA/9f/+l/++JR1Cc/wtaGonAsFVCjZQqEn+rjtttv6+aEE0/J5o0CLrC/xsir7wryXvexlfr7Kv/EuQHXPS+1HiPZN0deGontM6n3VJX81veGGG/rX86IXvchPv/jFL25Mv+AFL/DLaXmtp2k9l6a1Xjg+OgbaVjgu8XH+3e9+1yhAr776anOf25lly5a5bbbZxm288cZu4cKF/j0aDb0uvSbtdzaaH0YMj8YDDzzgn+eAAw4wX0Ono/dN+2M91q50YhtjTcwqOfMSy/5nqeJz+fLlbubMme6xxx5zc+bMcc8880wj+qOCWbNm+fu/9vf3+5GglJ/l4HgAAAAAAAAA1WEVmimh/KxTIabRfdq/8S5AVX7uvffe7iMf+Ujp0ev9/Oc/Xz8K+couQMPXRt4laVUiiLYdijiVcqKiMx6lGBRdX+L7XIaSNB5FGkZVat3xLEBVfn7wgx90Bx98cKO8e+c73+nvwxmm3//+9/tpFZyKlt1999395yo3DzvsMD+tZXXpWk3/3d/9nZ/Wx/jxXXfd1X/UcVHxGY8W1XQ47mHbv/zlL839bmcuuOACv62vfOUr/n1KpX3X+qGwy0v89ZFi//339+tPnz7d3P9Oh/KzlphVcuYllv3Pcu3ata6vr8+/1yo7VXDGVq1a5Ud+PvTQQ74kpfwsD8cDAAAAAAAAqA6r0EwJ5WdEJZpKHu3jeBagofzshM9+9rP+9RYpQO+5557SCtD4a0PvQyjZwr0nJdyvUkVLPIozFG+6/KukrG8tq1ijSDWST/PGswBV+amyM4xc1WsOl6TV61Jhp8Svc7T3+Qz39NQ2tV58Wdxw3MM2TzvtND+yVI+XfX/YlStXuu22286PWk0tPLTf2ke99rD/et0aCbrvvvv6x3RsNV+Ph/e+qNtuu80/xyGHHGLu+3hEr0X7ZD3WrnRiG2NNzCo58xLL/mc5MDDgL2l7//33+3NJo5E1HTJ//nw/IlSjP1WE9lL5efzxx/tzYyzR6+4Uyk8AAAAAAACgOqxCMyWVLT9VCGlbraKSQ0VPGBUoKjvGuwDtZPkp//t//2//elMKUF0iVcfY2v/RJHxtZEu2wCojVbqFAkv7IinrW8vqsTAvjCLVvFCQ6qMuC6vtjkcBusUWW/gRnHrNKqCzRedY7/MZP65jGi5pq8vl6qNVroZtvuENb3CvfOUr/edljA6OM2XKFL+dIpdtjqnk1Hqh6NT+x8L9U0O5HL6uinrrW9/qS2CVYdZ+j0c6UUx2YhtjTcwqOfMSs/6z1KVvVXJq9Kfu8fr73/++kZtuusk9+OCD/p6gQa+UnyovzzzzzFFH/xZMmzat/mzlo/wEAAAAAAAAqsMqNFNS+fIzXMo2jgofJZScKrLiEkQlUHhsPArQTpefklKAXnLJJX7ZMspPvRf6qIJNrDJSrMvUan+Krm9d/lbPk11f8+KCUDS6T6Wglu10AapRmBr1qP3KHoNQdKrYi4tNq+jMvtbs69S8cHx0GVzNP+igg5q2qefMbvPAAw/005deeqm5/+3MLrvs4u9VOnfuXP++FBHKTxU7+qjiVvsd6OtF80NSys/rrrvOr/OpT33K3N/xCuVnLTGr5MxLzPrPUnT5W41I1j1ps9GIT40QDXqt/Bwtyk8AAAAAAAAAo2UVmimpfPkZRnhZUbmjoke/uNeIt9h4FqDjUX5K0QK0zPJT74WKOIkLuviStuEyrXpvNS0q64qsL9blb+P1Q+FllalaPpSEun+mHu9kAaryUwVjfKnabNEZ76PKvvg46HXExaZeY/Z1xqNH9VgYDRpilatxyax0ovzU5XW1rU9+8pP+vSlCx0Lr6PjF/zZo31XsXnvttY1jEr62itL9UTUq9/HHHzf3d7yi91mv0XqsXenENsaamFVy5iVm/WepS9mq5NQ5MXPmzKY88sgj/l6gKkaDiVR+hhxxxBH1ueWh/AQAAAAAAACqwyo0UzJhys9wb8QQjfxTuaPSR+WNlglFWDBeBeh4lZ8SCtAvfOEL9TnDlVl+hlF4cUGn90qyhVuQvbSrWOvr/bQuf2uNItX6mqf1wzy93rgk1PxOXwJ3yy239NvUPoSiM1yiVfsU9lH7rens6wjFb3it8eNaNx7JqcfD8dYfCRx66KH+84MPPrjpnqNaLhyXk08+2X/sRPmpvOUtb/GXmVXJVFQ431Xq6r3XdDxCXK9FBXCKK6+80q+r88baz/GM3lvtm/VYu9KJbYw1MavkzEss+5+lLnmrkZ1PPPGEmzFjhk9cfobpp59+enA53a921YQqP0XPoecqG+UnAAAAAAAAUB1WoZmSCVN+ajorFD/hUpihJIuVWYBqNIyVTTfd1L3qVa9yRx55ZNuS8kvskQrQMstPCSMPVUipWJO4YNP7Jnpv4ntUhjLTWl+PZYtTzbNGkeaVqZoXSkTRx1e/+tX+fpjtLkBVNMbRJWf1UZfb1ehCjTLcc889/efKHnvs4e83qX3UtMrzN73pTX5a+7b//vs3Cku9BpURYVpfa3ot8fHJHu/w+sO9P/VR8+LLB+vzTpefuseitnfIIYf496QonfOhsFP02vW1FI8I1bwidEnT7bff3r30pS/1ZZm1n+OZThSTndjGWBPLFpytEsv+Z6nL3fb19fn7fWqEZ39/f/2RGhWjs2fPdvff/4CbP3+hm7+gj/KzJJSfAAAAAAAAQHVYhWZKJnT5GUrP8NFaRlSKhQL0qquuMl/baPLe977XbbzxxsOiy6kq1mOjjfa9XQVomeWnNTIzLh7De6RyLpR3ev9Ey1vrx0VeuPytNYpUy4cyVb+sD+tbZWhc+v3gBz/wHzXdrgJUXxt6TkVfCy94wQvcRhtt5ItxfdS03ldNqxCNp1VM6l6Ym2yyic+GG27oR0fqMU3rMRWkmlb02sJoUh2fbNGbvc/nzjvv7Kff/va3+4+hZA7HSelU+anoWGmbDzzwgH9vWtF7euutt/roteh91KjWcH4r+roK0zoWI/nxj3/sl1Xxa+3feEfvo/bPeqxd6cQ2xpqYVXLmJTba8vOhhx5yy5cv95fIpfwsB+UnAAAAAAAAUB1WoZmSCVN+qpjRiMAQTausUsmhX8xqmVBsWcLz/cu//Iv52kYTlTZ/+7d/W99CebSt97znPX7/zzrrrPrckR177LF+nWwBWmb5qYQyUqxL0sbFYyinVGply0yJizytJ9rvUIaG9fXcYX2VYZJXhoZLx8YjS3/zm9/4ee36+ghfG2H/swVjKCLDtL7ONR0fg/g1qSDWdPy648cVXc42jJrV8+s45d1bdKeddvIfN998cz8/LLfXXnv5j50sP1U8aZsHHHCAfy9a0XIhoTQP9P6q/NXXSvg3Qce1leeff9695jWv8euofLH2b7zTiWKyE9sYa2JWyZmXWPY/S5WZ+hqYO3euP5/uvPNO/wcQIZrWpW/nzZvnL5ErvVR+jiWUnwAAAAAAAABGyyo0UzJhyk8rKnhCeRQKrzy9XH6KtjeaAvQf/uEffGJllp9hZKaKqLh4yxaPKltUNkhc6oX1ZbT38hQ9li1DJS4fwz7F229n+RlG7IaiM6+IDEVn3n049Zqyrzv7uC6jq8+VvCI1+/y6N632MT5OF154of+8k+WnomOi7d52223+PcmjEjm8bhXbFr1+HSctO1L5+cMf/tA/12mnnWbuVzekE8VkJ7Yx1sSskjMvMes/SxWgGuE5f/58P/ozG40MjUeE9kr5OW3atDFHKD8BAAAAAAAApLIKzZRMyPIzlDUhcbmWp9fLT9E2UwvQTpefomKtaPGo4k5llsoX7Y/Exane/7BsdtSkZEtBscpQPUdcBgbx+vrYzvJTl7fVtuIiUscjW1yG/dU+aDr7muLRnJqOH9e64bhoBKM+HnXUUU3PH4+01edhWpfO1eV04+V0WV1Nd7r8vP/++/2+6L6nreh4av9CWaqvE10CV8dBH+NjpY+t/ihC291iiy3clltu6b8+svvULQlfm9Zj7UontjHWxKySMy+x7H+WGs2pYnPBggV+G7oM7ooVK/x6vV5+tgvlJwAAAAAAAIBUVqGZkglTfqrM0Och+mWsLnup5YoIz9fL5afol/ApBWiny089Z1y8SbZ4DGVmttQTfcwWp1q+6L08s8Wh6GM86jHIrq/P21l+qozUtlsVkdn9zY52DfsYSuDs4/Fx1XQYbar7iOq9yD5/fMnfAw880BeOWi7M32qrrfzHTpefysc//nG/bV2COE94n/S6dQz0eTZ6reH9Dl8XljPOOMMvo3u+WvvTLdHr0X5aj7UrndjGWBPLFpytEsv+Z6myc9GiRe7ee+/1Iz+XLl3qnnrqKX+525BeveztSHRZ26I54ogj6muVh/ITAAAAAAAAqA6r0EzJhCk/NT0W4fl6vfyUlAK00+WnEoo20cdQRIV7NKrEs0Z2an+yxWlc8I2mDM2WjZK3vqbbWX5qVGHYtl5b9l6j2f2Ni05NZwvj+LK5er640I1Lzn/8x3/0n7/pTW/yH/X8Wj+7vb333tu97GUva5o/depU//l4lJ+PP/6422CDDfwlfFsJr1XRMQpfM4o+z34NWZYsWeKP1TbbbOOWLVtm7k+3RPup12M91q50YhtjTcwqOfMSG6n81L0/H3744UbZqcvhzp492z300ENu+fLl/hK5VSo/uwnlJwAAAAAAAFAdVqGZEsrPgsLzVaH8lKIFaKfLz7ziMRRR2VIvsO4Faq2fUoZmy0ax1pdQALaz/Nxwww398bCKzpT7f8aPa5+zhW52NGh4buX1r3+9Xz8cn/D84flUNsbz/+7v/s5Pj0f5qfzTP/2T3/5VV11Vf2dsek06dqG0i6P5ei2tfPOb3/TLXnTRReZ+dFPCa7Qea1c6sY2xJmaVnHmJWeWnLmv7xz/+0Y/wVOLyc82aNX4kqOZRfpaL8hMAAAAAAACoDqvQTAnlZ0FVKz+lSAHa6fJzpOLRGpUXF4PZ9VXKhPW1v0XKULGeM6wfb1+PhfWVdpafW2+9dcviUfubPSbZYjP7eHxc9XrC68yOFtVzv//97/ef656W+qiRt/Hzve1tb/OXvc3OV8ar/JwzZ4576Utf6rbffvvGZUZHovdQx0KvoYiFCxf6bey4445u5cqV5n50Uyg/a4lZJWdeYtn/LMM9P1W8Pfroo+6uu+7yl7rV59qm7vk5a9Ys/3X5/PPPV6b8/NnPfubLz1/84hf1OeOP8hMAAAAAAACoDqvQTEnly89Q5mh6LMLzVan8FP3iXvuh12YVoONRflrFo4o7zVPJEt7LuHhUMRiWHWn9UHLpeeJiULLPGVjr62M8wlIf211+hn3JFozan2zRmd3H7HR8XOKiM5Sq1nOHe4C+733v8/PD9nTsDjroIF8Cxtu58MIL/efjVX4qX/7yl/0+/OQnP/HvU7udcMIJ/vlVAFnb77bofdH+Wo+1K53YxlgTs0rOvMSs/ywDjQB98sknffH59NNP+39btb4KUF0aOej18lP3Wtbo8DPPPNOPku6WApTyEwAAAAAAAKgOq9BMSeXLz5BQmI1WeL6qlZ8SClDrMoadLj+t4jF7WVaJyzoVjzLWMlQf4zIzyJaGki0eRcu0s/zUZW/1nNrXbPGYHRmbfY3ZYxaPHtX64dgVee4wOjh+Pm3vxS9+sU88/8ADD/TT41l+qgRRafua17zGj7ZrJ93T8UUvepHbZZddzG13YzpRTHZiG2NNLFtwtkqsVflZVK+Xnyo8VXxKKEC7AeUnAAAAAAAAUB1WoZmSypafKqk0Wi4klFajVeXyUzSSpxvKTyUuM8P9J3VZ1ri4zBaPKt5Ccan3W7T8SGVoqzJTy1v3AtXIJ83LXpJX89pZfm6xxRb+ecP24uIx3v+42NR0fD9QvUfx6NHs6xypRA3Typ577umfPzzfdttt5y97m71krjKe5afy7W9/2+/Hf/zHf/j3p12OPfZY/7y//vWvze12Yyg/a4lZJWdeYpSflJ8AAAAAAAAAymcVmimpbPnZbpSfQ8osP0PxGJdp8b04rVGgcaGnYlT0mFWGWmWmdX9QfYxLQ4nLwFAOirapeUo7y099bYTthYKx1f0/s8dM7098XMJ+WkVn9rnj59IoR328+eabm47JkUce6Ud+xvvxqU99yn8c7/JT9+XcfPPN3VZbbeWn2+GJJ55wG2ywgdtrr72Gba+bE4rJs88+u7RstNFGfhvW9rslMavkzEsstfzs71/jFi9Z5uYv6GuE8rMclJ8AAAAAAABAdViFZkooPwui/BxSZvkpKtNU2mk6lJkqGq1RoNYozLwyNC4GA6vMtNbXY2F9lYNBXMbqYzvLz3BJ2WzRqeIxe4yy04o+D4Vu0aIzPHc8He6hqecKx0T5m7/5G3/Pz/hYnXzyyX7Z8S4/lX/7t3/z+6KP7fDRj37UP9+0adPM7XVr9N5ovzsRa/vdkphVcuYlllp+rl07MLjtfrdy5apGKD/LQfkJAAAAAAAAVIdVaKaE8rMgys8hZZaf2dJO4nIuFI8qI63i0hrFGUZAhueXbJnZan19DOtbl+QNo0j1eTvLz0033dRvL2w/FIzZYxRP67WOdL/PViVqOFbxtlRw6vGXv/zlfvlQOGs5XfY27EfYrtIN5afeky233NLv35IlS/z7NloPPPCAf13vf//7zW11cy6//HL3/e9/v3D0daLX+vd///fm461ibb9bErNKzrzEUstPC+VnOSg/AQAAAAAAgOqwCs2UUH4WpFJI+075Wf49P8PoRAllnOariJNscRlYZWhcDKqgE33MXhJX8tYPZWC4JK/WD9uPR5Fqup3lp742svufvf9nXHTqWMWFbLyfVtGZfe68balA1Edd9jYcI42+PfTQQ92GG27ol42PnT52Q/mp6J6f2p9vfetb9XdpdD74wQ/655k+fbq5nSrlqquu8q/14IMPNh/v1cSskjMvMcpPyk8AAAAAAAAA5bMKzZRQfhY0kctPFWaHHHJIU3Qsyig/9Yv0kYrLUODFozCtUZxxIRfK1CKXtA3rW5fUHamMbffIz7D/ccEY7v8ZT+vxuJCNj5P2M6/YtErU7LbCZW81ElAfdYy0jKY1KvSNb3yjn68RpldffbX/vFvKzxUrVrjtttvObbzxxv4+oKOhwlOv6fDDDze3UbVQfjYnRvnp/LkdClB91PnRDSg/AQAAAAAAgOqwCs2UUH4WNJHLT43u23zzzYeljPIzsIpLFXihuIxHYWZHcaqMDJd6jcvUvEvaWuvH5V9YP1sgSry+0s7y8yUveYnf/+xlf+OyNRSRRYvObGmq6Xi0aHZbWv8Nb3iDn1ZUOIcC+EUvepG/7G14LE63lJ9KOB4qcUdDX5sbbLCBmzlzpvn8VQvlZ3NilJ81//3f/+3/vXj44Yfrc8Yf5ScAAAAAAABQHVahmRLKz4ImcvmpMsza/3YmfG1ki71QPGZHJoo1ilOPhfXjS9LGZWp4ziKjQAOrjI3X1+d6vJ3l52te8xr/ekK5Gt//U9Oh6Az7oK/R7IjObNGZPbbxdLwtPW8oOVXCat5//ud/+vn6XNs78MAD3UYbbeR+9atfmbFe13hk5cqVbscdd/RlbWpBcsMNN/jX+5nPfMZ87iqG8rM5McrP7sXxAAAAAAAAAKrDKjRTQvlZEOWn/RralfC1YY3CDCMT41GY1ijOUNZpfl6ZmV0/vqRttlgULd9qFGm8vqbbWX6+6lWvahSbKldbFZ2ablV0xsWmVaJmi9y45DzmmGP858cdd5z/GIrVd7/73W6TTTYx97/bEgq9f/qnf/LvVVG77rqrL00ff/xx83mrGMrP5sQoP7sXxwMAAAAAAACoDqvQTAnlZ0GUn/ZraFfC10Yo3yRb4AXWKM64rAtlZFz4WZe0zVtf77Vo/bD9MIp0pPXbWX7qcsPh9eQVnZoeqejU8qHY1H4qcYka9j0UufEoWz239kXTSvbSuC972cvM/e/GvOUtb/GXr33iiSf8ezaSMJr3+OOPN5+vqqH8bE6M8rN7cTwAAAAAAACA6rAKzZRQfhZE+Wm/hnYlfG2ofBN9jEcmiorGuOQLxWO2CJR4JGPe+oF1Sd1sYSgjra+0s/zceuut/esJr6/IiM5WIzi1bHbEavbYhVG22ZJT+ehHP9q0vbe97W09M/JT+c1vfuP3++Mf/3j9ncu3bt06t9NOO7mNN97YF2DW81U1lJ/NiVF+di+OBwAAAAAAAFAdVqGZEsrPgiZC+amiRyMk43S6/JS4sNNxl7h0i0dxtrokbSj8RB9DmaqSULR80UvqjrS+tq+P7Sw/dc/PsRSdcamrfc0WneHYhecO29Io1/j1fuADH/Aftc1NN93UF576/Mgjj+yp8lPZa6+9/Gt55JFH/HuY5/LLL/fLfeMb3zCfp8qh/GxOjPKze3E8AAAAAAAAgOqwCs2UUH4WNBHKzxe+8IX+NWbTyfLTGoWZLfkkW9YFccEXykyVgtn1syMog9GsH7avz9tZfob3Q9vPHoNs0Vl0BGe26FSRHBed1ra+8IUv+Mes9Fr5OW3aNL/fOi55BgYG3Pbbb+9f/8KFC83nqXIoP5sTo/zsXhwPAAAAAAAAoDqsQjMllJ8FTYTyc/PNN/f3Q7Ri7X87E742QjGVHYUZLtMq4ZK0mq+yTrR8XPCF9cO9MuP1s2WfpKyft31Nt7P83GKLLfy2ihad2u/UolMJRae2lT3e8SV9TzvtNPeDH/xgWKz97+aEkazTp0/3713WBRdc4B8/44wzzPWrHsrP5sRSy8+1awfc6v41buXKVY1QfpaD4wEAAAAAAABUh1VopoTys6CJUH6qbLP2sxMJXxthFKXKxLxRmJoXikDRR+uSuCOtr/dURru+tf12lp/62mhVdGq7odjMXqpW+xlKWu2rprP7HopdPbem87a1ww47+I9z584197XXcv/99/vX8573vMe/fzE9vtVWW7ktt9zSv+fZdSdCKD+bE0stP/v717jFS5a5+Qv6GqH8LAfHAwAAAAAAAKgOq9BMCeVnQZSf5Sb+2lDpFI9eDLLlnMSXaFW5J3nrx5fUHc36I21fj7Wz/HzpS1/a2IeRis54P/S1mi06s689+1ri+39qOt6W7nupz6tSfiof+chH/Gu67bbb/PsYnH322X7+D3/4Q3O9iRDKz+bEUstPC+VnOTgeAAAAAAAAQHVYhWZKKD8LovwsN+FrIy71zjnnHL9vKiNDOWddEjcUfNLO9eMytNX64RKx+ryd5efGG288pkvVZovOfffdt6nYzJaqeff/1HY0XaXyc+bMmW6DDTZwb33rW/17KStWrPDnwDbbbOM/t9abCKH8bE6M8rN7cTwAAAAAAACA6rAKzZSMS/nZy6H8LCfhayOUeirdJC7nwiVxJR65GMrIbCkoqetr3kjra3lrfU23s/zU10b8mrQvoejUdjWdHcEZLlWrktYqOsPleVUMazo8t7aTPX5xOayPVSo/lWOOOca/rl//+tf+/Tv11FP99CWXXGIuP1FC+dmcGOVn9+J4AAAAAAAAANVhFZop6Wj5efzxx/uSq5dz0UUXma9tNAkFl0qq8U63lJ+61Ovuu+/uR1oqO+20k5+vj2GeHt9www3d1ltv7fbee+/G/Fe+8pVuk002GfX6Kv5S1w/zFC3XzvIzlI55RWfYpnWp2lBsalqlpsrMbNGpxzStZVvd//PLX/6y/7xq5eecOXP869p1113dkiVL/EjbHXfc0Vx2IoXyszkxys/uxfEAAAAAAAAAqsMqNFPS0fKTNEcFl0qGbsl4lp8qxt/xjnf4ZAtna54uV5qdV9b61rLWPKVd5bi+Nl74whf6qBBW9Lku1brRRhu5l7zkJe4FL3iBL2HDtN7DF7/4xX5aH/V4mNZymtZymtbzhOfWdKttKXruqpWfygknnOBf25vf/Gb/UcWftdxECuVnc2KUn92L4wEAAAAAAABUh1VopoTycxyjeyx2W6z9JJ3PkUce6Q499FD/MeSggw5qmk59PJ7W59np8LmSfS6liuWnyi2N+FTZ95a3vMVcZqKF8rM5McrP7sXxAAAAAAAAAKrDKjRTQvlJCJnQ+cY3vuHLvt/+9rfm41XLrFmzWua8887zx0Ojj63H48ybN8/cRjcmZpWceYlRfnYvjgcAAAAAAABQHVahmRLKT0LIhI5KkwMOOMB8rIrZZpttfLnZjlB+pqP8LAfHAwAAAAAAAKgOq9BMCeUnIWTCZ/Hixeb8Kmb33XdvWyg/01F+loPjAQAAAAAAAFSHVWimhPKTEEJI5ROzSs68xCg/uxfHAwAAAAAAAKgOq9BMCeUnIYSQyidmlZx5iVF+di+OBwAAAAAAAFAdVqGZEspPQgghlU/MKjnzEkstP/v717glS5a5BQsWNdKu8rOvr8+tWbOmPjWx6TjoeAAAAAAAAACoBqvQTAnlJyGEkMonZpWceYmllp9r1w4MbrvfrVi5qpF2lZ+rVq1yixYtqk9NbDoOOh4AAAAAAAAAqsEqNFNC+UkIIaTyiVklZ15iqeWnpV3lpyxdutQtXrzYrV27tj5nYtHr1uvXcQAAAAAAAABQHVahmRLKT0IIIZVPzCo58xLrtvJTVqxY4RYsWODmz5/vP06UhNer1w8AAAAAAACgWqxCMyWUn4QQQiqfmFVy5iXWjeVnsG7dOjcwMDBhotcLAAAAAAAAoJqsQjMllJ+EEEIqn5hVcuYl1s3lJwAAAAAAAABUhVVopoTykxBCSOUTs0rOvMQoPwEAAAAAAACgfFahmRLKT0IIIZVPzCo58xKj/AQAAAAAAACA8lmFZkooPwkhhFQ+MavkzEuM8hMAAAAAAAAAymcVmimh/CSEEFL5xKySMy8xyk8AAAAAAAAAKJ9VaKaE8pMQQkjlE7NKzrzEKD8BAAAAAAAAoHxWoZkSyk9CCCGVT8wqOfMSo/wEAAAAAAAAgPJZhWZKKD8JIYRUPjGr5MxLLLX8HBgYcP39a9zKVasbofwEAAAAAAAAgNasQjMlueWn9UtgQgghpBcTsx7PSyy1/FTxuXjxUjd/fl8jlJ8AAAAAAAAA0JpVaKYkt/xct26dI4QQQqqQmFVy5iWWWn4G66NQfgIAAAAAAABAa1ahmRLKT0IIIZVPzCo58xIbbfkZo/wEAAAAAAAAgNasQjMllJ+EEEIqn5hVcuYlRvkJAAAAAAAAAOWzCs2UUH4SQgipfGJWyZmXGOUnAAAAAAAAAJTPKjRTQvlJCCGk8olZJWdeYpSfAAAAAAAAAFA+q9BMCeUnIYSQyidmlZx5iVF+AgAAAAAAAED5rEIzJZSfhBBCKp+YVXLmJUb5CQAAAAAAAADlswrNlFB+EkIIqXxiVsmZlxjlJwAAAAAAAACUzyo0U0L5SQghpPKJWSVnXmKUnwAAAAAAAABQPqvQTAnlJyGEkMonZpWceYlRfgIAAAAAAABA+axCMyWUn4QQQiqfmFVy5iVG+QkAAAAAAAAA5bMKzZRQfhJCCKl8YlbJmZeY9Z/l+vXr3apVq92iRUvdgoWLRgzlJwAAAAAAAAC0ZhWaKaH8JIQQUvnErJIzLzG7/HTu+efX+gJ0xYpVI4byEwAAAAAAAABaswrNlFB+EkIIqXxiVsmZl5j1n2Uqyk8AAAAAAAAAaM0qNFNC+dnhPPzsX9yVd09359z8e3f2jddXJno9el16fdbrJoSQ8UzMKjnzEqP8BAAAAAAAAIDyWYVmSrqz/PzD6W7SpElu0uFT3F+sx3s0tzw6yywOqxa9Tuv1E0LIeCVmlZx5iVF+AgAAAAAAAED5rEIzJV1Zfk47dZI75NTT3SGTJrnT/2Av02vRiEirKKxqGAFKCOmmxKySMy8xyk8AAAAAAAAAKJ9VaKakbeXnypUrXV9f34jp7+83129kzpR66fkXN+XwSW7SqdPs5XosuiSsVRJWNXq91nEghJDxSMwqOfMSo/wEAAAAAAAAgPJZhWZK2lZ+Tp8+3f34xz8eMY8//ri5fshfph7iJk063U3LfD5smVOn1MpRXR7XF6TT3OmTDnFTptYvmavP59TXqReqtfmDiS6na21j+LxaEXvI1PpoxuzzGfuYzUj3+HxwRf3Ir3jGfLyRZ2sL9j1rPNZF0eu1jgMhhIxHYlbJmZcY5ScAAAAAAAAAlM8qNFPStvJz6dKl7u6773YXXnihmYsvvtjNnj3bjxC11q8lM9qzMQq0eblaORmVkT4qP40isn7/0KFl69sIBajfRlSUhseb5tWe2++HsU+6TO9I9ye1CsKhPOP66gfeuRXuQXOZenqk/FSs40AIIeORmFVy5iVG+QkAAAAAAAAA5bMKzZS0rfxUFi9e7O666y5fdMbF5xVXXOFmzpzpVq9eba7XyLBiMVNU1mOPCK0VlM2FaKZMDWnaTma9ehl6yOB6jf3wBWp9e/7zuBgtFqscbCQUmivsYvPWRWv9fGla5rE+1z/4ef+iR+vL1kvUMHq0/njQWK6xXt9Q6ZoZcdoYiSpr+9ytjcfiorZ1CWsdB0IIGY/ErJIzLzHKTwAAAAAAAAAon1VopqSt5aeyYsUKd/vtt7vLLrvMF59XXXWVu++++8xlszFHUBploy8/h420jEZnZuY1F6JKcynqtxsKUm1v8PN4XtPj9eccPvK0daxyMKRWNGrEZ6a8VEKBWZ8XSsla6fiom6NeNCzfNCq09lgoJ2vrrXVzHoues15q1srV+mON6foI1KaCtb69nPWysY4DIYSMR2JWyZmXGOUnAAAAAAAAAJTPKjRT0vbyM+TWW29111xzTeHiMy4VrcRFY2r52TxPyYwIjUZ2quj0y2ue30Zt2ebnqK8f7d/wbTTHKgdraS48h4rQ2uPDCsbMZW/jojK7rk/T6M9M+dmiNG0qYDPPlR1BGvYlG+s4EELIeCRmlZx5iVF+AgAAAAAAAED5rEIzJaWVn8lpcTnZ7IjQdo38zF7qdsocza/vQ5j3h/BYvH6cUIS2WqZF+Zm9h6dZbuaXn0MFZHbUaLg8bW3dpufJlphNz2mMPg2pL5c1dNnd5ljHgRBCxiMxq+TMSyy1/BwYGHD9/WvcylWrG6H8BAAAAAAAAIDWrEIzJV1TfmYLzqb4YnSo2CxeftaLycYla+vJubfoIaee7g5pPG+9OD3c2lY2eSNMh2KVg41RlpamS8vml6NDl6Jd2zwKs1WJ2rL8bL60bW0b9WTXGyHWcSCEkPFIzCo58xJLLT9Xr17jFi9e6ubN72uE8hMAAAAAAAAAWrMKzZR0R/lZLyPz76FZKxdDiVm8/BxMvTgdeu56IZpZ3z9ntA3FF7LZ/TJGqNbWrV02t7FcJlY5GMrE7ChL8/6c9WWa7/lZSyhIBxcauuRtU1HZPAq0dfmZHW0ajwTlnp+EkN5MzCo58xJLLT9l/fr1TaH8BAAAAAAAAIDWrEIzJV1RftbKw9aXja0VkbWCMan8VOrlqi83MwVnI5nRpUruftWXHUrrfVescnDYqM6QehmZLSelb0VzUenTskSt6V8bbWuE8jO7bvMo0FCk1gzb9yjWcSCEkPFIzCo58xIbTfmZRfkJAAAAAAAAAK1ZhWZKuqL8nAg55+bfmwVhVaPXax0HQggZj8SskjMvMcpPAAAAAAAAACifVWimhPKzQ7ny7ulmSVjV6PVax4EQQsYjMavkzEuM8hMAAAAAAAAAymcVmimh/OxQHn72L2ZJWNXo9VrHgRBCxiMxq+TMS4zyEwAAAAAAAADKZxWaKaH87GBueXSWWRRWLXqd1usnhJDxSswqOfMSo/wEAAAAAAAAgPJZhWZKKD87HI2I1CVhq3YPUL0evS5GfBJCujExq+TMS4zyEwAAAAAAAADKZxWaKaH8JIQQUvnErJIzLzHKTwAAAAAAAAAon1VopoTykxBCSOUTs0rOvMQoPwEAAAAAAACgfFahmRLKT0IIIZVPzCo58xKj/AQAAAAAAACA8lmFZkooPwkhhFQ+MavkzEuM8hMAAAAAAAAAymcVmimh/CSEEFL5xKySMy+x1PKzv3+NW7J0mVuwcFEjlJ8AAAAAAAAA0JpVaKaE8pMQQkjlE7NKzrzEUsvPtWsH3KrV/W7FipWNUH4CAAAAAAAAQGtWoZkSyk9CCCGVT8wqOfMSSy0/LZSfAAAAAAAAANCaVWimhPKTEEJI5ROzSs68xCg/AQAAAAAAAKB8VqGZEspPQgghlU/MKjnzEqP8BAAAAAAAAIDyWYVmSig/CSGEVD4xq+TMS4zyEwAAAAAAAADKZxWaKaH8JIQQUvnErJIzLzHKTwAAAAAAAAAon1VopiS3/LR+CUwIIYT0YmLW43mJUX4CAAAAAAAAQPmsQjMlueXn6tWrHSGEEFKFxKySMy8xyk8AAAAAAAAAKJ9VaKaE8pMQQkjlE7NKzrzEKD8BAAAAAAAAoHxWoZkSyk9CCCGVT8wqOfMSo/wEAAAAAAAAgPJZhWZKKD8JIYRUPjGr5MxLjPITAAAAAAAAAMpnFZopofwkhBBS+cSskjMvsdTyc2BgwPX3r3GrVq1uhPITAAAAAAAAAFqzCs2UUH4SQgipfGJWyZmXWGr5uXr1Grd48VI3b/7CRig/AQAAAAAAAKA1q9BMCeUnIYSQyidmlZx5iaWWn7J+/fqmUH4CAAAAAAAAQGtWoZkSyk9CCCGVT8wqOfMSG035mUX5CQAAAAAAAACtWYVmSig/CSGEVD4xq+TMS4zyEwAAAAAAAADKZxWaKaH8JIQQUvnErJIzLzHKTwAAAAAAAAAon1VopoTykxBCSOUTs0rOvMQoPwEAAAAAAACgfFahmRLKT0IIIZVPzCo58xKj/AQAAAAAAACA8lmFZkooPwkhhFQ+MavkzEuM8hMAAAAAAAAAymcVmimh/CSEEFL5xKySMy8xyk8AAAAAAAAAKJ9VaKaE8pMQQkjlE7NKzrzEKD8BAAAAAAAAoHxWoZkSyk9CCCGVT8wqOfMSo/wEAAAAAAAAgPJZhWZKKD8JIYRUPjGr5MxLjPITAAAAAAAAAMpnFZopofwkhBBS+cSskjMvsdTys79/jVuydLlbsHBxI5SfAAAAAAAAANCaVWimhPKTEEJI5ROzSs68xFLLz7VrB9yqVf1u+YqVjVB+AgAAAAAAAEBrVqGZEspPQgghlU/MKjnzEkstPy2UnwAAAAAAAADQmlVopoTykxBCSOUTs0rOvMQoPwEAAAAAAACgfFahmRLKT0IIIZVPzCo58xKj/AQAAAAAAACA8lmFZkooPwkhhFQ+MavkzEvM+s9y3bp1bvHixe6RRx5x99xzj7v77rsb0fQTTzzhli1bVl+a8hMAAAAAAAAARmIVmimh/CSEEFL5xKySMy+x7H+WKj5XrFjhZs2a5aOi86mnnmrk8ccf96Xon//8Z7dmzRq3fv16yk8AAAAAAAAAGIFVaKaE8pMQQkjlE7NKzrzEsv9Zrl271vX19bnp06e7Z555xvX399cfqVm1apWbPXu2e+ihh9zy5cspPwEAAAAAAACgAKvQTAnlJyGEkMonZpWceYll/7McGBhwS5Yscffee68f6anPV65c2YiK0ccee8yP/tQ05ScAAAAAAAAAjMwqNFNC+UkIIaTyiVklZ15i1n+WKkD/+te/urvuusvdcsst7uabb25E0w8++KAvQVV8CuUnAAAAAAAAALRmFZopofwkhBBS+cSskjMvMes/S5Wazz//vFu6dKlbtGjRsOieoLo8bkD5CQAAAAAAAACtWYVmSig/CSGEVD4xq+TMSyyv/NT9PJ9++ml/ids4ut/ns88+6+/9GVB+AgAAAAAAAEBrVqGZEspPQgghlU/MKjnzEsv+Z6niU8/95JNPuoceesg98MAD/mPI/fff7x5++GH3zDPPDC7X71atWk35CQAAAAAAAAAjsArNlFB+EkIIqXxiVsmZl1j2P0tdzlb385w+fbovOPv7++uP1GjEp0Z/qgSdN2+Bmzd/IeUnAAAAAAAAAIzAKjRTMmHLz1mzZpnzCSFD4TwhVUnMKjnzEhtt+fnggw/6S+MODKyj/AQAAAAAAACAEViFZkombPk5adIk961vfcv99a9/NR+fqNlnn33cO9/5TvMxMvESvh4oQUmvJ2aVnHmJZf+z1GVv16xZ4+bMmeNHd951113u7rvvbkTTM2bMcM8995wbGBjw61B+AgAAAAAAAEBrVqGZkgldfiqveMUr3MUXX2wuMxGjsiscl5tuuslchkychK8H5fjjj+ePBUjPJmaVnHmJWf9ZqgBduXKlLzifeuqppqgUnT9/ftP2KT8BAAAAAAAAoDWr0EzJhC4/9913X/e6173Of66P119/vbnsREpcdm2wwQbupJNOMperei666CJK8cGErwedK/rIHwuQvHzsYx9zl1xyiflYNyRmlZx5iVn/Wa5bt84tW7bMLVq0yK1YscIXofPmzfN/KKBofrx9yk8AAAAAAAAAaM0qNFMyocvP7373u/7F6uNmm23m53XyEp8XXnih+8EPfpCbq6++2t1www2NWMtkM5plQ77//e+717/+9f44nHPOOe61r32t/1zzHn30UfM1VDX/8i//0vh6mMileCg/5ZZbbmn8scDkyZP5YwHSFJWf+tp417ve5W688UZzmfFMzCo58xLL/mcZLnv7yCOPuAceeMD9+c9/9qM9//CHP/hMmzbN3Xffff55VJIK5ScAAAAAAAAAtGYVminpaPn5pz/9aVjhNl7RL+lD+SmLFy92J554op+vdOISn3/zN3/T2F63RUWXjsmnP/1pP/3iF7/Yl6PW66hiQvn5whe+0H886KCDxvW+l+N17qjk1OuPxX8sMN7HhXRPVH6+4AUv8F8XytFHH+1mz55tLjseiWULzlaJZf+zXLt2rf93UgWn/r949tln/fmgS9729/f7EaE6Brrvp0aFqiyl/AQAAAAAAACA1qxCMyUdLT/jS6p2Q+LyM9DInfgSn2UWfio/t9lmG3fppZc25Wtf+5rf/q9+9StfQoZotKbmZ5dXNP+jH/1oY9lvfvObLZf94he/2PTciuar7NLn+oV+cM0117hNN93UP66RkNZrqVpC+ZlNJ+97qe1oe9Z+dDpZcTGu8+Rb3/pWx44L6c5ky09lww039P/OWst3OjGr5MxLLPuf5cDAgC8477nnHj/i85lnnnFPPPGEe/rpp/1jq1at8tMzZ870+0D5CQAAAAAAAAAjswrNlIxL+alfhndDVPLl0WPx/UCvuuoq8zWNJaH8zArl58KFC+tzam666SY/f+rUqfU5NbqnnObr/pzBZZdd5ufdeuut9Tk1Dz30kJ+vy9pmab6KX0tcCm+00UZ+X6zXVJXklZ+KiuBOjIJV0aztaUSy9fXbyeTRiLfwdaHzZCLdD5QRr82xys+Q7bff3v3kJz8x1+tUYlbJmZdY9j/LcNlbFZ8qOHU+3HXXXb4M1aXCdTlcRaWoylCh/AQAAAAAAACA1qxCMyXjUn72EpWE8f1AdflR67WNJr1UfgYqwrTcBhts4C9rab2uKqRV+Rnyt3/7t6WU4spFF13kt6FRt73gpz/9aeOPBbrxPqnZy/mqpNVo1Ti6hK/2PSRc8lfz9X5kR7buscce/mtARTijXluXn+Hy0e95z3vG7Q8nYlbJmZeY9Z+lClA9v/5ARJe3ffDBBxvRv7cqRnXJ24DyEwAAAAAAAABaswrNlFB+FqBLfIbST/nkJz/ZlrKjF8tP0eim1772tX75rbfe2o9wsl5faj784Q+7d7zjHU1RCWkte9RRRw1bViMkrWU/97nPDVv22GOPNZf96le/6h9/zWte419fq4RCp4yyT69Pz91LwnkS/ligXedJkcTFZShhx5JQeFr3WlXZqbJ0q622apR9+mMAvd5OjQbVJYe7LRrdmT2OeTnmmGPc448/br62shKzSs68xKz/LFNRfgIAAAAAAABAa1ahmRLKz4JU+O22225+/1XutGPEX6+Wn6KiUcurAGzXJWA1ik7PGecjH/mIuewuu+wybNkDDjjAXNa61+zb3vY2c9kPfvCDw5YtEt2b03q+0aZXzxWNfovPExWI1utrd3S8slGBrPI8jkpqnbsqKnWv0vg9HGu0zU6NeN1iiy38uddNyRv1aUVfG2effbb52spKzCo58xKj/AQAAAAAAACA8lmFZkooP0eg0Wy6vGv4pb0KlHaNZuvF8jNbbrVr1KeiY93X19eUpUuXFl52yZIl5rKan11W67da9uSTT/avMS8a6aePGiFYxmg/fZ3p+Vvdl7ab6Hh+6UtfahwflcHddClYvUe61K3er7CPISrd49JUiQtTRQW/is04b3zjG/36GiXcqZK3m9PqsrdxTjjhBDdv3jzzOcpMzCo58xJLLT/7+9cM/hu23C3sW9wI5ScAAAAAAAAAtGYVmimh/MyhMueUU05pjA4ro+TqtfJT62y66aZ+uYMPPth8TVVJKB+z0Qg3fdx1111LHeWn59Z29PV37bXX+q/HbnXppZc2zhOd45269GvRqISNS0trmdHkiiuu8F8n3VTyjmfyys9wznzoQx9y06dPN9ftRGJWyZmXWGr5uXbtWrdq1Wq3fPnKRig/AQAAAAAAAKA1q9BMybiUn90S3Z/QojJn22239cuUWXL1Svmp4k3349TjG2+8sbv88svN11Ol5JWfnRzll7cP4xGLRqWGUcAaPdmOS0GT3k1e+Tl58uSu+NqIWSVnXmKp5aeF8hMAAAAAAAAAWrMKzZR0tPxUaaRCpxuiX8pny0+VOfvtt59/TGVO2SWXys9XvvKVZuLyIJuU5VOWjRMut6qPuryt5qnEaOdlbrs54WskZJNNNvHzOj3KT6ModcnV+Gu3kwn3YY3p0sehDNfXhpaz9p1MrGTLz5e//OVtux9wOxKzSs68xCg/AQAAAAAAAKB8VqGZko6Wn90U/XI+lJ8qc8J9PUOZ04mSS2XiDjvskJt//ud/biqiPvGJT5jLhbz97W9vLKvL0lrLhOy///5Nz61oZG4oOlV6nnjiif5zXbZSo0qt11DV6HjotStHHXXUhL20aXyp6uyloCfycSHDo/IznDO65+tzzz1nLjdeiVklZ15ilJ8AAAAAAAAAUD6r0EzJhC4/Ve5ly5xuu19hpxPKrnBMVIZOlNGecUIZ/Kc//cl8fKIkfD3El4LmuBArKj91b+Q777zTfHy8E7NKzrzEKD8BAAAAAAAAoHxWoZmSCV1+hqjMKeu+nr2WUHYpGj1qLTMRwojGWuKvh05cCpr0bn7+85+b87slMavkzEuM8hMAAAAAAAAAymcVmimZ0OUnZc7wqOx66Utf6i6//HLzcTKxoq+HTl4KmpCyErNKzrzEKD8BAAAAAAAAoHxWoZmSCVt+qsyx5k/0qPSciJe5JXa+//3vT/hLQZNqJGaVnHmJUX4CAAAAAAAAQPmsQjMlE7b8JIQQMnESs0rOvMS6sfzUa+vr63Pz5s3zo7MJmejRuaBzInveAwAAAGXj5zNC8tOOn9U4xwjp3Yzm3wCr0EwJ5SchhJDKJ2aVnHmJdVv5uWzZMrdw4ULX39/v1q9fX58LTGw6F3RO6NzQOQIAAAB0Aj+fAa2N9Wc1zjGgt43m3wCr0EwJ5SchhJDKJ2aVnHmJdVP5qdekbxb4hh+w6dzQOZI9/wEAAIB24+czoLjR/KzGOQZUR8q/AVahmRLKT0IIIZVPzCo58xJLLT8HBgYG/6Nd41at7m+kXeWnLhOhv5YCkE/niM4VAAAAoEz8fAakSf1ZjXMMqJai/wZYhWZKKD8JIYRUPjGr5MxLLLX8XL263y1avNT9dd7CRtpVfuo6+fzFI9CazhGdKwAAAECZ+PkMSJP6sxrnGFAtRf8NsArNlFB+EkIIqXxiVsmZl1hq+an/yJV164bSrvJTNwoHMDLOFQAAAJSN7zmBdCnnDecYUD1Fzmur0EwJ5SchhJDKJ2aVnHmJpZafFspPoLM4VwAAAFA2vucE0qWcN5xjQPUUOa+tQjMllJ+EEEIqn5hVcuYlRvkJ9B7OFQAAAJSN7zmBdCnnDecYUD1Fzmur0EwJ5SchhJDKJ2aVnHmJUX4CvYdzBQAAAGXje04gXcp5wzkGVE+R89oqNFNC+UkIIaTyiVklZ15ilJ9A7+FcAQAAQNn4nhNIl3LecI4B1VPkvLYKzZRQfhJCCKl8YlbJmZcY5SfQezhXAAAAUDa+5wTSpZw3nGNA9RQ5r61CMyWUn4QQQiqfmFVy5iVG+Qn0Hs4VAAAAlC31e865c+e622+/3f3617921157LenB6L3Te6j3EqOTct7wcx1QPUXOa6vQTAnlJyGEkMonZpWceYlRfgJj9+c//7n+WWdwrgAAAKBsKd9zzpgxw916663uucGfDQcGBupz0Wv03uk91Hup97QI/SJ+4ZLl7tmFi0uNtqFtBWsGP3/q6bnu3vsecPfce99g7o/SpunB554zuA1tq6iU84af64DqKXJex0XmaEL5SQghpPKJWSVnXmKUn0C6W265xR199NHuFa94hZs0aZJ73ete5z9qWvOvueaa+pLl4FwBAABA2Yp+z6lRgirLKD2rQ++l3tORRoDql/BWUVlmtE2VkTMefsQ9/fQzbsnSZW7p0uWlRM+tbWhbRQvQlJ/V+LkOqJ4i53VcZI4mlJ+EEEIqn5hVcuYlRvkJFLd48WK33377+bLznHPOGTbiU4//9Kc/dZMnT/bL3XffffVH2otzBQAAAGUr+j2nLpOq0YKoFr2nem9b6cSIz2y0TY34nPP0M25g3brBrC/9o0Z/aptFpPysxs91QPUUOa+tQjMllJ+EEEIqn5hVcuYlRvkJFKMiUyM7VXoWoeU222wzP0q03ThXAAAAULai33PqPpGM+qwevad6b1uxyslORJejXbx0Wb2gLD/alrZZRMrPavxcB1RPkfPaKjRTQvlJCCGk8olZJWdeYqnlZ3//Gn/5l4V9ixuh/ETVaUSnik+N6kyhwlSjRNs9ApRzBQAAAGUr+j3ntddeW/8MVTPSe2sVk53I3ffe5y9Ju3ZAIzPXlf5x8ZJl/j6gRaT8rMbPdUD1FDmvrUIzJZSfhBBCKp+YVXLmJZZafq5du9atWrXaLV++spFeKz9XrlzpfvGLX7gzzzyzKZqnx4Csfffdt/CIzywVpipA24kfkgEAAFC2ot9zUn5WV7eWnyoiVX6qmOxEtC3KTwBFFDmvrUIzJZSfhBBCKp+YVXLmJZZaflp6rfy899573RZbbGFGj6E8ukfmpZde6o455hifww8/3H3+8593Z5xxhuvW+wTpsrVWeanRnOeee259qjWVp6mjRlvhh2QAAACUrej3nJSf1dXNIz81GlMjMzsRbUvbLCLlZzV+rgOqp8h5bRWaKaH8JIQQUvnErJIzL7GJWH6qZDvppJPcwQcf3BTN69YCrtctW7bMfeUrX/EF82c/+1l33XXX+dx2223u4osv9gXodttt50fgdptPf/rT5qjP7373u27SpElu2223dddcc019rk2PqwBtF35IBgAAQNmKfs9J+VldlJ+1VK38nD9/vnvwwQfrU71j1apV/mpkveJ3v/ud/6Nv/b7pyCOP9L/vuPvuu+uPogzdcMyLnNdWoZkSyk9CCCGVT8wqOfMSm4jlZ6BvhqZNm+ajz7tNdlTqSOnG1yCzZs1ye+65pzv66KP9yM88c+fO9d+kHnbYYfU53WGzzTYz9zuUnyH77befHyWaR8u0y3j9kAwAAICJo+j3nD1dfq6d63557C7umKsW1GcU0H+rO2Xbz7pftvi72aUP/8KdctT73R7bvsFtve0ubp/DT3W/fHhp/dHe0Yny84FHnzTnt8pd997nFi1Z5p4fGPDlpPXx+Wj6wUefaPm49TF+fNGSpT1ffk6ZMsX/0fHb3/5298pXvtLnta99rf/5Wz/bPvHEE/Ulu0d/f7//HZb2TWXt/fff7/PII4+4OXPmuL6+vvqS3ednP/uZ/z2Nju/Xv/51981vftMdddRRfl43/tF3FYRjruOs4z1ex7zIeW0Vmimh/CSEEFL5xLIFZ6vEJmL5eeONN7pvf/vbvizUN0GKPte8m266qb7U+NI3ZtqvFKHM7Sah+Ez5RlPLap1ukVdaZsvPEJWguiRulkZ+tipHU3Tyh2QAAABMTEW/5+zZ8nPtXPebk97vtt72DUnlZ//tp7pdD5ri5tSns/rv+jf3wcHn3OOof3O/vPGP7vYbf+H+v8N3GdzO+925d/XXl+oNZZafc55b4C6/5nr3H//5S/fft/3JXCYvQ+WnCsrWOX/KNe6oL53ivnnWBW7J8pXmMiNF29I2i0j5Wa1TP9dpBNw73vEO93/+z/9x/+///T//x70rVqxw06dPd5dffrk74YQT3Otf/3p30UUX1dcYfwsWLHAPPfSQe/rpp33Jqf1dt26dW7NmjVuyZImbN2+eL0GffPLJ+hrd4zvf+U5u4aZzSo/pilhon3DML7jggvqcIZ0+5kXOa6vQTAnlJyGEkMonZpWceYlNtPIzlIr6qG/6n332WR99Hj823sK+pHjXu97VVH7eeuut7uSTT65PjY8vf/nL/nLCqb4x+PUznu+D7s+pS9Xqh0Lrfp+SV34qGi2aRfkJAACAXlL0e85eLD+XPvgLd8o/qpDUyMy08vOuf93FvfdHD9ensua6qYcMPufRv3Bz4qtzrn28Nv+Q/NK0G5VVfsbFp/Lrm/5gLpeXu+5R+bnUPb+2PkLT/DiYwY+h/KwVoOfXCtDo8ZHW1/SixUt7svx84IEH/AjP008/fdjvkLL++7//2y/70Y9+tD5n/Gikp0Z4Ll3aerS0ylD9PkfL6pK43UAjUjWi9j//8z/rc4bT/ur3PR354/VnrnafmXyc+7k1Un1ggbvjvBPc/nvs7LbbYTe3x5EnucvuW1Z/MDL/TnfeFz7gJu8wuNzkfdxhJ01192TfmpUz3cXH7eN2Glxm8hGnu18Zv2qcfdnH3E7f/R/X7j8BsY65ivP4+HbymBc5r61CMyWUn4QQQiqfmFVy5iU2kcpPFVq6xMvs2bPrc4Z77LHH/DJadjyNpvzcfffdG9/I6XIfBx54YPJztJO+udxxxx1H9ZeYTz31lHvTm97kxuMerBq1qfIyjN5UmWnJKz91j1DrMrmUnwAAAOglRb/n7Lny87lfuGNUer75U+4nD97qzk0qPx925++9izv3rvpk1vzr3Slv38Ud87O59RlDHvuxRpn+m8tbtRuVUX5mi8/LBj/XPGvZvPjyc3G9/BwhS5atcN846/zmAnRwnrVsXnz5ObjNIlJ+Vivz5zrdG3ObbbZxv/3tb+tzilEBeuWVV9anOk+jPPW7hBQaCaqid/369fU540fnzC677FKfyqfRuKeeemp9qiRPXee+dqCKTav8XOZ+9+Xd3HaTD3UnXnydu+Omq90ZR+8xuOwH3Nn3RfXkohvciZN3djsdfJK7+Lo73S1Xn+U+rrL0wHPdPY3F+t0dp+3mdjrpOvf0yn43++fHuZ32Oyt6fJB/npwSdox0zLfbbrv6VI1+p5b9g/qOHPNBRc5rq9BMCeUnIYSQyiem/1ytojOb7H/CE6X8vOSSS4Z9M9SKltU640XfpG277bb1qRrdq6DVX6mpaNTjP/7xj93HPvYxP288y88f/ehH7vjjj69P1XzoQx/Kzec+97n6UjW6/+d4jP7USM9zzjmnPlW75+fixYvrU0Oy5afKTetyt0He84xGmecKAAAAIEW/5+y98vPX7pRv/cI95kcu3ZtWfj4+xR2+7anu9uShS0vdb77wBrf13v/XPVSf0wvaXX62o/hUpt9zn+tbvNStqZeT+hhiTS82ClDNy1s+O61taZtFpPysVubPdV/5ylfc0UcfXZ8qTj+DqwC944476nM6R5e2VfE5mj+C1h8gz507/I8OOk3HT7/LEF1NSlfDinP++ef7x3SFrI9//OP+87YbWOZmXP0t98HJKj5zys+HLnDv3GE3953/if4xG5jrfn7s4PJHTHVP12fNOG9/t93k090tK+szRKNJB5/3sKn14z1wpztjcPqMP9YmXf//uO8MPvfZjVOm391z5v5u/wtm1qfbS8d8n3328Z9rxKemdVsoRZ+H36OVeswjRc5rq9BMCeUnIYSQyiemUsUqO7PJli8TofzUvSLe+ta3uqlTp9bnDLniiiv8N0dZWlbraN3xoG/Qsn8tqHLti1/8ojvooIP8ZT2yXv3qV7t///d/9/frCMaz/NQIyOxfjN5+++0tE9P9Rr70pS/VpzpDI36zl7nV67BGAofyU8vrh5pWNOJz8uTJ9amxK/OHZAAAAECKfs/Zc+Vnk7Tyc95Vn3Vbn3C9a30xzuHCfUA/cfn4lzMp2ll+tqv4VOLys2haFaAjpdfKT93W553vfKcfETka+sPk97///fWpztFVuqzfdRQxMDDgZs2aNerX3C76Xc4nP/lJ/7n+OFqXYo3z+9//3j+mIlTlXBnmX32cLz0nH/0TN+Oms8zyc8YFKjXPcvcM1GfULf3tSdHyM915++3sdjoz+7WvUaM7u+2OvdrN1+RztTL0jLv9g4Puq5WhYfqJqe6wbIHaRjrme+65p/9c77+m9XszRZ+Hr6kyj3msyHltFZopofwkhBBS+cR0SROr7MxGy8UmQvmpEi3vLx71jVDeaEqtM143/Nd+7bXXXvWpGn3jJtpffR7+YjBQ0fm9732vPlUznuWnvqnMHlt9o3/zzTebufPOO+tL1dx4440d+cY0pj8OyF6yVsXnbrvtVp8aoh9k4hGirWhka9FliyjrXAEAAACCot9zTpzyc6m78YS0+4NK/6NT3Bfe9Aa367GZ+4D2gHaWn7qvZzuKT2U05aeSLUD/75T/MpfLptfKT/0+4etf/3p9Kp3K06233totX768Pqd8un+nLl07lvLymWeeGZdb58T0O5Dtt99+xP049NBD3be//e36VHvNv+50952rZ7qlKjbvtsrPBe5Xx0XlZeyJqe6DYRTn/Ot8qfmZq4f/mzf7skMHn/csd4e20XLkZ7+75bu7ucMue8I/VAYdc13iOT7mOgeUWJnHPFbkvLYKzZRQfhJCCKl8snSDd6vwDLFuAD8Ryk/91d0PfvCD+lSzVuWn1gl/sddp2q/3ve999amauPzUKFCr/Nx7773rUzXdVH7q/huHH354br72ta/Vl6zRup0uP/PoeI+2vNSoT40Obdclb6WscwUAAAAIin7POWHKz6XXu29s+1n3y4RuZekd57jDffE5xT1W0qinMpVVfmoE6HiVnxrxWfXy81Of+pT7+c9/Xp9Kt3DhQn/p2+zVmcqkolWXvM3+wX6KRYsWDftj5vGgUYhf/epX61PDqVzW72puuumm+pwS5ZSf/vK2/9r8B+hefRSnLzzDiM5QakZqo0vD89bv+Xnc1W52uOfngRe4GSpGZ17g9s/e/7ME2WOuEj0eRdzJY17kvLYKzZRQfhJCCKl8LPpGUSWL/rNV4amPms77BjK1/BwYWOfWDP5Hu3p1fyPdXn6qQLv++uvrU81alZ9aZ7zKN+3XEUccUZ+qUQGne2jq3p/WpWD0jdx3vvMdt/vuu9fnjG/5qX0dy31Tx6P8VElp/bCkUZ56rNU9PS1a/hWveIUvQNuprHMFAAAACIp+zzlRys/+W051Wx80xRW9KOecq453eww+9wdPur7nRnwG7Sw/VXZqxGc7CtA/3X2vW7h4qet/fu1gBgp9XLS0edTnN848f3De8mHLWR8XLl4yuM3uLz/1M7TyD//wD43PldF417ve5c4777z6VPnmz5/vL1s7GipOQ2bOnNn4fLzo9zn6XcwhhxziHn/88frcGhV0ekzLdIRZfs51lx2xs9tu2OVsB8Xl51NT3WEqPxuXsx3SXH4OWjnTXXzcPm6nweUnH3G6+5X/VaNK1t3cib9dNvh5v5tx8XFuD92HdI+Pue9c/cTgnPbppmNe5Ly2Cs2UUH4SQgipfNohtfxU2blo0RL313kLG+mF8nPKlCn1qWb65kelopYJCbROp8u3QPsVbpIfqPRs9YOLvpm74YYb3AUXXNC4X6jmjRfdzyK+mbwK+He/+925OfHEE+tL1ujepeeee259qjNUcOYVlWEEp3X/T4uWV/FZdPkUZZ0rAAAAQFD0e86JUn7e9a+7uPf+6OH6VCv97qEffdTtuu0u7hODy5c84KlU7Sw/lXYVoCoia+WnCsqRYxefK8xlrWhb3V5+6vcXGq2Zzcknn1xforp0uVuNGs2mr6+vvkTnXX311e5tb3ubvxzrPvvs43/vpMvh6pY6hx12mP9dzQ9/+MP60iXqyMhPW///nN4YAdo/bfDzyYPLP9Hv+p8YfN7J+7sz7m7vv47dcsyLnNdWoZkSyk9CCCGVTzuklp+6dOk6Zd26Rrq9/DzttNOGXVK1CK2jdceDys9sGTiSUH7Kz372M3+PjvEsP3W/hVe/+tXu0Ucfrc9x/r6e1g8lysMPD/0iQSNbte+PPfZYfU554vtx6pvj7373u/5zSxgBut9+++X+IkCl54c//OGWRepYlXWuAAAAAEHR7zknRvn5sDt/713cuXfVJ1uYc9VnffH5havm1uf0rnaXn0o7CtDayM8lrjYys3U0utMe8Wkvb6U28vPe+qtuLeVntXb/XPeJT3yiqfh84xvf6J56Ku13Pr1ozZo1bsaMGU2/X5g9e3b90fGj8lW/m9HvdxR9vmLFCv/Y5z//ef87jwsvvNBPl6YT9/y0DDzhLjtiN/ed/6kVnHf8a1y26j6gO7udzk27slYR3XDMi5zXVqGZktzyMzxACCGEkFrGqtvLT13TX3/1lVIYa1mt05F7MBj0Tdq3vvWt+lQx+iYu3t/f/e53/nnGU/iGM9VHPvIRf9ncsqnoVOEZaJTmtttuW5/Kp+W03qRJk3wRGqKRnpMnT/Zlajvv8ZlV1rkCAAAABEW/55wQ5efjU9zh257qbh9poNKi69033vQGt/VbP+VO+fdz3PnDcn3hy+Z2gzLKTyVbgOp+oNZyeUkpP//v5f81puJT6ZXyU39sHJefZ511Vv2R6ps3b15T+RkKr26m2xbp9zi6alZpzPLTuRkX7O+2m3yWuydTXi797UmDyx/tfv6Mpma68/bb2e007PK4y9zvvryz2+6TV7un63Oy9Dw7NcrV+kjT6HnuObN5ulM6ccyLnNdWoZmSvN/nTopHqhBCCCETPROh/BRdfvXYY4+tT41My+qvJsfLaEpDfQM32vt5lEX32VBJeOWVV9bnjEyvQa+lE6655pph9/HUiE3NL0qjO0PKLDxjZZ4rAAAAgBT9nnMilJ/zrvqs2/qE693S+nSepb/5itt68Pny82+uwODRrlFW+anEBWhy+XnXvW7B4iVu9Zq1bvXzg2nx8adX/7ZRfPYtWT7i8tbHBYt6o/wUXcFKxeeBBx7of+czUegqZbpylIpPXQa3V+j3Pvr9R8rvTJLklJ/uoQvcO3cYGpnpDcytlZRHTG2UmjPOU0l6urtlZX2GPFO7HO5hU3NGt/ff587Y7wPuvJn16UGdGvlZRNnHvMh5bRWaKaH8JIQQQgpkopSf+gZ4hx12KDSSU8toWa0znvTNWEpSR4p2isrMnXfe2e/fX/7yl/rc4ZYsWdIob1VWf/3rX/efl0VFpVVyphaYGgWaUpa2Q5nnCgAAACBFv+fs7fITrZRZfoY88OiT5vxWURHpy08VlAVy/yOPm/OLRtvqlfJTl/1U+TkRz0v9LK/f46xdu7Y+pzeEMq6U3yvklZ/+0re7DT72Afe5i69zd9x0tTvj6D38dNO9OJ+7zn1m8s5uuwNPcBdfd6e75eqz3Mf30PRZ7p64EI3Mvuxjbqcv39D0xyK1e36e5H71XLjnZ3M52mllHvMi57VVaKaE8pMQQggpkIlSfspvf/tbt+eee7pjjjnGvO+FirlvfvObfhkti/bR/T/1zaXuOXLKKaf4klO5+eab/eVG/vmf/9l/4/nWt77VvelNb3Knn366e/vb3+7OO++8+jO0n0Zqxpe8zdI9V48++mj35z//uT6nmX6w+tKXvuQ222yzYaNHy1b2uQIAAAAU/Z6T8rO6OlF+jiZ+5Oei+sjPDsSP/BzcZhEpP6uV9XPdrFmz6p9NPP39I12bujvp9yVK2+WWn4MGFrg7zjvB7a8yc4fd3B5HnuQuu29Z/cHIc3e6877wATd5h8HlJu/jDjtpqrsnbxj8yv9x35n8MXfZE/Xphn434+Lj3B4qUvf4mPvOdeN/T+SyjnmR89oqNFNC+UkIIYQUyEQqP2XZsmX+m5vdd9/dHXDAAe6rX/2qjz7XPD2mZVCOUIK++93vdq9//evdLrvs4j7zmc+4n/zkJ27p0tp3z1OmTHEnnHCCO/jgg92vfvUrP68MI5WfKjd1T1BdBlf381RpG0aFfvrTn/b3+9T6nS4+pRPnCgAAACa2ot9zUn5WF+VnLb1WfgIYP0XOa6vQTAnlJyGEEFIgE638DPTXgDfccIO75JJLfPR5r/6FIEYnlJtFqCjVshoFGtYbj9Iz4IdkAAAAlK3o95yUn9XVreXnnXfd4+YvWuxWrXl+MGtzPoaM/XFt607KTwAFFDmvrUIzJZSfhBBCSIFM1PITEBWZeZe17WacKwAAAChb0e85KT+rq1vLzz9OV/m5pF5Ulh9tS9ssIuVnNX6uA6qnyHltFZopofwkhBBCCoTyExOZik/ds7PVTe712Lbbbluf6g6cKwAAAChb0e85f/3rX7uBgYH6FKpC76ne21asYrITuf0Pf3Lz+xa5Vf310Zklf5y/cJG7/Y4/1V91ayk/q/FzHVA9Rc5rq9BMCeUnIYQQUiCUn5jofvrTn/oCNFzSNqbL2+oxLdNNOFcAAABQtqLfc95+++3+3v6oFr2nem9bWbhkuVlOlhlt88GHZ7pHZz9ZKyc7EG1L2ywi5Wc1fq4DqqfIeW0Vmimh/CSEEEIKhPITGHLiiSe6SZMm+eg+nxr12Y2XxeVcAQAAQNmKfs85d+5cd+uttzL6s0L0Xuo91Xvbin4JbxWUZUbbXLlqlbvltmnugRmPuLnP/tU989y8UqLn1ja0LW2ziJSf1fi5DqieIud1XGSOJpSfhBBCSIFY/1muX7/erV7d7xYvWeYW9i0eMZSfQGdxrgAAAKBsKd9zzpgxw5dlGi1ICdq79N7pPdR7qfe0CP0ivhMjQLUNbStQGXn/gzPdb6+/yf3md78vJXpubaNo8Skp5w0/1wHVU+S8jovM0YTykxBCCCmQvPJzzeB/pitWrnLLlq8YMZSfQGdxrgAAAKBsqd9zapSgLpOq+0Ree+21pAej907v4UgjPpEv5bzh5zqgeoqc11ahmRLKT0IIIaRArP8sU1F+Ap3FuQIAAICy8T0nkC7lvOEcA6qnyHltFZopofwkhBBCCoTyE+g9nCsAAAAoG99zAulSzhvOMaB6ipzXVqGZEspPQgghpEAoP4Hew7kCAACAsvE9J5Au5bzhHAOqp8h5bRWaKaH8JIQQQgqE8hPoPZwrAAAAKBvfcwLpUs4bzjGgeoqc11ahmRLKT0IIIaRAKD+B3sO5AgAAgLLxPSeQLuW84RwDqqfIeW0Vminp3vLzyQXunTc+53PSjOX2MoQQQkiHQvkJ9B7OFQAAAJSN7zmBdCnnDecYUD1Fzmur0ExJ5cvPBTP+2ngen+lLmpdZ0OdO8o/91V23IJpPCCGEROmm8nPevHlu/fr19SkAFp0jOlcAAACAMvHzGZAm9Wc1zjGgWor+G2AVmimpdPk5rPgMiQtQyk9CCCEF0k3lZ19fn+vv769PAbDoHNG5AgAAAJSJn8+ANKk/q3GOAdVS9N8Aq9BMSYXLzyXuvOz6jeeMik7KT0IIIQXSTeXn6tWr3cKFC/nLRyCHzg2dIzpXAAAAgDLx8xlQ3Gh+VuMcA6oj5d8Aq9BMSdeUn7mjNK3c1ucWGM/RnKHy87wnw7zl7rrbMvOays+hx5XhpWvz4z55o0ifDJ/XMrQPIUP752O9psbzhVDQEkLIeKWbyk9ZtmyZ/2ZBfy3FDwBAjc4FnRM6N3SOAAAAAJ3Az2dAa2P9WY1zDOhto/k3wCo0U1Lh8jNTVOatM6xgbI5VnGbTKEmLPlfucgvcgyPuFwUoIYSMR1LLz4GBdW7N4H+0q1f3N9LO8lP0V1K6TISuk68bhRMy0aNzQedEyl8RAwAAAO3Az2eE5KcdP6txjhHSuxnNvwFWoZmSCpefgzELxEx5GC/TGMUZFZ1hXlgu2vaD03OWGeG5wnrxyNJh88IlehvbG3qe4SNSCSGElJ3U8lNl56JFS9xf5y1opN3lJwAAAAAAAABUjVVopqRrys9hGfM9P4fSKCmj2Je9NdZplJhRon1rWibnuYaW18jOzOVus7GKVKVo4UsIIaSUpJafupzDunXK0HNQfgIAAAAAAABAa1ahmZIJUX42EheKoUwsXH62KC2HFZbR5WuHzR+h/IxKzrzRsMPvH0oIIaTspJafFspPAAAAAAAAAGjNKjRTUt3ys2m0pTE/sfwcKiKHlhtWkOY8V97Iz6QSMzoejAIlhJDOh/ITAAAAAAAAAMpnFZopqW752Sgi4/Wj+28mlp8tR4IOKz/j5fLv+TlUYg6/n2ejbI2LzrxClxBCSOmh/AQAAAAAAACA8lmFZkq6t/xsQxolo5HUe37mXYLWxyo/hyV6/tzl4lKzwGV2G8sMPXdjP1ssQwghJD2UnwAAAAAAAABQPqvQTEmly09leGmZKQELlp9N88L8xrr10jJ+rifjgtMoHocVoNZozuEFaPMoWMpPQgjpVCg/AQAAAAAAAKB8VqGZksqXnx1NTpFKCCGk90P5CQAAAAAAAADlswrNlFB+tjOUn4QQUtm0o/y0/iMmhBBCCCGEEEIIIYQQ0r5QfrYzlJ+EEFLZUH4SQgghhBBCCCGEEEJI98cuP537/wGnOhY8/cmeHwAAAABJRU5ErkJggg==;" vertex="1" parent="1">
          <mxGeometry x="-265.38" y="730" width="1115.38" height="559.79" as="geometry" />
        </mxCell>
        <mxCell id="12ma-O_swXaxsjLXraEL-10" value="Report for mgrs" style="strokeWidth=2;html=1;shape=mxgraph.lean_mapping.manufacturing_process;fontSize=12;verticalAlign=middle;html=1;align=center;whiteSpace=wrap;fillColor=#dae8fc;strokeColor=#6c8ebf;" vertex="1" parent="1">
          <mxGeometry x="250" y="350" width="140" height="120" as="geometry" />
        </mxCell>
        <mxCell id="12ma-O_swXaxsjLXraEL-11" value="Daily mgr standup" style="text;fontSize=12;spacingLeft=2;verticalAlign=top;html=1;align=center;spacingTop=-5;resizeWidth=1;whiteSpace=wrap;" vertex="1" parent="12ma-O_swXaxsjLXraEL-10">
          <mxGeometry width="140" height="22.285714285714285" as="geometry" />
        </mxCell>
        <mxCell id="12ma-O_swXaxsjLXraEL-12" value="&lt;div align=&quot;center&quot;&gt;Plan for mgrs standup, morning e-mails&lt;br&gt;&lt;/div&gt;" style="strokeWidth=2;html=1;shape=mxgraph.lean_mapping.manufacturing_process;fontSize=12;verticalAlign=middle;html=1;align=center;whiteSpace=wrap;" vertex="1" parent="1">
          <mxGeometry x="70" y="350" width="140" height="120" as="geometry" />
        </mxCell>
        <mxCell id="12ma-O_swXaxsjLXraEL-13" value="Концептьуальный дизайн" style="text;fontSize=12;spacingLeft=2;verticalAlign=top;html=1;align=center;spacingTop=-5;resizeWidth=1;whiteSpace=wrap;" vertex="1" parent="12ma-O_swXaxsjLXraEL-12">
          <mxGeometry width="140" height="22.285714285714285" as="geometry" />
        </mxCell>
        <mxCell id="12ma-O_swXaxsjLXraEL-14" value="Server team report" style="strokeWidth=2;html=1;shape=mxgraph.lean_mapping.manufacturing_process;fontSize=12;verticalAlign=middle;html=1;align=center;whiteSpace=wrap;fillColor=#fad9d5;strokeColor=#ae4132;" vertex="1" parent="1">
          <mxGeometry x="610" y="350" width="140" height="120" as="geometry" />
        </mxCell>
        <mxCell id="12ma-O_swXaxsjLXraEL-15" value="Daily server standup" style="text;fontSize=12;spacingLeft=2;verticalAlign=top;html=1;align=center;spacingTop=-5;resizeWidth=1;whiteSpace=wrap;" vertex="1" parent="12ma-O_swXaxsjLXraEL-14">
          <mxGeometry width="140" height="22.285714285714285" as="geometry" />
        </mxCell>
        <mxCell id="12ma-O_swXaxsjLXraEL-16" value="Team members report" style="strokeWidth=2;html=1;shape=mxgraph.lean_mapping.manufacturing_process;fontSize=12;verticalAlign=middle;html=1;align=center;whiteSpace=wrap;fillColor=#fff2cc;strokeColor=#d6b656;" vertex="1" parent="1">
          <mxGeometry x="430" y="350" width="140" height="120" as="geometry" />
        </mxCell>
        <mxCell id="12ma-O_swXaxsjLXraEL-17" value="Daily product team standup" style="text;fontSize=12;spacingLeft=2;verticalAlign=top;html=1;align=center;spacingTop=-5;resizeWidth=1;whiteSpace=wrap;" vertex="1" parent="12ma-O_swXaxsjLXraEL-16">
          <mxGeometry width="140" height="50" as="geometry" />
        </mxCell>
        <mxCell id="12ma-O_swXaxsjLXraEL-18" value="" style="verticalLabelPosition=bottom;html=1;verticalAlign=top;strokeWidth=2;shape=mxgraph.lean_mapping.timeline2;dx1=0;dy1=1;dx2=139;dy2=0.05;dx3=177;dy3=0.95;dx4=321;dy4=0.05;dx5=359;dy5=0.95;dy6=0;dx7=375;dy7=0;points=[];" vertex="1" parent="1">
          <mxGeometry x="70" y="500" width="500" height="40" as="geometry" />
        </mxCell>
        <mxCell id="12ma-O_swXaxsjLXraEL-19" value="1hour" style="text;html=1;strokeColor=none;fillColor=none;align=center;verticalAlign=middle;whiteSpace=wrap;rounded=0;" vertex="1" parent="1">
          <mxGeometry x="90" y="540" width="60" height="30" as="geometry" />
        </mxCell>
        <mxCell id="12ma-O_swXaxsjLXraEL-20" value="30&quot;" style="text;html=1;strokeColor=none;fillColor=none;align=center;verticalAlign=middle;whiteSpace=wrap;rounded=0;" vertex="1" parent="1">
          <mxGeometry x="290" y="540" width="60" height="30" as="geometry" />
        </mxCell>
        <mxCell id="12ma-O_swXaxsjLXraEL-21" value="10:00" style="text;html=1;strokeColor=none;fillColor=none;align=center;verticalAlign=middle;whiteSpace=wrap;rounded=0;" vertex="1" parent="1">
          <mxGeometry x="54" y="511" width="60" height="30" as="geometry" />
        </mxCell>
        <mxCell id="12ma-O_swXaxsjLXraEL-22" value="11:00" style="text;html=1;strokeColor=none;fillColor=none;align=center;verticalAlign=middle;whiteSpace=wrap;rounded=0;" vertex="1" parent="1">
          <mxGeometry x="234" y="512" width="60" height="30" as="geometry" />
        </mxCell>
        <mxCell id="12ma-O_swXaxsjLXraEL-23" value="11:30" style="text;html=1;strokeColor=none;fillColor=none;align=center;verticalAlign=middle;whiteSpace=wrap;rounded=0;" vertex="1" parent="1">
          <mxGeometry x="416" y="510" width="60" height="30" as="geometry" />
        </mxCell>
        <mxCell id="12ma-O_swXaxsjLXraEL-24" value="30&quot;" style="text;html=1;strokeColor=none;fillColor=none;align=center;verticalAlign=middle;whiteSpace=wrap;rounded=0;" vertex="1" parent="1">
          <mxGeometry x="440" y="540" width="60" height="30" as="geometry" />
        </mxCell>
        <object label="" Timeline="allow add and delete endpoint" id="12ma-O_swXaxsjLXraEL-25">
          <mxCell style="verticalLabelPosition=bottom;html=1;verticalAlign=top;strokeWidth=2;shape=mxgraph.lean_mapping.timeline2;dx1=0;dy1=1;dx2=30;dy2=0;dx3=70;dy3=0.875;dx4=211;dy4=0;dx5=252;dy5=0.85;dy6=0;" vertex="1" parent="1">
            <mxGeometry x="540" y="500" width="390" height="40" as="geometry" />
          </mxCell>
        </object>
        <mxCell id="12ma-O_swXaxsjLXraEL-26" value="12:00" style="text;html=1;strokeColor=none;fillColor=none;align=center;verticalAlign=middle;whiteSpace=wrap;rounded=0;" vertex="1" parent="1">
          <mxGeometry x="597" y="511" width="60" height="30" as="geometry" />
        </mxCell>
        <mxCell id="12ma-O_swXaxsjLXraEL-27" value="12:30" style="text;html=1;strokeColor=none;fillColor=none;align=center;verticalAlign=middle;whiteSpace=wrap;rounded=0;" vertex="1" parent="1">
          <mxGeometry x="780" y="505" width="60" height="30" as="geometry" />
        </mxCell>
        <mxCell id="12ma-O_swXaxsjLXraEL-28" value="30&quot;" style="text;html=1;strokeColor=none;fillColor=none;align=center;verticalAlign=middle;whiteSpace=wrap;rounded=0;" vertex="1" parent="1">
          <mxGeometry x="640" y="535" width="60" height="30" as="geometry" />
        </mxCell>
        <mxCell id="12ma-O_swXaxsjLXraEL-29" value="Team members report&lt;br&gt;&lt;div&gt;By demand&lt;/div&gt;" style="strokeWidth=2;html=1;shape=mxgraph.lean_mapping.manufacturing_process;fontSize=12;verticalAlign=middle;html=1;align=center;whiteSpace=wrap;fillColor=#fff2cc;strokeColor=#d6b656;" vertex="1" parent="1">
          <mxGeometry x="790" y="350" width="140" height="120" as="geometry" />
        </mxCell>
        <mxCell id="12ma-O_swXaxsjLXraEL-30" value="Daily product team standup" style="text;fontSize=12;spacingLeft=2;verticalAlign=top;html=1;align=center;spacingTop=-5;resizeWidth=1;whiteSpace=wrap;" vertex="1" parent="12ma-O_swXaxsjLXraEL-29">
          <mxGeometry width="140" height="50" as="geometry" />
        </mxCell>
        <mxCell id="12ma-O_swXaxsjLXraEL-32" value="30&quot;" style="text;html=1;strokeColor=none;fillColor=none;align=center;verticalAlign=middle;whiteSpace=wrap;rounded=0;" vertex="1" parent="1">
          <mxGeometry x="830" y="535" width="60" height="30" as="geometry" />
        </mxCell>
        <mxCell id="12ma-O_swXaxsjLXraEL-35" value="" style="whiteSpace=wrap;html=1;aspect=fixed;" vertex="1" parent="1">
          <mxGeometry x="413" y="36" width="164" height="164" as="geometry" />
        </mxCell>
        <mxCell id="12ma-O_swXaxsjLXraEL-39" style="edgeStyle=orthogonalEdgeStyle;rounded=0;orthogonalLoop=1;jettySize=auto;html=1;entryX=0.67;entryY=0;entryDx=0;entryDy=0;" edge="1" parent="1" source="12ma-O_swXaxsjLXraEL-33" target="12ma-O_swXaxsjLXraEL-1">
          <mxGeometry relative="1" as="geometry">
            <Array as="points">
              <mxPoint x="47" y="90" />
            </Array>
          </mxGeometry>
        </mxCell>
        <mxCell id="12ma-O_swXaxsjLXraEL-40" value="Утвержденные запросы" style="edgeLabel;html=1;align=center;verticalAlign=middle;resizable=0;points=[];fontSize=20;" vertex="1" connectable="0" parent="12ma-O_swXaxsjLXraEL-39">
          <mxGeometry x="-0.08" y="-1" relative="1" as="geometry">
            <mxPoint as="offset" />
          </mxGeometry>
        </mxCell>
        <mxCell id="12ma-O_swXaxsjLXraEL-33" value="&lt;h1&gt;Релиз-менеджер&lt;/h1&gt;&lt;p&gt;Сбор потребностей от заказчика&lt;br&gt;&lt;/p&gt;" style="text;html=1;strokeColor=none;fillColor=none;spacing=5;spacingTop=-20;whiteSpace=wrap;overflow=hidden;rounded=0;align=center;" vertex="1" parent="1">
          <mxGeometry x="400" y="60" width="190" height="120" as="geometry" />
        </mxCell>
        <mxCell id="12ma-O_swXaxsjLXraEL-42" value="" style="rounded=1;whiteSpace=wrap;html=1;textOpacity=30;fillColor=#ffe6cc;strokeColor=#d79b00;glass=0;fillOpacity=35;" vertex="1" parent="1">
          <mxGeometry x="-66" y="20" width="1146" height="300" as="geometry" />
        </mxCell>
      </root>
    </mxGraphModel>
  </diagram>
</mxfile>
